{
  "header": {
    "PPQ": 480,
    "timeSignature": [
      3,
      4
    ],
    "bpm": 85.00004250002125,
    "name": ""
  },
  "tempo": [
    {
      "absoluteTime": 0,
      "seconds": 0,
      "bpm": 85.00004250002125
    },
    {
      "absoluteTime": 144000,
      "seconds": 211.76459999999946,
      "bpm": 50
    }
  ],
  "timeSignature": [
    {
      "absoluteTime": 0,
      "seconds": 0,
      "numerator": 3,
      "denominator": 2,
      "click": 24,
      "notesQ": 8
    }
  ],
  "startTime": 0,
  "duration": 215.89253911249745,
  "tracks": [
    {
      "startTime": 0,
      "duration": 215.87489206249938,
      "length": 696,
      "notes": [
        {
          "name": "E4",
          "midi": 64,
          "time": 0,
          "velocity": 0.12598425196850394,
          "duration": 0.6691173125
        },
        {
          "name": "E4",
          "midi": 64,
          "time": 0.7058819999999999,
          "velocity": 0.12598425196850394,
          "duration": 0.6691173125000001
        },
        {
          "name": "E4",
          "midi": 64,
          "time": 1.411764,
          "velocity": 0.12598425196850394,
          "duration": 0.6691173124999998
        },
        {
          "name": "E4",
          "midi": 64,
          "time": 2.1176459999999997,
          "velocity": 0.12598425196850394,
          "duration": 0.6691173125000001
        },
        {
          "name": "E4",
          "midi": 64,
          "time": 2.8235279999999996,
          "velocity": 0.14960629921259844,
          "duration": 0.6691173125000001
        },
        {
          "name": "E4",
          "midi": 64,
          "time": 3.5294099999999995,
          "velocity": 0.18110236220472442,
          "duration": 0.6691173125000001
        },
        {
          "name": "E4",
          "midi": 64,
          "time": 4.235291999999999,
          "velocity": 0.2125984251968504,
          "duration": 0.6691173125000001
        },
        {
          "name": "E4",
          "midi": 64,
          "time": 4.941173999999999,
          "velocity": 0.23622047244094488,
          "duration": 0.6691173125000001
        },
        {
          "name": "E4",
          "midi": 64,
          "time": 5.647055999999999,
          "velocity": 0.2677165354330709,
          "duration": 0.6691173125000001
        },
        {
          "name": "E4",
          "midi": 64,
          "time": 6.352937999999999,
          "velocity": 0.2992125984251969,
          "duration": 0.6691173125000001
        },
        {
          "name": "E4",
          "midi": 64,
          "time": 7.058819999999999,
          "velocity": 0.3228346456692913,
          "duration": 0.6691173125000001
        },
        {
          "name": "E4",
          "midi": 64,
          "time": 7.764701999999999,
          "velocity": 0.3543307086614173,
          "duration": 0.6691173125000001
        },
        {
          "name": "E4",
          "midi": 64,
          "time": 8.470583999999999,
          "velocity": 0.3858267716535433,
          "duration": 0.6691173124999992
        },
        {
          "name": "A4",
          "midi": 69,
          "time": 8.470583999999999,
          "velocity": 0.3858267716535433,
          "duration": 2.0102931124999976
        },
        {
          "name": "E4",
          "midi": 64,
          "time": 9.176465999999998,
          "velocity": 0.3858267716535433,
          "duration": 0.6691173124999992
        },
        {
          "name": "E4",
          "midi": 64,
          "time": 9.882347999999997,
          "velocity": 0.3858267716535433,
          "duration": 0.6691173124999992
        },
        {
          "name": "E4",
          "midi": 64,
          "time": 10.588229999999996,
          "velocity": 0.3858267716535433,
          "duration": 0.6691173124999992
        },
        {
          "name": "B4",
          "midi": 71,
          "time": 10.588229999999996,
          "velocity": 0.3858267716535433,
          "duration": 4.022056812499995
        },
        {
          "name": "E4",
          "midi": 64,
          "time": 11.294111999999995,
          "velocity": 0.3858267716535433,
          "duration": 0.6691173124999992
        },
        {
          "name": "E4",
          "midi": 64,
          "time": 11.999993999999994,
          "velocity": 0.3858267716535433,
          "duration": 0.6691173124999992
        },
        {
          "name": "E4",
          "midi": 64,
          "time": 12.705875999999993,
          "velocity": 0.3858267716535433,
          "duration": 0.6691173124999992
        },
        {
          "name": "E4",
          "midi": 64,
          "time": 13.411757999999992,
          "velocity": 0.3858267716535433,
          "duration": 0.6691173124999992
        },
        {
          "name": "E4",
          "midi": 64,
          "time": 14.11763999999999,
          "velocity": 0.3858267716535433,
          "duration": 0.669117312500001
        },
        {
          "name": "E4",
          "midi": 64,
          "time": 14.823521999999992,
          "velocity": 0.3858267716535433,
          "duration": 0.6691173124999992
        },
        {
          "name": "A4",
          "midi": 69,
          "time": 14.823521999999992,
          "velocity": 0.3858267716535433,
          "duration": 0.6691173124999992
        },
        {
          "name": "E4",
          "midi": 64,
          "time": 15.52940399999999,
          "velocity": 0.3858267716535433,
          "duration": 0.669117312500001
        },
        {
          "name": "B4",
          "midi": 71,
          "time": 15.52940399999999,
          "velocity": 0.3858267716535433,
          "duration": 0.669117312500001
        },
        {
          "name": "E4",
          "midi": 64,
          "time": 16.23528599999999,
          "velocity": 0.3858267716535433,
          "duration": 0.6691173124999992
        },
        {
          "name": "C5",
          "midi": 72,
          "time": 16.23528599999999,
          "velocity": 0.3858267716535433,
          "duration": 0.6691173124999992
        },
        {
          "name": "E4",
          "midi": 64,
          "time": 16.94116799999999,
          "velocity": 0.3858267716535433,
          "duration": 0.6691173124999992
        },
        {
          "name": "B4",
          "midi": 71,
          "time": 16.94116799999999,
          "velocity": 0.3858267716535433,
          "duration": 0.6691173124999992
        },
        {
          "name": "E4",
          "midi": 64,
          "time": 17.64704999999999,
          "velocity": 0.3858267716535433,
          "duration": 0.6691173124999992
        },
        {
          "name": "A4",
          "midi": 69,
          "time": 17.64704999999999,
          "velocity": 0.3858267716535433,
          "duration": 0.6691173124999992
        },
        {
          "name": "E4",
          "midi": 64,
          "time": 18.35293199999999,
          "velocity": 0.3858267716535433,
          "duration": 0.6691173124999992
        },
        {
          "name": "B4",
          "midi": 71,
          "time": 18.35293199999999,
          "velocity": 0.3858267716535433,
          "duration": 0.6691173124999992
        },
        {
          "name": "E4",
          "midi": 64,
          "time": 19.058813999999987,
          "velocity": 0.3858267716535433,
          "duration": 0.6691173124999992
        },
        {
          "name": "C5",
          "midi": 72,
          "time": 19.058813999999987,
          "velocity": 0.3858267716535433,
          "duration": 2.0102931124999976
        },
        {
          "name": "E4",
          "midi": 64,
          "time": 19.764695999999986,
          "velocity": 0.3858267716535433,
          "duration": 0.6691173124999992
        },
        {
          "name": "E4",
          "midi": 64,
          "time": 20.470577999999986,
          "velocity": 0.3858267716535433,
          "duration": 0.6691173124999992
        },
        {
          "name": "E4",
          "midi": 64,
          "time": 21.176459999999985,
          "velocity": 0.3858267716535433,
          "duration": 0.6691173124999992
        },
        {
          "name": "B4",
          "midi": 71,
          "time": 21.176459999999985,
          "velocity": 0.3858267716535433,
          "duration": 4.022056812499994
        },
        {
          "name": "E4",
          "midi": 64,
          "time": 21.882341999999984,
          "velocity": 0.3858267716535433,
          "duration": 0.6691173124999992
        },
        {
          "name": "E4",
          "midi": 64,
          "time": 22.588223999999983,
          "velocity": 0.3858267716535433,
          "duration": 0.6691173124999992
        },
        {
          "name": "E4",
          "midi": 64,
          "time": 23.29410599999998,
          "velocity": 0.3858267716535433,
          "duration": 0.6691173124999992
        },
        {
          "name": "E4",
          "midi": 64,
          "time": 23.99998799999998,
          "velocity": 0.3858267716535433,
          "duration": 0.6691173124999992
        },
        {
          "name": "E4",
          "midi": 64,
          "time": 24.70586999999998,
          "velocity": 0.3858267716535433,
          "duration": 0.6691173124999992
        },
        {
          "name": "E4",
          "midi": 64,
          "time": 25.41175199999998,
          "velocity": 0.3858267716535433,
          "duration": 0.6691173124999992
        },
        {
          "name": "A4",
          "midi": 69,
          "time": 25.41175199999998,
          "velocity": 0.3858267716535433,
          "duration": 1.3397052125000002
        },
        {
          "name": "E4",
          "midi": 64,
          "time": 26.117633999999978,
          "velocity": 0.3858267716535433,
          "duration": 0.6691173125000027
        },
        {
          "name": "E4",
          "midi": 64,
          "time": 26.82351599999998,
          "velocity": 0.3858267716535433,
          "duration": 0.6691173124999992
        },
        {
          "name": "E5",
          "midi": 76,
          "time": 26.82351599999998,
          "velocity": 0.3858267716535433,
          "duration": 0.6691173124999992
        },
        {
          "name": "E4",
          "midi": 64,
          "time": 27.52939799999998,
          "velocity": 0.3858267716535433,
          "duration": 0.6691173124999992
        },
        {
          "name": "C5",
          "midi": 72,
          "time": 27.52939799999998,
          "velocity": 0.3858267716535433,
          "duration": 2.0102931124999976
        },
        {
          "name": "E4",
          "midi": 64,
          "time": 28.235279999999978,
          "velocity": 0.3858267716535433,
          "duration": 0.6691173124999992
        },
        {
          "name": "E4",
          "midi": 64,
          "time": 28.941161999999977,
          "velocity": 0.3858267716535433,
          "duration": 0.6691173124999992
        },
        {
          "name": "E4",
          "midi": 64,
          "time": 29.647043999999976,
          "velocity": 0.3858267716535433,
          "duration": 0.6691173124999992
        },
        {
          "name": "B4",
          "midi": 71,
          "time": 29.647043999999976,
          "velocity": 0.3858267716535433,
          "duration": 4.022056812500001
        },
        {
          "name": "E4",
          "midi": 64,
          "time": 30.352925999999975,
          "velocity": 0.3858267716535433,
          "duration": 0.6691173124999992
        },
        {
          "name": "E4",
          "midi": 64,
          "time": 31.058807999999974,
          "velocity": 0.3858267716535433,
          "duration": 0.6691173124999992
        },
        {
          "name": "E4",
          "midi": 64,
          "time": 31.764689999999973,
          "velocity": 0.3858267716535433,
          "duration": 0.6691173124999992
        },
        {
          "name": "E4",
          "midi": 64,
          "time": 32.470571999999976,
          "velocity": 0.3858267716535433,
          "duration": 0.6691173124999992
        },
        {
          "name": "E4",
          "midi": 64,
          "time": 33.17645399999998,
          "velocity": 0.3858267716535433,
          "duration": 0.6691173124999992
        },
        {
          "name": "E4",
          "midi": 64,
          "time": 33.88233599999998,
          "velocity": 0.3858267716535433,
          "duration": 0.6691173124999992
        },
        {
          "name": "A4",
          "midi": 69,
          "time": 33.88233599999998,
          "velocity": 0.3858267716535433,
          "duration": 0.6691173124999992
        },
        {
          "name": "E4",
          "midi": 64,
          "time": 34.58821799999998,
          "velocity": 0.3858267716535433,
          "duration": 0.6691173124999992
        },
        {
          "name": "E5",
          "midi": 76,
          "time": 34.58821799999998,
          "velocity": 0.3858267716535433,
          "duration": 0.6691173124999992
        },
        {
          "name": "E4",
          "midi": 64,
          "time": 35.294099999999986,
          "velocity": 0.3858267716535433,
          "duration": 0.6691173124999992
        },
        {
          "name": "C5",
          "midi": 72,
          "time": 35.294099999999986,
          "velocity": 0.3858267716535433,
          "duration": 0.6691173124999992
        },
        {
          "name": "E4",
          "midi": 64,
          "time": 35.99998199999999,
          "velocity": 0.3858267716535433,
          "duration": 0.6691173124999992
        },
        {
          "name": "B4",
          "midi": 71,
          "time": 35.99998199999999,
          "velocity": 0.3858267716535433,
          "duration": 0.6691173124999992
        },
        {
          "name": "E4",
          "midi": 64,
          "time": 36.70586399999999,
          "velocity": 0.3858267716535433,
          "duration": 0.6691173124999992
        },
        {
          "name": "A4",
          "midi": 69,
          "time": 36.70586399999999,
          "velocity": 0.3858267716535433,
          "duration": 0.6691173124999992
        },
        {
          "name": "E4",
          "midi": 64,
          "time": 37.411745999999994,
          "velocity": 0.3858267716535433,
          "duration": 0.6691173124999992
        },
        {
          "name": "B4",
          "midi": 71,
          "time": 37.411745999999994,
          "velocity": 0.3858267716535433,
          "duration": 0.6691173124999992
        },
        {
          "name": "E4",
          "midi": 64,
          "time": 38.117627999999996,
          "velocity": 0.3858267716535433,
          "duration": 0.6691173124999992
        },
        {
          "name": "C5",
          "midi": 72,
          "time": 38.117627999999996,
          "velocity": 0.3858267716535433,
          "duration": 2.0102931125000083
        },
        {
          "name": "E4",
          "midi": 64,
          "time": 38.82351,
          "velocity": 0.3858267716535433,
          "duration": 0.6691173124999992
        },
        {
          "name": "E4",
          "midi": 64,
          "time": 39.529392,
          "velocity": 0.3858267716535433,
          "duration": 0.6691173125000063
        },
        {
          "name": "E4",
          "midi": 64,
          "time": 40.23527400000001,
          "velocity": 0.3858267716535433,
          "duration": 0.6691173124999992
        },
        {
          "name": "B4",
          "midi": 71,
          "time": 40.23527400000001,
          "velocity": 0.3858267716535433,
          "duration": 4.022056812500011
        },
        {
          "name": "E4",
          "midi": 64,
          "time": 40.941156000000014,
          "velocity": 0.3858267716535433,
          "duration": 0.6691173124999992
        },
        {
          "name": "E4",
          "midi": 64,
          "time": 41.647038000000016,
          "velocity": 0.3858267716535433,
          "duration": 0.6691173124999992
        },
        {
          "name": "E4",
          "midi": 64,
          "time": 42.35292000000002,
          "velocity": 0.3858267716535433,
          "duration": 0.6691173124999992
        },
        {
          "name": "E4",
          "midi": 64,
          "time": 43.05880200000002,
          "velocity": 0.3858267716535433,
          "duration": 0.6691173124999992
        },
        {
          "name": "E4",
          "midi": 64,
          "time": 43.764684000000024,
          "velocity": 0.3858267716535433,
          "duration": 0.6691173124999992
        },
        {
          "name": "E4",
          "midi": 64,
          "time": 44.47056600000003,
          "velocity": 0.3858267716535433,
          "duration": 0.6691173124999992
        },
        {
          "name": "A4",
          "midi": 69,
          "time": 44.47056600000003,
          "velocity": 0.3858267716535433,
          "duration": 0.6691173124999992
        },
        {
          "name": "E4",
          "midi": 64,
          "time": 45.17644800000003,
          "velocity": 0.3858267716535433,
          "duration": 0.6691173124999992
        },
        {
          "name": "E5",
          "midi": 76,
          "time": 45.17644800000003,
          "velocity": 0.3858267716535433,
          "duration": 0.6691173124999992
        },
        {
          "name": "E4",
          "midi": 64,
          "time": 45.88233000000003,
          "velocity": 0.3858267716535433,
          "duration": 0.6691173124999992
        },
        {
          "name": "C5",
          "midi": 72,
          "time": 45.88233000000003,
          "velocity": 0.3858267716535433,
          "duration": 0.6691173124999992
        },
        {
          "name": "E4",
          "midi": 64,
          "time": 46.588212000000034,
          "velocity": 0.3858267716535433,
          "duration": 0.6691173124999992
        },
        {
          "name": "B4",
          "midi": 71,
          "time": 46.588212000000034,
          "velocity": 0.3858267716535433,
          "duration": 0.6691173124999992
        },
        {
          "name": "E4",
          "midi": 64,
          "time": 47.29409400000004,
          "velocity": 0.3858267716535433,
          "duration": 0.6691173124999992
        },
        {
          "name": "A4",
          "midi": 69,
          "time": 47.29409400000004,
          "velocity": 0.3858267716535433,
          "duration": 0.6691173124999992
        },
        {
          "name": "E4",
          "midi": 64,
          "time": 47.99997600000004,
          "velocity": 0.3858267716535433,
          "duration": 0.6691173124999992
        },
        {
          "name": "B4",
          "midi": 71,
          "time": 47.99997600000004,
          "velocity": 0.3858267716535433,
          "duration": 0.6691173124999992
        },
        {
          "name": "E4",
          "midi": 64,
          "time": 48.70585800000004,
          "velocity": 0.3858267716535433,
          "duration": 0.6691173124999992
        },
        {
          "name": "C5",
          "midi": 72,
          "time": 48.70585800000004,
          "velocity": 0.3858267716535433,
          "duration": 2.0102931125000083
        },
        {
          "name": "E4",
          "midi": 64,
          "time": 49.411740000000044,
          "velocity": 0.3858267716535433,
          "duration": 0.6691173124999992
        },
        {
          "name": "E4",
          "midi": 64,
          "time": 50.11762200000005,
          "velocity": 0.3858267716535433,
          "duration": 0.6691173125000063
        },
        {
          "name": "E4",
          "midi": 64,
          "time": 50.82350400000006,
          "velocity": 0.3858267716535433,
          "duration": 0.6691173124999992
        },
        {
          "name": "D5",
          "midi": 74,
          "time": 50.82350400000006,
          "velocity": 0.3858267716535433,
          "duration": 2.0102931125000083
        },
        {
          "name": "E4",
          "midi": 64,
          "time": 51.52938600000006,
          "velocity": 0.3858267716535433,
          "duration": 0.6691173124999992
        },
        {
          "name": "E4",
          "midi": 64,
          "time": 52.23526800000006,
          "velocity": 0.3858267716535433,
          "duration": 0.6691173125000063
        },
        {
          "name": "E4",
          "midi": 64,
          "time": 52.94115000000007,
          "velocity": 0.3858267716535433,
          "duration": 0.6691173124999992
        },
        {
          "name": "E5",
          "midi": 76,
          "time": 52.94115000000007,
          "velocity": 0.3858267716535433,
          "duration": 2.0102931125000083
        },
        {
          "name": "E4",
          "midi": 64,
          "time": 53.647032000000074,
          "velocity": 0.3858267716535433,
          "duration": 0.6691173124999992
        },
        {
          "name": "E4",
          "midi": 64,
          "time": 54.35291400000008,
          "velocity": 0.3858267716535433,
          "duration": 0.6691173125000063
        },
        {
          "name": "A4",
          "midi": 69,
          "time": 55.058796000000086,
          "velocity": 0.3858267716535433,
          "duration": 0.33382336249999867
        },
        {
          "name": "E4",
          "midi": 64,
          "time": 55.058796000000086,
          "velocity": 0.3858267716535433,
          "duration": 0.6691173124999992
        },
        {
          "name": "B4",
          "midi": 71,
          "time": 55.41173700000009,
          "velocity": 0.3858267716535433,
          "duration": 0.33382336249999867
        },
        {
          "name": "C5",
          "midi": 72,
          "time": 55.76467800000009,
          "velocity": 0.3858267716535433,
          "duration": 0.33382336249999867
        },
        {
          "name": "E4",
          "midi": 64,
          "time": 55.76467800000009,
          "velocity": 0.3858267716535433,
          "duration": 0.6691173124999992
        },
        {
          "name": "B4",
          "midi": 71,
          "time": 56.11761900000009,
          "velocity": 0.3858267716535433,
          "duration": 0.33382336249999867
        },
        {
          "name": "A4",
          "midi": 69,
          "time": 56.47056000000009,
          "velocity": 0.3858267716535433,
          "duration": 0.33382336249999867
        },
        {
          "name": "E4",
          "midi": 64,
          "time": 56.47056000000009,
          "velocity": 0.3858267716535433,
          "duration": 0.6691173124999992
        },
        {
          "name": "C5",
          "midi": 72,
          "time": 56.82350100000009,
          "velocity": 0.3858267716535433,
          "duration": 0.33382336249999867
        },
        {
          "name": "B4",
          "midi": 71,
          "time": 57.176442000000094,
          "velocity": 0.3858267716535433,
          "duration": 0.33382336249999867
        },
        {
          "name": "E4",
          "midi": 64,
          "time": 57.176442000000094,
          "velocity": 0.3858267716535433,
          "duration": 0.6691173124999992
        },
        {
          "name": "A4",
          "midi": 69,
          "time": 57.529383000000095,
          "velocity": 0.3858267716535433,
          "duration": 0.33382336249999867
        },
        {
          "name": "G4",
          "midi": 67,
          "time": 57.8823240000001,
          "velocity": 0.3858267716535433,
          "duration": 0.33382336249999867
        },
        {
          "name": "E4",
          "midi": 64,
          "time": 57.8823240000001,
          "velocity": 0.3858267716535433,
          "duration": 0.6691173124999992
        },
        {
          "name": "A4",
          "midi": 69,
          "time": 58.2352650000001,
          "velocity": 0.3858267716535433,
          "duration": 0.33382336249999867
        },
        {
          "name": "B4",
          "midi": 71,
          "time": 58.5882060000001,
          "velocity": 0.3858267716535433,
          "duration": 0.33382336249999867
        },
        {
          "name": "E4",
          "midi": 64,
          "time": 58.5882060000001,
          "velocity": 0.3858267716535433,
          "duration": 0.6691173124999992
        },
        {
          "name": "G4",
          "midi": 67,
          "time": 58.9411470000001,
          "velocity": 0.3858267716535433,
          "duration": 0.33382336249999867
        },
        {
          "name": "B4",
          "midi": 71,
          "time": 59.2940880000001,
          "velocity": 0.3858267716535433,
          "duration": 0.33382336249999867
        },
        {
          "name": "E4",
          "midi": 64,
          "time": 59.2940880000001,
          "velocity": 0.3858267716535433,
          "duration": 0.6691173124999992
        },
        {
          "name": "A4",
          "midi": 69,
          "time": 59.6470290000001,
          "velocity": 0.3858267716535433,
          "duration": 0.33382336249999867
        },
        {
          "name": "G4",
          "midi": 67,
          "time": 59.999970000000104,
          "velocity": 0.3858267716535433,
          "duration": 0.33382336249999867
        },
        {
          "name": "E4",
          "midi": 64,
          "time": 59.999970000000104,
          "velocity": 0.3858267716535433,
          "duration": 0.6691173124999992
        },
        {
          "name": "A4",
          "midi": 69,
          "time": 60.352911000000105,
          "velocity": 0.3858267716535433,
          "duration": 0.33382336249999867
        },
        {
          "name": "B4",
          "midi": 71,
          "time": 60.70585200000011,
          "velocity": 0.3858267716535433,
          "duration": 0.33382336249999867
        },
        {
          "name": "E4",
          "midi": 64,
          "time": 60.70585200000011,
          "velocity": 0.3858267716535433,
          "duration": 0.6691173124999992
        },
        {
          "name": "G4",
          "midi": 67,
          "time": 61.05879300000011,
          "velocity": 0.3858267716535433,
          "duration": 0.33382336249999867
        },
        {
          "name": "A4",
          "midi": 69,
          "time": 61.41173400000011,
          "velocity": 0.3858267716535433,
          "duration": 0.33382336249999867
        },
        {
          "name": "E4",
          "midi": 64,
          "time": 61.41173400000011,
          "velocity": 0.3858267716535433,
          "duration": 0.6691173124999992
        },
        {
          "name": "C5",
          "midi": 72,
          "time": 61.76467500000011,
          "velocity": 0.3858267716535433,
          "duration": 0.33382336249999867
        },
        {
          "name": "B4",
          "midi": 71,
          "time": 62.11761600000011,
          "velocity": 0.3858267716535433,
          "duration": 0.33382336249999867
        },
        {
          "name": "E4",
          "midi": 64,
          "time": 62.11761600000011,
          "velocity": 0.3858267716535433,
          "duration": 0.6691173124999992
        },
        {
          "name": "D5",
          "midi": 74,
          "time": 62.47055700000011,
          "velocity": 0.3858267716535433,
          "duration": 0.33382336249999867
        },
        {
          "name": "C5",
          "midi": 72,
          "time": 62.823498000000114,
          "velocity": 0.3858267716535433,
          "duration": 0.33382336249999867
        },
        {
          "name": "E4",
          "midi": 64,
          "time": 62.823498000000114,
          "velocity": 0.3858267716535433,
          "duration": 0.6691173124999992
        },
        {
          "name": "A4",
          "midi": 69,
          "time": 63.176439000000116,
          "velocity": 0.3858267716535433,
          "duration": 0.33382336249999867
        },
        {
          "name": "B4",
          "midi": 71,
          "time": 63.52938000000012,
          "velocity": 0.3858267716535433,
          "duration": 0.33382336249999867
        },
        {
          "name": "E4",
          "midi": 64,
          "time": 63.52938000000012,
          "velocity": 0.3858267716535433,
          "duration": 0.6691173125000063
        },
        {
          "name": "G4",
          "midi": 67,
          "time": 63.88232100000012,
          "velocity": 0.3858267716535433,
          "duration": 0.33382336249999867
        },
        {
          "name": "A4",
          "midi": 69,
          "time": 64.23526200000012,
          "velocity": 0.3858267716535433,
          "duration": 0.33382336249999867
        },
        {
          "name": "E4",
          "midi": 64,
          "time": 64.23526200000012,
          "velocity": 0.3858267716535433,
          "duration": 0.6691173125000063
        },
        {
          "name": "C5",
          "midi": 72,
          "time": 64.58820300000012,
          "velocity": 0.3858267716535433,
          "duration": 0.33382336249999867
        },
        {
          "name": "B4",
          "midi": 71,
          "time": 64.94114400000012,
          "velocity": 0.3858267716535433,
          "duration": 0.33382336249999867
        },
        {
          "name": "E4",
          "midi": 64,
          "time": 64.94114400000012,
          "velocity": 0.3858267716535433,
          "duration": 0.6691173125000063
        },
        {
          "name": "D5",
          "midi": 74,
          "time": 65.29408500000012,
          "velocity": 0.3858267716535433,
          "duration": 0.33382336249999867
        },
        {
          "name": "C5",
          "midi": 72,
          "time": 65.64702600000012,
          "velocity": 0.3858267716535433,
          "duration": 0.33382336249999867
        },
        {
          "name": "E4",
          "midi": 64,
          "time": 65.64702600000012,
          "velocity": 0.3858267716535433,
          "duration": 0.6691173125000063
        },
        {
          "name": "D5",
          "midi": 74,
          "time": 65.99996700000013,
          "velocity": 0.3858267716535433,
          "duration": 0.33382336249999867
        },
        {
          "name": "C5",
          "midi": 72,
          "time": 66.35290800000013,
          "velocity": 0.3858267716535433,
          "duration": 0.33382336249999867
        },
        {
          "name": "E4",
          "midi": 64,
          "time": 66.35290800000013,
          "velocity": 0.3858267716535433,
          "duration": 0.6691173125000063
        },
        {
          "name": "B4",
          "midi": 71,
          "time": 66.70584900000013,
          "velocity": 0.3858267716535433,
          "duration": 0.33382336249999867
        },
        {
          "name": "A4",
          "midi": 69,
          "time": 67.05879000000013,
          "velocity": 0.3858267716535433,
          "duration": 0.33382336249999867
        },
        {
          "name": "E4",
          "midi": 64,
          "time": 67.05879000000013,
          "velocity": 0.3858267716535433,
          "duration": 0.6691173125000063
        },
        {
          "name": "C5",
          "midi": 72,
          "time": 67.41173100000013,
          "velocity": 0.3858267716535433,
          "duration": 0.33382336249999867
        },
        {
          "name": "B4",
          "midi": 71,
          "time": 67.76467200000013,
          "velocity": 0.3858267716535433,
          "duration": 0.33382336249999867
        },
        {
          "name": "E4",
          "midi": 64,
          "time": 67.76467200000013,
          "velocity": 0.3858267716535433,
          "duration": 0.6691173125000063
        },
        {
          "name": "A4",
          "midi": 69,
          "time": 68.11761300000013,
          "velocity": 0.3858267716535433,
          "duration": 0.33382336249999867
        },
        {
          "name": "G4",
          "midi": 67,
          "time": 68.47055400000013,
          "velocity": 0.3858267716535433,
          "duration": 0.33382336249999867
        },
        {
          "name": "E4",
          "midi": 64,
          "time": 68.47055400000013,
          "velocity": 0.3858267716535433,
          "duration": 0.6691173125000063
        },
        {
          "name": "A4",
          "midi": 69,
          "time": 68.82349500000014,
          "velocity": 0.3858267716535433,
          "duration": 0.33382336249999867
        },
        {
          "name": "B4",
          "midi": 71,
          "time": 69.17643600000014,
          "velocity": 0.3858267716535433,
          "duration": 0.33382336249999867
        },
        {
          "name": "E4",
          "midi": 64,
          "time": 69.17643600000014,
          "velocity": 0.3858267716535433,
          "duration": 0.6691173125000063
        },
        {
          "name": "G4",
          "midi": 67,
          "time": 69.52937700000014,
          "velocity": 0.3858267716535433,
          "duration": 0.33382336249999867
        },
        {
          "name": "B4",
          "midi": 71,
          "time": 69.88231800000014,
          "velocity": 0.3858267716535433,
          "duration": 0.33382336249999867
        },
        {
          "name": "E4",
          "midi": 64,
          "time": 69.88231800000014,
          "velocity": 0.3858267716535433,
          "duration": 0.6691173125000063
        },
        {
          "name": "A4",
          "midi": 69,
          "time": 70.23525900000014,
          "velocity": 0.3858267716535433,
          "duration": 0.33382336249999867
        },
        {
          "name": "G4",
          "midi": 67,
          "time": 70.58820000000014,
          "velocity": 0.3858267716535433,
          "duration": 0.33382336249999867
        },
        {
          "name": "E4",
          "midi": 64,
          "time": 70.58820000000014,
          "velocity": 0.3858267716535433,
          "duration": 0.6691173125000063
        },
        {
          "name": "E5",
          "midi": 76,
          "time": 70.94114100000014,
          "velocity": 0.3858267716535433,
          "duration": 0.33382336249999867
        },
        {
          "name": "B4",
          "midi": 71,
          "time": 71.29408200000015,
          "velocity": 0.3858267716535433,
          "duration": 0.33382336249999867
        },
        {
          "name": "E4",
          "midi": 64,
          "time": 71.29408200000015,
          "velocity": 0.3858267716535433,
          "duration": 0.6691173125000063
        },
        {
          "name": "G4",
          "midi": 67,
          "time": 71.64702300000015,
          "velocity": 0.3858267716535433,
          "duration": 0.33382336249999867
        },
        {
          "name": "A4",
          "midi": 69,
          "time": 71.99996400000015,
          "velocity": 0.3858267716535433,
          "duration": 0.33382336249999867
        },
        {
          "name": "E4",
          "midi": 64,
          "time": 71.99996400000015,
          "velocity": 0.3858267716535433,
          "duration": 0.6691173125000063
        },
        {
          "name": "B4",
          "midi": 71,
          "time": 72.35290500000015,
          "velocity": 0.3858267716535433,
          "duration": 0.33382336249999867
        },
        {
          "name": "C5",
          "midi": 72,
          "time": 72.70584600000015,
          "velocity": 0.3858267716535433,
          "duration": 0.33382336249999867
        },
        {
          "name": "E4",
          "midi": 64,
          "time": 72.70584600000015,
          "velocity": 0.3858267716535433,
          "duration": 0.6691173125000063
        },
        {
          "name": "B4",
          "midi": 71,
          "time": 73.05878700000015,
          "velocity": 0.3858267716535433,
          "duration": 0.33382336249999867
        },
        {
          "name": "A4",
          "midi": 69,
          "time": 73.41172800000015,
          "velocity": 0.3858267716535433,
          "duration": 0.33382336249999867
        },
        {
          "name": "E4",
          "midi": 64,
          "time": 73.41172800000015,
          "velocity": 0.3858267716535433,
          "duration": 0.6691173125000063
        },
        {
          "name": "C5",
          "midi": 72,
          "time": 73.76466900000015,
          "velocity": 0.3858267716535433,
          "duration": 0.33382336249999867
        },
        {
          "name": "B4",
          "midi": 71,
          "time": 74.11761000000016,
          "velocity": 0.3858267716535433,
          "duration": 0.33382336249999867
        },
        {
          "name": "E4",
          "midi": 64,
          "time": 74.11761000000016,
          "velocity": 0.3858267716535433,
          "duration": 0.6691173125000063
        },
        {
          "name": "A4",
          "midi": 69,
          "time": 74.47055100000016,
          "velocity": 0.3858267716535433,
          "duration": 0.33382336249999867
        },
        {
          "name": "G4",
          "midi": 67,
          "time": 74.82349200000016,
          "velocity": 0.3858267716535433,
          "duration": 0.33382336249999867
        },
        {
          "name": "E4",
          "midi": 64,
          "time": 74.82349200000016,
          "velocity": 0.3858267716535433,
          "duration": 0.6691173125000063
        },
        {
          "name": "A4",
          "midi": 69,
          "time": 75.17643300000016,
          "velocity": 0.3858267716535433,
          "duration": 0.33382336249999867
        },
        {
          "name": "B4",
          "midi": 71,
          "time": 75.52937400000016,
          "velocity": 0.3858267716535433,
          "duration": 0.33382336249999867
        },
        {
          "name": "E4",
          "midi": 64,
          "time": 75.52937400000016,
          "velocity": 0.3858267716535433,
          "duration": 0.6691173125000063
        },
        {
          "name": "G4",
          "midi": 67,
          "time": 75.88231500000016,
          "velocity": 0.3858267716535433,
          "duration": 0.33382336249999867
        },
        {
          "name": "B4",
          "midi": 71,
          "time": 76.23525600000016,
          "velocity": 0.3858267716535433,
          "duration": 0.33382336249999867
        },
        {
          "name": "E4",
          "midi": 64,
          "time": 76.23525600000016,
          "velocity": 0.3858267716535433,
          "duration": 0.6691173125000063
        },
        {
          "name": "A4",
          "midi": 69,
          "time": 76.58819700000016,
          "velocity": 0.3858267716535433,
          "duration": 0.33382336249999867
        },
        {
          "name": "G4",
          "midi": 67,
          "time": 76.94113800000017,
          "velocity": 0.3858267716535433,
          "duration": 0.33382336249999867
        },
        {
          "name": "E4",
          "midi": 64,
          "time": 76.94113800000017,
          "velocity": 0.3858267716535433,
          "duration": 0.6691173125000063
        },
        {
          "name": "E5",
          "midi": 76,
          "time": 77.29407900000017,
          "velocity": 0.3858267716535433,
          "duration": 0.33382336249999867
        },
        {
          "name": "B4",
          "midi": 71,
          "time": 77.64702000000017,
          "velocity": 0.3858267716535433,
          "duration": 0.33382336249999867
        },
        {
          "name": "E4",
          "midi": 64,
          "time": 77.64702000000017,
          "velocity": 0.3858267716535433,
          "duration": 0.6691173125000063
        },
        {
          "name": "G4",
          "midi": 67,
          "time": 77.99996100000017,
          "velocity": 0.3858267716535433,
          "duration": 0.33382336249999867
        },
        {
          "name": "A4",
          "midi": 69,
          "time": 78.35290200000017,
          "velocity": 0.3858267716535433,
          "duration": 0.33382336249999867
        },
        {
          "name": "E4",
          "midi": 64,
          "time": 78.35290200000017,
          "velocity": 0.3858267716535433,
          "duration": 0.6691173125000063
        },
        {
          "name": "C5",
          "midi": 72,
          "time": 78.70584300000017,
          "velocity": 0.3858267716535433,
          "duration": 0.33382336249999867
        },
        {
          "name": "B4",
          "midi": 71,
          "time": 79.05878400000017,
          "velocity": 0.3858267716535433,
          "duration": 0.33382336249999867
        },
        {
          "name": "E4",
          "midi": 64,
          "time": 79.05878400000017,
          "velocity": 0.3858267716535433,
          "duration": 0.6691173125000063
        },
        {
          "name": "D5",
          "midi": 74,
          "time": 79.41172500000017,
          "velocity": 0.3858267716535433,
          "duration": 0.33382336249999867
        },
        {
          "name": "C5",
          "midi": 72,
          "time": 79.76466600000018,
          "velocity": 0.3858267716535433,
          "duration": 0.33382336249999867
        },
        {
          "name": "E4",
          "midi": 64,
          "time": 79.76466600000018,
          "velocity": 0.3858267716535433,
          "duration": 0.6691173125000063
        },
        {
          "name": "A4",
          "midi": 69,
          "time": 80.11760700000018,
          "velocity": 0.3858267716535433,
          "duration": 0.33382336249999867
        },
        {
          "name": "B4",
          "midi": 71,
          "time": 80.47054800000018,
          "velocity": 0.3858267716535433,
          "duration": 0.33382336249999867
        },
        {
          "name": "E4",
          "midi": 64,
          "time": 80.47054800000018,
          "velocity": 0.3858267716535433,
          "duration": 0.6691173125000063
        },
        {
          "name": "G4",
          "midi": 67,
          "time": 80.82348900000018,
          "velocity": 0.3858267716535433,
          "duration": 0.33382336249999867
        },
        {
          "name": "A4",
          "midi": 69,
          "time": 81.17643000000018,
          "velocity": 0.3858267716535433,
          "duration": 0.33382336249999867
        },
        {
          "name": "E4",
          "midi": 64,
          "time": 81.17643000000018,
          "velocity": 0.3858267716535433,
          "duration": 0.6691173125000063
        },
        {
          "name": "C5",
          "midi": 72,
          "time": 81.52937100000018,
          "velocity": 0.3858267716535433,
          "duration": 0.33382336249999867
        },
        {
          "name": "B4",
          "midi": 71,
          "time": 81.88231200000018,
          "velocity": 0.3858267716535433,
          "duration": 0.33382336249999867
        },
        {
          "name": "E4",
          "midi": 64,
          "time": 81.88231200000018,
          "velocity": 0.3858267716535433,
          "duration": 0.6691173125000063
        },
        {
          "name": "D5",
          "midi": 74,
          "time": 82.23525300000018,
          "velocity": 0.3858267716535433,
          "duration": 0.33382336249999867
        },
        {
          "name": "C5",
          "midi": 72,
          "time": 82.58819400000019,
          "velocity": 0.3858267716535433,
          "duration": 0.33382336249999867
        },
        {
          "name": "E4",
          "midi": 64,
          "time": 82.58819400000019,
          "velocity": 0.3858267716535433,
          "duration": 0.6691173125000063
        },
        {
          "name": "D5",
          "midi": 74,
          "time": 82.94113500000019,
          "velocity": 0.3858267716535433,
          "duration": 0.33382336249999867
        },
        {
          "name": "C5",
          "midi": 72,
          "time": 83.29407600000019,
          "velocity": 0.3858267716535433,
          "duration": 0.33382336249999867
        },
        {
          "name": "E4",
          "midi": 64,
          "time": 83.29407600000019,
          "velocity": 0.3858267716535433,
          "duration": 0.6691173125000063
        },
        {
          "name": "B4",
          "midi": 71,
          "time": 83.64701700000019,
          "velocity": 0.3858267716535433,
          "duration": 0.33382336249999867
        },
        {
          "name": "A4",
          "midi": 69,
          "time": 83.99995800000019,
          "velocity": 0.3858267716535433,
          "duration": 0.33382336249999867
        },
        {
          "name": "E4",
          "midi": 64,
          "time": 83.99995800000019,
          "velocity": 0.3858267716535433,
          "duration": 0.6691173125000063
        },
        {
          "name": "C5",
          "midi": 72,
          "time": 84.35289900000019,
          "velocity": 0.3858267716535433,
          "duration": 0.33382336249999867
        },
        {
          "name": "B4",
          "midi": 71,
          "time": 84.7058400000002,
          "velocity": 0.3858267716535433,
          "duration": 0.33382336249999867
        },
        {
          "name": "E4",
          "midi": 64,
          "time": 84.7058400000002,
          "velocity": 0.3858267716535433,
          "duration": 0.6691173125000063
        },
        {
          "name": "A4",
          "midi": 69,
          "time": 85.0587810000002,
          "velocity": 0.3858267716535433,
          "duration": 0.33382336249999867
        },
        {
          "name": "G4",
          "midi": 67,
          "time": 85.4117220000002,
          "velocity": 0.3858267716535433,
          "duration": 0.33382336249999867
        },
        {
          "name": "E4",
          "midi": 64,
          "time": 85.4117220000002,
          "velocity": 0.3858267716535433,
          "duration": 0.6691173125000063
        },
        {
          "name": "A4",
          "midi": 69,
          "time": 85.7646630000002,
          "velocity": 0.3858267716535433,
          "duration": 0.33382336249999867
        },
        {
          "name": "B4",
          "midi": 71,
          "time": 86.1176040000002,
          "velocity": 0.3858267716535433,
          "duration": 0.33382336249999867
        },
        {
          "name": "E4",
          "midi": 64,
          "time": 86.1176040000002,
          "velocity": 0.3858267716535433,
          "duration": 0.6691173125000063
        },
        {
          "name": "G4",
          "midi": 67,
          "time": 86.4705450000002,
          "velocity": 0.3858267716535433,
          "duration": 0.33382336249999867
        },
        {
          "name": "B4",
          "midi": 71,
          "time": 86.8234860000002,
          "velocity": 0.3858267716535433,
          "duration": 0.33382336249999867
        },
        {
          "name": "E4",
          "midi": 64,
          "time": 86.8234860000002,
          "velocity": 0.3858267716535433,
          "duration": 0.6691173125000063
        },
        {
          "name": "A4",
          "midi": 69,
          "time": 87.1764270000002,
          "velocity": 0.3858267716535433,
          "duration": 0.33382336249999867
        },
        {
          "name": "G4",
          "midi": 67,
          "time": 87.5293680000002,
          "velocity": 0.3858267716535433,
          "duration": 0.33382336249999867
        },
        {
          "name": "E4",
          "midi": 64,
          "time": 87.5293680000002,
          "velocity": 0.3858267716535433,
          "duration": 0.6691173125000063
        },
        {
          "name": "E5",
          "midi": 76,
          "time": 87.8823090000002,
          "velocity": 0.3858267716535433,
          "duration": 0.33382336249999867
        },
        {
          "name": "B4",
          "midi": 71,
          "time": 88.2352500000002,
          "velocity": 0.3858267716535433,
          "duration": 0.33382336249999867
        },
        {
          "name": "E4",
          "midi": 64,
          "time": 88.2352500000002,
          "velocity": 0.3858267716535433,
          "duration": 0.6691173125000063
        },
        {
          "name": "G4",
          "midi": 67,
          "time": 88.58819100000021,
          "velocity": 0.3858267716535433,
          "duration": 0.33382336249999867
        },
        {
          "name": "A4",
          "midi": 69,
          "time": 88.94113200000021,
          "velocity": 0.3858267716535433,
          "duration": 0.33382336249999867
        },
        {
          "name": "E4",
          "midi": 64,
          "time": 88.94113200000021,
          "velocity": 0.3858267716535433,
          "duration": 0.6691173125000063
        },
        {
          "name": "B4",
          "midi": 71,
          "time": 89.29407300000021,
          "velocity": 0.3858267716535433,
          "duration": 0.33382336249999867
        },
        {
          "name": "C5",
          "midi": 72,
          "time": 89.64701400000021,
          "velocity": 0.3858267716535433,
          "duration": 0.33382336249999867
        },
        {
          "name": "E4",
          "midi": 64,
          "time": 89.64701400000021,
          "velocity": 0.3858267716535433,
          "duration": 0.6691173125000063
        },
        {
          "name": "B4",
          "midi": 71,
          "time": 89.99995500000021,
          "velocity": 0.3858267716535433,
          "duration": 0.33382336249999867
        },
        {
          "name": "E5",
          "midi": 76,
          "time": 90.35289600000021,
          "velocity": 0.3858267716535433,
          "duration": 0.33382336249999867
        },
        {
          "name": "E4",
          "midi": 64,
          "time": 90.35289600000021,
          "velocity": 0.3858267716535433,
          "duration": 0.6691173125000063
        },
        {
          "name": "B4",
          "midi": 71,
          "time": 90.70583700000022,
          "velocity": 0.3858267716535433,
          "duration": 0.33382336249999867
        },
        {
          "name": "C5",
          "midi": 72,
          "time": 91.05877800000022,
          "velocity": 0.3858267716535433,
          "duration": 0.33382336249999867
        },
        {
          "name": "E4",
          "midi": 64,
          "time": 91.05877800000022,
          "velocity": 0.3858267716535433,
          "duration": 0.6691173125000063
        },
        {
          "name": "D5",
          "midi": 74,
          "time": 91.41171900000022,
          "velocity": 0.3858267716535433,
          "duration": 0.33382336249999867
        },
        {
          "name": "C5",
          "midi": 72,
          "time": 91.76466000000022,
          "velocity": 0.3858267716535433,
          "duration": 0.33382336249999867
        },
        {
          "name": "E4",
          "midi": 64,
          "time": 91.76466000000022,
          "velocity": 0.3858267716535433,
          "duration": 0.6691173125000063
        },
        {
          "name": "B4",
          "midi": 71,
          "time": 92.11760100000022,
          "velocity": 0.3858267716535433,
          "duration": 0.33382336249999867
        },
        {
          "name": "A4",
          "midi": 69,
          "time": 92.47054200000022,
          "velocity": 0.3858267716535433,
          "duration": 0.33382336249999867
        },
        {
          "name": "E4",
          "midi": 64,
          "time": 92.47054200000022,
          "velocity": 0.3858267716535433,
          "duration": 0.6691173125000063
        },
        {
          "name": "C5",
          "midi": 72,
          "time": 92.82348300000022,
          "velocity": 0.3858267716535433,
          "duration": 0.33382336249999867
        },
        {
          "name": "B4",
          "midi": 71,
          "time": 93.17642400000022,
          "velocity": 0.3858267716535433,
          "duration": 0.33382336249999867
        },
        {
          "name": "E4",
          "midi": 64,
          "time": 93.17642400000022,
          "velocity": 0.3858267716535433,
          "duration": 0.6691173125000063
        },
        {
          "name": "A4",
          "midi": 69,
          "time": 93.52936500000023,
          "velocity": 0.3858267716535433,
          "duration": 0.33382336249999867
        },
        {
          "name": "G4",
          "midi": 67,
          "time": 93.88230600000023,
          "velocity": 0.3858267716535433,
          "duration": 0.33382336249999867
        },
        {
          "name": "E4",
          "midi": 64,
          "time": 93.88230600000023,
          "velocity": 0.3858267716535433,
          "duration": 0.6691173125000063
        },
        {
          "name": "A4",
          "midi": 69,
          "time": 94.23524700000023,
          "velocity": 0.3858267716535433,
          "duration": 0.33382336249999867
        },
        {
          "name": "B4",
          "midi": 71,
          "time": 94.58818800000023,
          "velocity": 0.3858267716535433,
          "duration": 0.33382336249999867
        },
        {
          "name": "E4",
          "midi": 64,
          "time": 94.58818800000023,
          "velocity": 0.3858267716535433,
          "duration": 0.6691173125000063
        },
        {
          "name": "G4",
          "midi": 67,
          "time": 94.94112900000023,
          "velocity": 0.3858267716535433,
          "duration": 0.33382336249999867
        },
        {
          "name": "B4",
          "midi": 71,
          "time": 95.29407000000023,
          "velocity": 0.3858267716535433,
          "duration": 0.33382336249999867
        },
        {
          "name": "E4",
          "midi": 64,
          "time": 95.29407000000023,
          "velocity": 0.3858267716535433,
          "duration": 0.6691173125000063
        },
        {
          "name": "A4",
          "midi": 69,
          "time": 95.64701100000023,
          "velocity": 0.3858267716535433,
          "duration": 0.33382336249999867
        },
        {
          "name": "G4",
          "midi": 67,
          "time": 95.99995200000023,
          "velocity": 0.3858267716535433,
          "duration": 0.33382336249999867
        },
        {
          "name": "E4",
          "midi": 64,
          "time": 95.99995200000023,
          "velocity": 0.3858267716535433,
          "duration": 0.6691173125000063
        },
        {
          "name": "E5",
          "midi": 76,
          "time": 96.35289300000024,
          "velocity": 0.3858267716535433,
          "duration": 0.33382336249999867
        },
        {
          "name": "B4",
          "midi": 71,
          "time": 96.70583400000024,
          "velocity": 0.3858267716535433,
          "duration": 0.33382336249999867
        },
        {
          "name": "E4",
          "midi": 64,
          "time": 96.70583400000024,
          "velocity": 0.3858267716535433,
          "duration": 0.6691173125000063
        },
        {
          "name": "G4",
          "midi": 67,
          "time": 97.05877500000024,
          "velocity": 0.3858267716535433,
          "duration": 0.33382336249999867
        },
        {
          "name": "A4",
          "midi": 69,
          "time": 97.41171600000024,
          "velocity": 0.3858267716535433,
          "duration": 0.33382336249999867
        },
        {
          "name": "E4",
          "midi": 64,
          "time": 97.41171600000024,
          "velocity": 0.3858267716535433,
          "duration": 0.6691173125000063
        },
        {
          "name": "C5",
          "midi": 72,
          "time": 97.76465700000024,
          "velocity": 0.3858267716535433,
          "duration": 0.33382336249999867
        },
        {
          "name": "E5",
          "midi": 76,
          "time": 98.11759800000024,
          "velocity": 0.3858267716535433,
          "duration": 0.33382336249999867
        },
        {
          "name": "E4",
          "midi": 64,
          "time": 98.11759800000024,
          "velocity": 0.3858267716535433,
          "duration": 0.6691173125000063
        },
        {
          "name": "B4",
          "midi": 71,
          "time": 98.47053900000024,
          "velocity": 0.3858267716535433,
          "duration": 0.33382336249999867
        },
        {
          "name": "C5",
          "midi": 72,
          "time": 98.82348000000025,
          "velocity": 0.3858267716535433,
          "duration": 0.33382336249999867
        },
        {
          "name": "E4",
          "midi": 64,
          "time": 98.82348000000025,
          "velocity": 0.3858267716535433,
          "duration": 0.6691173125000063
        },
        {
          "name": "A4",
          "midi": 69,
          "time": 99.17642100000025,
          "velocity": 0.3858267716535433,
          "duration": 0.33382336249999867
        },
        {
          "name": "B4",
          "midi": 71,
          "time": 99.52936200000025,
          "velocity": 0.3858267716535433,
          "duration": 0.33382336249999867
        },
        {
          "name": "E4",
          "midi": 64,
          "time": 99.52936200000025,
          "velocity": 0.3858267716535433,
          "duration": 0.6691173125000063
        },
        {
          "name": "G4",
          "midi": 67,
          "time": 99.88230300000025,
          "velocity": 0.3858267716535433,
          "duration": 0.33382336249999867
        },
        {
          "name": "A4",
          "midi": 69,
          "time": 100.23524400000025,
          "velocity": 0.3858267716535433,
          "duration": 0.33382336249999867
        },
        {
          "name": "E4",
          "midi": 64,
          "time": 100.23524400000025,
          "velocity": 0.3858267716535433,
          "duration": 0.6691173125000063
        },
        {
          "name": "C5",
          "midi": 72,
          "time": 100.58818500000025,
          "velocity": 0.3858267716535433,
          "duration": 0.33382336249999867
        },
        {
          "name": "B4",
          "midi": 71,
          "time": 100.94112600000025,
          "velocity": 0.3858267716535433,
          "duration": 0.33382336249999867
        },
        {
          "name": "E4",
          "midi": 64,
          "time": 100.94112600000025,
          "velocity": 0.3858267716535433,
          "duration": 0.6691173125000063
        },
        {
          "name": "D5",
          "midi": 74,
          "time": 101.29406700000025,
          "velocity": 0.3858267716535433,
          "duration": 0.33382336249999867
        },
        {
          "name": "C5",
          "midi": 72,
          "time": 101.64700800000026,
          "velocity": 0.3858267716535433,
          "duration": 0.33382336249999867
        },
        {
          "name": "E4",
          "midi": 64,
          "time": 101.64700800000026,
          "velocity": 0.3858267716535433,
          "duration": 0.6691173125000063
        },
        {
          "name": "B4",
          "midi": 71,
          "time": 101.99994900000026,
          "velocity": 0.3858267716535433,
          "duration": 0.33382336249999867
        },
        {
          "name": "A4",
          "midi": 69,
          "time": 102.35289000000026,
          "velocity": 0.3858267716535433,
          "duration": 0.33382336249999867
        },
        {
          "name": "E4",
          "midi": 64,
          "time": 102.35289000000026,
          "velocity": 0.3858267716535433,
          "duration": 0.6691173125000063
        },
        {
          "name": "B4",
          "midi": 71,
          "time": 102.70583100000026,
          "velocity": 0.3858267716535433,
          "duration": 0.33382336249999867
        },
        {
          "name": "C5",
          "midi": 72,
          "time": 103.05877200000026,
          "velocity": 0.3858267716535433,
          "duration": 0.33382336249999867
        },
        {
          "name": "E4",
          "midi": 64,
          "time": 103.05877200000026,
          "velocity": 0.3858267716535433,
          "duration": 0.6691173125000063
        },
        {
          "name": "A4",
          "midi": 69,
          "time": 103.41171300000026,
          "velocity": 0.3858267716535433,
          "duration": 0.33382336249999867
        },
        {
          "name": "D5",
          "midi": 74,
          "time": 103.76465400000026,
          "velocity": 0.3858267716535433,
          "duration": 0.33382336249999867
        },
        {
          "name": "E4",
          "midi": 64,
          "time": 103.76465400000026,
          "velocity": 0.3858267716535433,
          "duration": 0.6691173125000063
        },
        {
          "name": "C5",
          "midi": 72,
          "time": 104.11759500000026,
          "velocity": 0.3858267716535433,
          "duration": 0.33382336249999867
        },
        {
          "name": "B4",
          "midi": 71,
          "time": 104.47053600000027,
          "velocity": 0.3858267716535433,
          "duration": 0.33382336249999867
        },
        {
          "name": "E4",
          "midi": 64,
          "time": 104.47053600000027,
          "velocity": 0.3858267716535433,
          "duration": 0.6691173125000063
        },
        {
          "name": "C5",
          "midi": 72,
          "time": 104.82347700000027,
          "velocity": 0.3858267716535433,
          "duration": 0.33382336249999867
        },
        {
          "name": "D5",
          "midi": 74,
          "time": 105.17641800000027,
          "velocity": 0.3858267716535433,
          "duration": 0.33382336249999867
        },
        {
          "name": "E4",
          "midi": 64,
          "time": 105.17641800000027,
          "velocity": 0.3858267716535433,
          "duration": 0.6691173125000063
        },
        {
          "name": "B4",
          "midi": 71,
          "time": 105.52935900000027,
          "velocity": 0.3858267716535433,
          "duration": 0.33382336249999867
        },
        {
          "name": "E4",
          "midi": 64,
          "time": 105.88230000000027,
          "velocity": 0.3858267716535433,
          "duration": 0.6691173125000063
        },
        {
          "name": "E5",
          "midi": 76,
          "time": 105.88230000000027,
          "velocity": 0.3858267716535433,
          "duration": 0.6691173125000063
        },
        {
          "name": "E4",
          "midi": 64,
          "time": 106.58818200000027,
          "velocity": 0.4251968503937008,
          "duration": 0.6691173125000063
        },
        {
          "name": "E5",
          "midi": 76,
          "time": 106.58818200000027,
          "velocity": 0.4251968503937008,
          "duration": 0.6691173125000063
        },
        {
          "name": "E4",
          "midi": 64,
          "time": 107.29406400000028,
          "velocity": 0.4645669291338583,
          "duration": 0.6691173125000063
        },
        {
          "name": "E5",
          "midi": 76,
          "time": 107.29406400000028,
          "velocity": 0.4645669291338583,
          "duration": 0.6691173125000063
        },
        {
          "name": "E4",
          "midi": 64,
          "time": 107.99994600000028,
          "velocity": 0.5039370078740157,
          "duration": 0.6691173125000063
        },
        {
          "name": "E5",
          "midi": 76,
          "time": 107.99994600000028,
          "velocity": 0.5039370078740157,
          "duration": 0.6691173125000063
        },
        {
          "name": "E4",
          "midi": 64,
          "time": 108.70582800000028,
          "velocity": 0.5433070866141733,
          "duration": 0.6691173125000063
        },
        {
          "name": "E5",
          "midi": 76,
          "time": 108.70582800000028,
          "velocity": 0.5433070866141733,
          "duration": 0.6691173125000063
        },
        {
          "name": "E4",
          "midi": 64,
          "time": 109.41171000000028,
          "velocity": 0.5826771653543307,
          "duration": 0.6691173125000063
        },
        {
          "name": "E5",
          "midi": 76,
          "time": 109.41171000000028,
          "velocity": 0.5826771653543307,
          "duration": 0.6691173125000063
        },
        {
          "name": "E4",
          "midi": 64,
          "time": 110.11759200000029,
          "velocity": 0.6299212598425197,
          "duration": 0.6691173125000063
        },
        {
          "name": "A4",
          "midi": 69,
          "time": 110.11759200000029,
          "velocity": 0.6299212598425197,
          "duration": 0.6691173125000063
        },
        {
          "name": "E4",
          "midi": 64,
          "time": 110.82347400000029,
          "velocity": 0.6299212598425197,
          "duration": 0.6691173125000063
        },
        {
          "name": "E5",
          "midi": 76,
          "time": 110.82347400000029,
          "velocity": 0.6299212598425197,
          "duration": 1.3397052125000073
        },
        {
          "name": "E4",
          "midi": 64,
          "time": 111.52935600000029,
          "velocity": 0.6299212598425197,
          "duration": 0.6691173125000063
        },
        {
          "name": "E4",
          "midi": 64,
          "time": 112.2352380000003,
          "velocity": 0.6299212598425197,
          "duration": 0.6691173125000063
        },
        {
          "name": "A4",
          "midi": 69,
          "time": 112.2352380000003,
          "velocity": 0.6299212598425197,
          "duration": 0.6691173125000063
        },
        {
          "name": "E4",
          "midi": 64,
          "time": 112.9411200000003,
          "velocity": 0.6299212598425197,
          "duration": 0.6691173125000063
        },
        {
          "name": "E5",
          "midi": 76,
          "time": 112.9411200000003,
          "velocity": 0.6299212598425197,
          "duration": 1.3397052125000073
        },
        {
          "name": "E4",
          "midi": 64,
          "time": 113.6470020000003,
          "velocity": 0.6299212598425197,
          "duration": 0.6691173125000063
        },
        {
          "name": "E4",
          "midi": 64,
          "time": 114.3528840000003,
          "velocity": 0.6299212598425197,
          "duration": 0.6691173125000063
        },
        {
          "name": "B4",
          "midi": 71,
          "time": 114.3528840000003,
          "velocity": 0.6299212598425197,
          "duration": 0.6691173125000063
        },
        {
          "name": "E4",
          "midi": 64,
          "time": 115.0587660000003,
          "velocity": 0.6299212598425197,
          "duration": 0.6691173125000063
        },
        {
          "name": "E5",
          "midi": 76,
          "time": 115.0587660000003,
          "velocity": 0.6299212598425197,
          "duration": 1.3397052125000073
        },
        {
          "name": "E4",
          "midi": 64,
          "time": 115.7646480000003,
          "velocity": 0.6299212598425197,
          "duration": 0.6691173125000063
        },
        {
          "name": "E4",
          "midi": 64,
          "time": 116.47053000000031,
          "velocity": 0.6299212598425197,
          "duration": 0.6691173125000063
        },
        {
          "name": "B4",
          "midi": 71,
          "time": 116.47053000000031,
          "velocity": 0.6299212598425197,
          "duration": 0.6691173125000063
        },
        {
          "name": "E4",
          "midi": 64,
          "time": 117.17641200000031,
          "velocity": 0.6299212598425197,
          "duration": 0.6691173125000063
        },
        {
          "name": "E5",
          "midi": 76,
          "time": 117.17641200000031,
          "velocity": 0.6299212598425197,
          "duration": 1.3397052125000073
        },
        {
          "name": "E4",
          "midi": 64,
          "time": 117.88229400000031,
          "velocity": 0.6299212598425197,
          "duration": 0.6691173125000063
        },
        {
          "name": "E4",
          "midi": 64,
          "time": 118.58817600000032,
          "velocity": 0.6299212598425197,
          "duration": 0.6691173125000063
        },
        {
          "name": "C5",
          "midi": 72,
          "time": 118.58817600000032,
          "velocity": 0.6299212598425197,
          "duration": 0.6691173125000063
        },
        {
          "name": "E4",
          "midi": 64,
          "time": 119.29405800000032,
          "velocity": 0.6299212598425197,
          "duration": 0.6691173125000063
        },
        {
          "name": "E5",
          "midi": 76,
          "time": 119.29405800000032,
          "velocity": 0.6299212598425197,
          "duration": 1.3397052125000073
        },
        {
          "name": "E4",
          "midi": 64,
          "time": 119.99994000000032,
          "velocity": 0.6299212598425197,
          "duration": 0.6691173125000063
        },
        {
          "name": "E4",
          "midi": 64,
          "time": 120.70582200000032,
          "velocity": 0.6299212598425197,
          "duration": 0.6691173125000063
        },
        {
          "name": "C5",
          "midi": 72,
          "time": 120.70582200000032,
          "velocity": 0.6299212598425197,
          "duration": 0.6691173125000063
        },
        {
          "name": "E4",
          "midi": 64,
          "time": 121.41170400000033,
          "velocity": 0.6299212598425197,
          "duration": 0.6691173125000063
        },
        {
          "name": "E5",
          "midi": 76,
          "time": 121.41170400000033,
          "velocity": 0.6299212598425197,
          "duration": 1.3397052125000073
        },
        {
          "name": "E4",
          "midi": 64,
          "time": 122.11758600000033,
          "velocity": 0.6299212598425197,
          "duration": 0.6691173125000063
        },
        {
          "name": "E4",
          "midi": 64,
          "time": 122.82346800000033,
          "velocity": 0.6299212598425197,
          "duration": 0.6691173125000063
        },
        {
          "name": "D5",
          "midi": 74,
          "time": 122.82346800000033,
          "velocity": 0.6299212598425197,
          "duration": 0.6691173125000063
        },
        {
          "name": "E4",
          "midi": 64,
          "time": 123.52935000000033,
          "velocity": 0.6299212598425197,
          "duration": 0.6691173125000063
        },
        {
          "name": "E5",
          "midi": 76,
          "time": 123.52935000000033,
          "velocity": 0.6299212598425197,
          "duration": 1.3397052125000073
        },
        {
          "name": "E4",
          "midi": 64,
          "time": 124.23523200000034,
          "velocity": 0.6299212598425197,
          "duration": 0.6691173125000063
        },
        {
          "name": "E4",
          "midi": 64,
          "time": 124.94111400000034,
          "velocity": 0.6299212598425197,
          "duration": 0.6691173125000063
        },
        {
          "name": "D5",
          "midi": 74,
          "time": 124.94111400000034,
          "velocity": 0.6299212598425197,
          "duration": 0.6691173125000063
        },
        {
          "name": "E4",
          "midi": 64,
          "time": 125.64699600000034,
          "velocity": 0.6299212598425197,
          "duration": 0.6691173125000063
        },
        {
          "name": "E5",
          "midi": 76,
          "time": 125.64699600000034,
          "velocity": 0.6299212598425197,
          "duration": 0.6691173125000063
        },
        {
          "name": "E4",
          "midi": 64,
          "time": 126.35287800000035,
          "velocity": 0.6299212598425197,
          "duration": 0.6691173125000063
        },
        {
          "name": "B4",
          "midi": 71,
          "time": 126.35287800000035,
          "velocity": 0.6299212598425197,
          "duration": 0.6691173125000063
        },
        {
          "name": "E4",
          "midi": 64,
          "time": 127.05876000000035,
          "velocity": 0.6299212598425197,
          "duration": 0.6691173125000063
        },
        {
          "name": "A4",
          "midi": 69,
          "time": 127.05876000000035,
          "velocity": 0.6299212598425197,
          "duration": 0.6691173125000063
        },
        {
          "name": "E4",
          "midi": 64,
          "time": 127.76464200000035,
          "velocity": 0.6299212598425197,
          "duration": 0.6691173124999921
        },
        {
          "name": "E5",
          "midi": 76,
          "time": 127.76464200000035,
          "velocity": 0.6299212598425197,
          "duration": 0.6691173124999921
        },
        {
          "name": "E4",
          "midi": 64,
          "time": 128.47052400000035,
          "velocity": 0.6299212598425197,
          "duration": 0.6691173124999921
        },
        {
          "name": "A4",
          "midi": 69,
          "time": 128.47052400000035,
          "velocity": 0.6299212598425197,
          "duration": 0.6691173124999921
        },
        {
          "name": "E4",
          "midi": 64,
          "time": 129.17640600000036,
          "velocity": 0.6299212598425197,
          "duration": 0.6691173124999921
        },
        {
          "name": "A4",
          "midi": 69,
          "time": 129.17640600000036,
          "velocity": 0.6299212598425197,
          "duration": 0.6691173124999921
        },
        {
          "name": "E4",
          "midi": 64,
          "time": 129.88228800000036,
          "velocity": 0.6299212598425197,
          "duration": 0.6691173124999921
        },
        {
          "name": "E5",
          "midi": 76,
          "time": 129.88228800000036,
          "velocity": 0.6299212598425197,
          "duration": 0.6691173124999921
        },
        {
          "name": "E4",
          "midi": 64,
          "time": 130.58817000000036,
          "velocity": 0.6299212598425197,
          "duration": 0.6691173124999921
        },
        {
          "name": "A4",
          "midi": 69,
          "time": 130.58817000000036,
          "velocity": 0.6299212598425197,
          "duration": 0.6691173124999921
        },
        {
          "name": "E4",
          "midi": 64,
          "time": 131.29405200000036,
          "velocity": 0.6299212598425197,
          "duration": 0.6691173124999921
        },
        {
          "name": "B4",
          "midi": 71,
          "time": 131.29405200000036,
          "velocity": 0.6299212598425197,
          "duration": 0.6691173124999921
        },
        {
          "name": "E4",
          "midi": 64,
          "time": 131.99993400000037,
          "velocity": 0.6299212598425197,
          "duration": 0.6691173124999921
        },
        {
          "name": "E5",
          "midi": 76,
          "time": 131.99993400000037,
          "velocity": 0.6299212598425197,
          "duration": 0.6691173124999921
        },
        {
          "name": "E4",
          "midi": 64,
          "time": 132.70581600000037,
          "velocity": 0.6299212598425197,
          "duration": 0.6691173124999921
        },
        {
          "name": "B4",
          "midi": 71,
          "time": 132.70581600000037,
          "velocity": 0.6299212598425197,
          "duration": 0.6691173124999921
        },
        {
          "name": "E4",
          "midi": 64,
          "time": 133.41169800000037,
          "velocity": 0.6299212598425197,
          "duration": 0.6691173124999921
        },
        {
          "name": "B4",
          "midi": 71,
          "time": 133.41169800000037,
          "velocity": 0.6299212598425197,
          "duration": 0.6691173124999921
        },
        {
          "name": "E4",
          "midi": 64,
          "time": 134.11758000000037,
          "velocity": 0.6299212598425197,
          "duration": 0.6691173124999921
        },
        {
          "name": "E5",
          "midi": 76,
          "time": 134.11758000000037,
          "velocity": 0.6299212598425197,
          "duration": 0.6691173124999921
        },
        {
          "name": "E4",
          "midi": 64,
          "time": 134.82346200000038,
          "velocity": 0.6299212598425197,
          "duration": 0.6691173124999921
        },
        {
          "name": "B4",
          "midi": 71,
          "time": 134.82346200000038,
          "velocity": 0.6299212598425197,
          "duration": 0.6691173124999921
        },
        {
          "name": "E4",
          "midi": 64,
          "time": 135.52934400000038,
          "velocity": 0.6299212598425197,
          "duration": 0.6691173124999921
        },
        {
          "name": "C5",
          "midi": 72,
          "time": 135.52934400000038,
          "velocity": 0.6299212598425197,
          "duration": 0.6691173124999921
        },
        {
          "name": "E4",
          "midi": 64,
          "time": 136.23522600000038,
          "velocity": 0.6299212598425197,
          "duration": 0.6691173124999921
        },
        {
          "name": "E5",
          "midi": 76,
          "time": 136.23522600000038,
          "velocity": 0.6299212598425197,
          "duration": 0.6691173124999921
        },
        {
          "name": "E4",
          "midi": 64,
          "time": 136.94110800000038,
          "velocity": 0.6299212598425197,
          "duration": 0.6691173124999921
        },
        {
          "name": "C5",
          "midi": 72,
          "time": 136.94110800000038,
          "velocity": 0.6299212598425197,
          "duration": 0.6691173124999921
        },
        {
          "name": "E4",
          "midi": 64,
          "time": 137.6469900000004,
          "velocity": 0.6299212598425197,
          "duration": 0.6691173124999921
        },
        {
          "name": "C5",
          "midi": 72,
          "time": 137.6469900000004,
          "velocity": 0.6299212598425197,
          "duration": 0.6691173124999921
        },
        {
          "name": "E4",
          "midi": 64,
          "time": 138.3528720000004,
          "velocity": 0.6299212598425197,
          "duration": 0.6691173124999921
        },
        {
          "name": "E5",
          "midi": 76,
          "time": 138.3528720000004,
          "velocity": 0.6299212598425197,
          "duration": 0.6691173124999921
        },
        {
          "name": "E4",
          "midi": 64,
          "time": 139.0587540000004,
          "velocity": 0.6299212598425197,
          "duration": 0.6691173124999921
        },
        {
          "name": "C5",
          "midi": 72,
          "time": 139.0587540000004,
          "velocity": 0.6299212598425197,
          "duration": 0.6691173124999921
        },
        {
          "name": "E4",
          "midi": 64,
          "time": 139.7646360000004,
          "velocity": 0.6299212598425197,
          "duration": 0.6691173124999921
        },
        {
          "name": "D5",
          "midi": 74,
          "time": 139.7646360000004,
          "velocity": 0.6299212598425197,
          "duration": 0.6691173124999921
        },
        {
          "name": "E4",
          "midi": 64,
          "time": 140.4705180000004,
          "velocity": 0.6299212598425197,
          "duration": 0.6691173124999921
        },
        {
          "name": "E5",
          "midi": 76,
          "time": 140.4705180000004,
          "velocity": 0.6299212598425197,
          "duration": 0.6691173124999921
        },
        {
          "name": "E4",
          "midi": 64,
          "time": 141.1764000000004,
          "velocity": 0.6299212598425197,
          "duration": 0.6691173124999921
        },
        {
          "name": "D5",
          "midi": 74,
          "time": 141.1764000000004,
          "velocity": 0.6299212598425197,
          "duration": 0.6691173124999921
        },
        {
          "name": "E4",
          "midi": 64,
          "time": 141.8822820000004,
          "velocity": 0.6299212598425197,
          "duration": 0.6691173124999921
        },
        {
          "name": "D5",
          "midi": 74,
          "time": 141.8822820000004,
          "velocity": 0.6299212598425197,
          "duration": 0.6691173124999921
        },
        {
          "name": "E4",
          "midi": 64,
          "time": 142.5881640000004,
          "velocity": 0.6692913385826772,
          "duration": 0.6691173124999921
        },
        {
          "name": "E5",
          "midi": 76,
          "time": 142.5881640000004,
          "velocity": 0.6692913385826772,
          "duration": 0.6691173124999921
        },
        {
          "name": "E4",
          "midi": 64,
          "time": 143.2940460000004,
          "velocity": 0.7086614173228346,
          "duration": 0.6691173124999921
        },
        {
          "name": "B4",
          "midi": 71,
          "time": 143.2940460000004,
          "velocity": 0.7086614173228346,
          "duration": 0.6691173124999921
        },
        {
          "name": "A4",
          "midi": 69,
          "time": 143.9999280000004,
          "velocity": 0.7559055118110236,
          "duration": 0.6691173124999921
        },
        {
          "name": "A5",
          "midi": 81,
          "time": 143.9999280000004,
          "velocity": 0.7559055118110236,
          "duration": 0.6691173124999921
        },
        {
          "name": "E5",
          "midi": 76,
          "time": 144.7058100000004,
          "velocity": 0.7559055118110236,
          "duration": 1.3397052125000073
        },
        {
          "name": "E6",
          "midi": 88,
          "time": 144.7058100000004,
          "velocity": 0.7559055118110236,
          "duration": 1.3397052125000073
        },
        {
          "name": "A4",
          "midi": 69,
          "time": 146.11757400000042,
          "velocity": 0.7559055118110236,
          "duration": 0.6691173124999921
        },
        {
          "name": "A5",
          "midi": 81,
          "time": 146.11757400000042,
          "velocity": 0.7559055118110236,
          "duration": 0.6691173124999921
        },
        {
          "name": "E5",
          "midi": 76,
          "time": 146.82345600000042,
          "velocity": 0.7559055118110236,
          "duration": 1.3397052125000073
        },
        {
          "name": "E6",
          "midi": 88,
          "time": 146.82345600000042,
          "velocity": 0.7559055118110236,
          "duration": 1.3397052125000073
        },
        {
          "name": "B4",
          "midi": 71,
          "time": 148.23522000000042,
          "velocity": 0.7559055118110236,
          "duration": 0.6691173124999921
        },
        {
          "name": "B5",
          "midi": 83,
          "time": 148.23522000000042,
          "velocity": 0.7559055118110236,
          "duration": 0.6691173124999921
        },
        {
          "name": "E5",
          "midi": 76,
          "time": 148.94110200000043,
          "velocity": 0.7559055118110236,
          "duration": 1.3397052125000073
        },
        {
          "name": "E6",
          "midi": 88,
          "time": 148.94110200000043,
          "velocity": 0.7559055118110236,
          "duration": 1.3397052125000073
        },
        {
          "name": "B4",
          "midi": 71,
          "time": 150.35286600000043,
          "velocity": 0.7559055118110236,
          "duration": 0.6691173124999921
        },
        {
          "name": "B5",
          "midi": 83,
          "time": 150.35286600000043,
          "velocity": 0.7559055118110236,
          "duration": 0.6691173124999921
        },
        {
          "name": "E5",
          "midi": 76,
          "time": 151.05874800000043,
          "velocity": 0.7559055118110236,
          "duration": 1.3397052125000073
        },
        {
          "name": "E6",
          "midi": 88,
          "time": 151.05874800000043,
          "velocity": 0.7559055118110236,
          "duration": 1.3397052125000073
        },
        {
          "name": "C5",
          "midi": 72,
          "time": 152.47051200000044,
          "velocity": 0.7559055118110236,
          "duration": 0.6691173124999921
        },
        {
          "name": "C6",
          "midi": 84,
          "time": 152.47051200000044,
          "velocity": 0.7559055118110236,
          "duration": 0.6691173124999921
        },
        {
          "name": "E5",
          "midi": 76,
          "time": 153.17639400000044,
          "velocity": 0.7559055118110236,
          "duration": 1.3397052125000073
        },
        {
          "name": "E6",
          "midi": 88,
          "time": 153.17639400000044,
          "velocity": 0.7559055118110236,
          "duration": 1.3397052125000073
        },
        {
          "name": "C5",
          "midi": 72,
          "time": 154.58815800000045,
          "velocity": 0.7559055118110236,
          "duration": 0.6691173124999921
        },
        {
          "name": "C6",
          "midi": 84,
          "time": 154.58815800000045,
          "velocity": 0.7559055118110236,
          "duration": 0.6691173124999921
        },
        {
          "name": "E5",
          "midi": 76,
          "time": 155.29404000000045,
          "velocity": 0.7559055118110236,
          "duration": 1.3397052125000073
        },
        {
          "name": "E6",
          "midi": 88,
          "time": 155.29404000000045,
          "velocity": 0.7559055118110236,
          "duration": 1.3397052125000073
        },
        {
          "name": "D5",
          "midi": 74,
          "time": 156.70580400000046,
          "velocity": 0.7559055118110236,
          "duration": 0.6691173124999921
        },
        {
          "name": "D6",
          "midi": 86,
          "time": 156.70580400000046,
          "velocity": 0.7559055118110236,
          "duration": 0.6691173124999921
        },
        {
          "name": "E5",
          "midi": 76,
          "time": 157.41168600000046,
          "velocity": 0.7559055118110236,
          "duration": 1.3397052125000073
        },
        {
          "name": "E6",
          "midi": 88,
          "time": 157.41168600000046,
          "velocity": 0.7559055118110236,
          "duration": 1.3397052125000073
        },
        {
          "name": "D5",
          "midi": 74,
          "time": 158.82345000000046,
          "velocity": 0.7559055118110236,
          "duration": 0.6691173124999921
        },
        {
          "name": "D6",
          "midi": 86,
          "time": 158.82345000000046,
          "velocity": 0.7559055118110236,
          "duration": 0.6691173124999921
        },
        {
          "name": "E5",
          "midi": 76,
          "time": 159.52933200000047,
          "velocity": 0.7559055118110236,
          "duration": 1.004411262500014
        },
        {
          "name": "E6",
          "midi": 88,
          "time": 159.52933200000047,
          "velocity": 0.7559055118110236,
          "duration": 1.004411262500014
        },
        {
          "name": "B4",
          "midi": 71,
          "time": 160.58815500000048,
          "velocity": 0.7559055118110236,
          "duration": 0.33382336249999867
        },
        {
          "name": "A3",
          "midi": 57,
          "time": 160.94109600000047,
          "velocity": 0.7559055118110236,
          "duration": 0.529411500000009
        },
        {
          "name": "A4",
          "midi": 69,
          "time": 160.94109600000047,
          "velocity": 0.7559055118110236,
          "duration": 0.6691173125000205
        },
        {
          "name": "E4",
          "midi": 64,
          "time": 161.6469780000005,
          "velocity": 0.7559055118110236,
          "duration": 1.3397052125000073
        },
        {
          "name": "E5",
          "midi": 76,
          "time": 161.6469780000005,
          "velocity": 0.7559055118110236,
          "duration": 1.3397052125000073
        },
        {
          "name": "A3",
          "midi": 57,
          "time": 163.0587420000005,
          "velocity": 0.7559055118110236,
          "duration": 0.529411500000009
        },
        {
          "name": "A4",
          "midi": 69,
          "time": 163.0587420000005,
          "velocity": 0.7559055118110236,
          "duration": 0.6691173125000205
        },
        {
          "name": "E4",
          "midi": 64,
          "time": 163.76462400000054,
          "velocity": 0.7559055118110236,
          "duration": 1.3397052125000073
        },
        {
          "name": "E5",
          "midi": 76,
          "time": 163.76462400000054,
          "velocity": 0.7559055118110236,
          "duration": 1.3397052125000073
        },
        {
          "name": "B3",
          "midi": 59,
          "time": 165.17638800000054,
          "velocity": 0.7559055118110236,
          "duration": 0.529411500000009
        },
        {
          "name": "B4",
          "midi": 71,
          "time": 165.17638800000054,
          "velocity": 0.7559055118110236,
          "duration": 0.6691173125000205
        },
        {
          "name": "E4",
          "midi": 64,
          "time": 165.88227000000057,
          "velocity": 0.7559055118110236,
          "duration": 1.3397052125000073
        },
        {
          "name": "E5",
          "midi": 76,
          "time": 165.88227000000057,
          "velocity": 0.7559055118110236,
          "duration": 1.3397052125000073
        },
        {
          "name": "B3",
          "midi": 59,
          "time": 167.29403400000058,
          "velocity": 0.7559055118110236,
          "duration": 0.529411500000009
        },
        {
          "name": "B4",
          "midi": 71,
          "time": 167.29403400000058,
          "velocity": 0.7559055118110236,
          "duration": 0.6691173125000205
        },
        {
          "name": "E4",
          "midi": 64,
          "time": 167.9999160000006,
          "velocity": 0.7559055118110236,
          "duration": 1.3397052125000073
        },
        {
          "name": "E5",
          "midi": 76,
          "time": 167.9999160000006,
          "velocity": 0.7559055118110236,
          "duration": 1.3397052125000073
        },
        {
          "name": "C4",
          "midi": 60,
          "time": 169.41168000000062,
          "velocity": 0.7559055118110236,
          "duration": 0.529411500000009
        },
        {
          "name": "C5",
          "midi": 72,
          "time": 169.41168000000062,
          "velocity": 0.7559055118110236,
          "duration": 0.6691173125000205
        },
        {
          "name": "E4",
          "midi": 64,
          "time": 170.11756200000065,
          "velocity": 0.7559055118110236,
          "duration": 1.3397052125000073
        },
        {
          "name": "E5",
          "midi": 76,
          "time": 170.11756200000065,
          "velocity": 0.7559055118110236,
          "duration": 1.3397052125000073
        },
        {
          "name": "C4",
          "midi": 60,
          "time": 171.52932600000065,
          "velocity": 0.7559055118110236,
          "duration": 0.529411500000009
        },
        {
          "name": "C5",
          "midi": 72,
          "time": 171.52932600000065,
          "velocity": 0.7559055118110236,
          "duration": 0.6691173125000205
        },
        {
          "name": "E4",
          "midi": 64,
          "time": 172.23520800000068,
          "velocity": 0.7559055118110236,
          "duration": 1.3397052125000073
        },
        {
          "name": "E5",
          "midi": 76,
          "time": 172.23520800000068,
          "velocity": 0.7559055118110236,
          "duration": 1.3397052125000073
        },
        {
          "name": "D4",
          "midi": 62,
          "time": 173.6469720000007,
          "velocity": 0.7559055118110236,
          "duration": 0.6691173124999921
        },
        {
          "name": "D5",
          "midi": 74,
          "time": 173.6469720000007,
          "velocity": 0.7559055118110236,
          "duration": 0.6691173124999921
        },
        {
          "name": "E4",
          "midi": 64,
          "time": 174.3528540000007,
          "velocity": 0.7559055118110236,
          "duration": 1.3397052125000073
        },
        {
          "name": "E5",
          "midi": 76,
          "time": 174.3528540000007,
          "velocity": 0.7559055118110236,
          "duration": 1.3397052125000073
        },
        {
          "name": "D4",
          "midi": 62,
          "time": 175.7646180000007,
          "velocity": 0.7559055118110236,
          "duration": 0.6691173124999921
        },
        {
          "name": "D5",
          "midi": 74,
          "time": 175.7646180000007,
          "velocity": 0.7559055118110236,
          "duration": 0.6691173124999921
        },
        {
          "name": "E4",
          "midi": 64,
          "time": 176.4705000000007,
          "velocity": 0.7559055118110236,
          "duration": 1.004411262500014
        },
        {
          "name": "E5",
          "midi": 76,
          "time": 176.4705000000007,
          "velocity": 0.7559055118110236,
          "duration": 1.004411262500014
        },
        {
          "name": "B4",
          "midi": 71,
          "time": 177.52932300000072,
          "velocity": 0.7559055118110236,
          "duration": 0.33382336249999867
        },
        {
          "name": "A4",
          "midi": 69,
          "time": 177.8822640000007,
          "velocity": 0.7559055118110236,
          "duration": 0.16617638750000197
        },
        {
          "name": "E4",
          "midi": 64,
          "time": 178.0587345000007,
          "velocity": 0.7559055118110236,
          "duration": 0.16617638750000197
        },
        {
          "name": "A4",
          "midi": 69,
          "time": 178.2352050000007,
          "velocity": 0.7559055118110236,
          "duration": 0.16617638750000197
        },
        {
          "name": "E5",
          "midi": 76,
          "time": 178.41167550000068,
          "velocity": 0.7559055118110236,
          "duration": 0.16617638750000197
        },
        {
          "name": "A4",
          "midi": 69,
          "time": 178.58814600000068,
          "velocity": 0.7559055118110236,
          "duration": 0.16617638750000197
        },
        {
          "name": "E4",
          "midi": 64,
          "time": 178.76461650000067,
          "velocity": 0.7559055118110236,
          "duration": 0.16617638750000197
        },
        {
          "name": "A4",
          "midi": 69,
          "time": 178.94108700000066,
          "velocity": 0.7559055118110236,
          "duration": 0.16617638750000197
        },
        {
          "name": "E4",
          "midi": 64,
          "time": 179.11755750000066,
          "velocity": 0.7559055118110236,
          "duration": 0.16617638750000197
        },
        {
          "name": "A4",
          "midi": 69,
          "time": 179.29402800000065,
          "velocity": 0.7559055118110236,
          "duration": 0.16617638750000197
        },
        {
          "name": "E5",
          "midi": 76,
          "time": 179.47049850000064,
          "velocity": 0.7559055118110236,
          "duration": 0.16617638750000197
        },
        {
          "name": "A4",
          "midi": 69,
          "time": 179.64696900000064,
          "velocity": 0.7559055118110236,
          "duration": 0.16617638750000197
        },
        {
          "name": "E4",
          "midi": 64,
          "time": 179.82343950000063,
          "velocity": 0.7559055118110236,
          "duration": 0.16617638750000197
        },
        {
          "name": "A4",
          "midi": 69,
          "time": 179.99991000000063,
          "velocity": 0.7559055118110236,
          "duration": 0.16617638750000197
        },
        {
          "name": "E4",
          "midi": 64,
          "time": 180.17638050000062,
          "velocity": 0.7559055118110236,
          "duration": 0.16617638750000197
        },
        {
          "name": "A4",
          "midi": 69,
          "time": 180.3528510000006,
          "velocity": 0.7559055118110236,
          "duration": 0.16617638750000197
        },
        {
          "name": "E5",
          "midi": 76,
          "time": 180.5293215000006,
          "velocity": 0.7559055118110236,
          "duration": 0.16617638750000197
        },
        {
          "name": "A4",
          "midi": 69,
          "time": 180.7057920000006,
          "velocity": 0.7559055118110236,
          "duration": 0.16617638750000197
        },
        {
          "name": "E4",
          "midi": 64,
          "time": 180.8822625000006,
          "velocity": 0.7559055118110236,
          "duration": 0.16617638750000197
        },
        {
          "name": "A4",
          "midi": 69,
          "time": 181.0587330000006,
          "velocity": 0.7559055118110236,
          "duration": 0.16617638750000197
        },
        {
          "name": "E4",
          "midi": 64,
          "time": 181.23520350000058,
          "velocity": 0.7559055118110236,
          "duration": 0.16617638750000197
        },
        {
          "name": "A4",
          "midi": 69,
          "time": 181.41167400000057,
          "velocity": 0.7559055118110236,
          "duration": 0.16617638750000197
        },
        {
          "name": "E5",
          "midi": 76,
          "time": 181.58814450000057,
          "velocity": 0.7559055118110236,
          "duration": 0.16617638750000197
        },
        {
          "name": "A4",
          "midi": 69,
          "time": 181.76461500000056,
          "velocity": 0.7559055118110236,
          "duration": 0.16617638750000197
        },
        {
          "name": "E4",
          "midi": 64,
          "time": 181.94108550000055,
          "velocity": 0.7559055118110236,
          "duration": 0.16617638750000197
        },
        {
          "name": "B4",
          "midi": 71,
          "time": 182.11755600000055,
          "velocity": 0.7559055118110236,
          "duration": 0.16617638750000197
        },
        {
          "name": "E4",
          "midi": 64,
          "time": 182.29402650000054,
          "velocity": 0.7559055118110236,
          "duration": 0.16617638750000197
        },
        {
          "name": "B4",
          "midi": 71,
          "time": 182.47049700000053,
          "velocity": 0.7559055118110236,
          "duration": 0.16617638750000197
        },
        {
          "name": "E5",
          "midi": 76,
          "time": 182.64696750000053,
          "velocity": 0.7559055118110236,
          "duration": 0.16617638750000197
        },
        {
          "name": "B4",
          "midi": 71,
          "time": 182.82343800000052,
          "velocity": 0.7559055118110236,
          "duration": 0.16617638750000197
        },
        {
          "name": "E4",
          "midi": 64,
          "time": 182.99990850000052,
          "velocity": 0.7559055118110236,
          "duration": 0.16617638750000197
        },
        {
          "name": "B4",
          "midi": 71,
          "time": 183.1763790000005,
          "velocity": 0.7559055118110236,
          "duration": 0.16617638750000197
        },
        {
          "name": "E4",
          "midi": 64,
          "time": 183.3528495000005,
          "velocity": 0.7559055118110236,
          "duration": 0.16617638750000197
        },
        {
          "name": "B4",
          "midi": 71,
          "time": 183.5293200000005,
          "velocity": 0.7559055118110236,
          "duration": 0.16617638750000197
        },
        {
          "name": "E5",
          "midi": 76,
          "time": 183.7057905000005,
          "velocity": 0.7559055118110236,
          "duration": 0.16617638750000197
        },
        {
          "name": "B4",
          "midi": 71,
          "time": 183.88226100000048,
          "velocity": 0.7559055118110236,
          "duration": 0.16617638750000197
        },
        {
          "name": "E4",
          "midi": 64,
          "time": 184.05873150000048,
          "velocity": 0.7559055118110236,
          "duration": 0.16617638750000197
        },
        {
          "name": "B4",
          "midi": 71,
          "time": 184.23520200000047,
          "velocity": 0.7559055118110236,
          "duration": 0.16617638750000197
        },
        {
          "name": "E4",
          "midi": 64,
          "time": 184.41167250000046,
          "velocity": 0.7559055118110236,
          "duration": 0.16617638750000197
        },
        {
          "name": "B4",
          "midi": 71,
          "time": 184.58814300000046,
          "velocity": 0.7559055118110236,
          "duration": 0.16617638750000197
        },
        {
          "name": "E5",
          "midi": 76,
          "time": 184.76461350000045,
          "velocity": 0.7559055118110236,
          "duration": 0.16617638750000197
        },
        {
          "name": "B4",
          "midi": 71,
          "time": 184.94108400000044,
          "velocity": 0.7559055118110236,
          "duration": 0.16617638750000197
        },
        {
          "name": "E4",
          "midi": 64,
          "time": 185.11755450000044,
          "velocity": 0.7559055118110236,
          "duration": 0.16617638750000197
        },
        {
          "name": "B4",
          "midi": 71,
          "time": 185.29402500000043,
          "velocity": 0.7559055118110236,
          "duration": 0.16617638750000197
        },
        {
          "name": "E4",
          "midi": 64,
          "time": 185.47049550000042,
          "velocity": 0.7559055118110236,
          "duration": 0.16617638750000197
        },
        {
          "name": "B4",
          "midi": 71,
          "time": 185.64696600000042,
          "velocity": 0.7559055118110236,
          "duration": 0.16617638750000197
        },
        {
          "name": "E5",
          "midi": 76,
          "time": 185.8234365000004,
          "velocity": 0.7559055118110236,
          "duration": 0.16617638750000197
        },
        {
          "name": "B4",
          "midi": 71,
          "time": 185.9999070000004,
          "velocity": 0.7559055118110236,
          "duration": 0.16617638750000197
        },
        {
          "name": "E4",
          "midi": 64,
          "time": 186.1763775000004,
          "velocity": 0.7559055118110236,
          "duration": 0.16617638750000197
        },
        {
          "name": "C5",
          "midi": 72,
          "time": 186.3528480000004,
          "velocity": 0.7559055118110236,
          "duration": 0.16617638750000197
        },
        {
          "name": "E4",
          "midi": 64,
          "time": 186.5293185000004,
          "velocity": 0.7559055118110236,
          "duration": 0.16617638750000197
        },
        {
          "name": "C5",
          "midi": 72,
          "time": 186.70578900000038,
          "velocity": 0.7559055118110236,
          "duration": 0.16617638750000197
        },
        {
          "name": "E5",
          "midi": 76,
          "time": 186.88225950000037,
          "velocity": 0.7559055118110236,
          "duration": 0.16617638750000197
        },
        {
          "name": "C5",
          "midi": 72,
          "time": 187.05873000000037,
          "velocity": 0.7559055118110236,
          "duration": 0.16617638750000197
        },
        {
          "name": "E4",
          "midi": 64,
          "time": 187.23520050000036,
          "velocity": 0.7559055118110236,
          "duration": 0.16617638750000197
        },
        {
          "name": "C5",
          "midi": 72,
          "time": 187.41167100000035,
          "velocity": 0.7559055118110236,
          "duration": 0.16617638750000197
        },
        {
          "name": "E4",
          "midi": 64,
          "time": 187.58814150000035,
          "velocity": 0.7559055118110236,
          "duration": 0.16617638750000197
        },
        {
          "name": "C5",
          "midi": 72,
          "time": 187.76461200000034,
          "velocity": 0.7559055118110236,
          "duration": 0.16617638750000197
        },
        {
          "name": "E5",
          "midi": 76,
          "time": 187.94108250000033,
          "velocity": 0.7559055118110236,
          "duration": 0.16617638750000197
        },
        {
          "name": "C5",
          "midi": 72,
          "time": 188.11755300000033,
          "velocity": 0.7559055118110236,
          "duration": 0.16617638750000197
        },
        {
          "name": "E4",
          "midi": 64,
          "time": 188.29402350000032,
          "velocity": 0.7559055118110236,
          "duration": 0.16617638750000197
        },
        {
          "name": "C5",
          "midi": 72,
          "time": 188.47049400000031,
          "velocity": 0.7559055118110236,
          "duration": 0.16617638750000197
        },
        {
          "name": "E4",
          "midi": 64,
          "time": 188.6469645000003,
          "velocity": 0.7559055118110236,
          "duration": 0.16617638750000197
        },
        {
          "name": "C5",
          "midi": 72,
          "time": 188.8234350000003,
          "velocity": 0.7559055118110236,
          "duration": 0.16617638750000197
        },
        {
          "name": "E5",
          "midi": 76,
          "time": 188.9999055000003,
          "velocity": 0.7559055118110236,
          "duration": 0.16617638750000197
        },
        {
          "name": "C5",
          "midi": 72,
          "time": 189.1763760000003,
          "velocity": 0.7559055118110236,
          "duration": 0.16617638750000197
        },
        {
          "name": "E4",
          "midi": 64,
          "time": 189.35284650000028,
          "velocity": 0.7559055118110236,
          "duration": 0.16617638750000197
        },
        {
          "name": "C5",
          "midi": 72,
          "time": 189.52931700000028,
          "velocity": 0.7559055118110236,
          "duration": 0.16617638750000197
        },
        {
          "name": "E4",
          "midi": 64,
          "time": 189.70578750000027,
          "velocity": 0.7559055118110236,
          "duration": 0.16617638750000197
        },
        {
          "name": "C5",
          "midi": 72,
          "time": 189.88225800000026,
          "velocity": 0.7559055118110236,
          "duration": 0.16617638750000197
        },
        {
          "name": "E5",
          "midi": 76,
          "time": 190.05872850000026,
          "velocity": 0.7559055118110236,
          "duration": 0.16617638750000197
        },
        {
          "name": "C5",
          "midi": 72,
          "time": 190.23519900000025,
          "velocity": 0.7559055118110236,
          "duration": 0.16617638750000197
        },
        {
          "name": "E4",
          "midi": 64,
          "time": 190.41166950000024,
          "velocity": 0.7559055118110236,
          "duration": 0.16617638750000197
        },
        {
          "name": "D5",
          "midi": 74,
          "time": 190.58814000000024,
          "velocity": 0.7559055118110236,
          "duration": 0.16617638750000197
        },
        {
          "name": "E4",
          "midi": 64,
          "time": 190.76461050000023,
          "velocity": 0.7559055118110236,
          "duration": 0.16617638750000197
        },
        {
          "name": "D5",
          "midi": 74,
          "time": 190.94108100000022,
          "velocity": 0.7559055118110236,
          "duration": 0.16617638750000197
        },
        {
          "name": "E5",
          "midi": 76,
          "time": 191.11755150000022,
          "velocity": 0.7559055118110236,
          "duration": 0.16617638750000197
        },
        {
          "name": "D5",
          "midi": 74,
          "time": 191.2940220000002,
          "velocity": 0.7559055118110236,
          "duration": 0.16617638750000197
        },
        {
          "name": "E4",
          "midi": 64,
          "time": 191.4704925000002,
          "velocity": 0.7559055118110236,
          "duration": 0.16617638750000197
        },
        {
          "name": "D5",
          "midi": 74,
          "time": 191.6469630000002,
          "velocity": 0.7559055118110236,
          "duration": 0.16617638750000197
        },
        {
          "name": "E4",
          "midi": 64,
          "time": 191.8234335000002,
          "velocity": 0.7559055118110236,
          "duration": 0.16617638750000197
        },
        {
          "name": "D5",
          "midi": 74,
          "time": 191.99990400000019,
          "velocity": 0.7559055118110236,
          "duration": 0.16617638750000197
        },
        {
          "name": "E5",
          "midi": 76,
          "time": 192.17637450000018,
          "velocity": 0.7559055118110236,
          "duration": 0.16617638750000197
        },
        {
          "name": "D5",
          "midi": 74,
          "time": 192.35284500000017,
          "velocity": 0.7559055118110236,
          "duration": 0.16617638750000197
        },
        {
          "name": "E4",
          "midi": 64,
          "time": 192.52931550000017,
          "velocity": 0.7559055118110236,
          "duration": 0.16617638750000197
        },
        {
          "name": "D5",
          "midi": 74,
          "time": 192.70578600000016,
          "velocity": 0.7559055118110236,
          "duration": 0.16617638750000197
        },
        {
          "name": "E4",
          "midi": 64,
          "time": 192.88225650000015,
          "velocity": 0.7559055118110236,
          "duration": 0.16617638750000197
        },
        {
          "name": "D5",
          "midi": 74,
          "time": 193.05872700000015,
          "velocity": 0.7559055118110236,
          "duration": 0.16617638750000197
        },
        {
          "name": "E5",
          "midi": 76,
          "time": 193.23519750000014,
          "velocity": 0.7559055118110236,
          "duration": 0.16617638750000197
        },
        {
          "name": "D5",
          "midi": 74,
          "time": 193.41166800000013,
          "velocity": 0.7559055118110236,
          "duration": 0.16617638750000197
        },
        {
          "name": "E4",
          "midi": 64,
          "time": 193.58813850000013,
          "velocity": 0.7559055118110236,
          "duration": 0.16617638750000197
        },
        {
          "name": "D5",
          "midi": 74,
          "time": 193.76460900000012,
          "velocity": 0.7559055118110236,
          "duration": 0.16617638750000197
        },
        {
          "name": "E4",
          "midi": 64,
          "time": 193.94107950000011,
          "velocity": 0.7559055118110236,
          "duration": 0.16617638750000197
        },
        {
          "name": "D5",
          "midi": 74,
          "time": 194.1175500000001,
          "velocity": 0.7559055118110236,
          "duration": 0.16617638750000197
        },
        {
          "name": "E5",
          "midi": 76,
          "time": 194.2940205000001,
          "velocity": 0.7559055118110236,
          "duration": 0.16617638750000197
        },
        {
          "name": "D5",
          "midi": 74,
          "time": 194.4704910000001,
          "velocity": 0.7559055118110236,
          "duration": 0.16617638750000197
        },
        {
          "name": "B4",
          "midi": 71,
          "time": 194.6469615000001,
          "velocity": 0.7559055118110236,
          "duration": 0.16617638750000197
        },
        {
          "name": "A4",
          "midi": 69,
          "time": 194.82343200000008,
          "velocity": 0.7559055118110236,
          "duration": 0.16617638750000197
        },
        {
          "name": "E4",
          "midi": 64,
          "time": 194.99990250000008,
          "velocity": 0.7559055118110236,
          "duration": 0.16617638750000197
        },
        {
          "name": "A4",
          "midi": 69,
          "time": 195.17637300000007,
          "velocity": 0.7559055118110236,
          "duration": 0.16617638750000197
        },
        {
          "name": "E5",
          "midi": 76,
          "time": 195.35284350000006,
          "velocity": 0.7559055118110236,
          "duration": 0.16617638750000197
        },
        {
          "name": "A4",
          "midi": 69,
          "time": 195.52931400000006,
          "velocity": 0.7559055118110236,
          "duration": 0.16617638750000197
        },
        {
          "name": "E4",
          "midi": 64,
          "time": 195.70578450000005,
          "velocity": 0.7559055118110236,
          "duration": 0.16617638750000197
        },
        {
          "name": "A4",
          "midi": 69,
          "time": 195.88225500000004,
          "velocity": 0.7559055118110236,
          "duration": 0.16617638750000197
        },
        {
          "name": "E4",
          "midi": 64,
          "time": 196.05872550000004,
          "velocity": 0.7559055118110236,
          "duration": 0.16617638750000197
        },
        {
          "name": "A4",
          "midi": 69,
          "time": 196.23519600000003,
          "velocity": 0.7559055118110236,
          "duration": 0.16617638750000197
        },
        {
          "name": "E5",
          "midi": 76,
          "time": 196.41166650000002,
          "velocity": 0.7559055118110236,
          "duration": 0.16617638750000197
        },
        {
          "name": "A4",
          "midi": 69,
          "time": 196.58813700000002,
          "velocity": 0.7559055118110236,
          "duration": 0.16617638750000197
        },
        {
          "name": "E4",
          "midi": 64,
          "time": 196.7646075,
          "velocity": 0.7559055118110236,
          "duration": 0.16617638750000197
        },
        {
          "name": "A4",
          "midi": 69,
          "time": 196.941078,
          "velocity": 0.7559055118110236,
          "duration": 0.16617638750000197
        },
        {
          "name": "E4",
          "midi": 64,
          "time": 197.1175485,
          "velocity": 0.7559055118110236,
          "duration": 0.16617638750000197
        },
        {
          "name": "A4",
          "midi": 69,
          "time": 197.294019,
          "velocity": 0.7559055118110236,
          "duration": 0.16617638750000197
        },
        {
          "name": "E5",
          "midi": 76,
          "time": 197.47048949999999,
          "velocity": 0.7559055118110236,
          "duration": 0.16617638750000197
        },
        {
          "name": "A4",
          "midi": 69,
          "time": 197.64695999999998,
          "velocity": 0.7559055118110236,
          "duration": 0.16617638750000197
        },
        {
          "name": "E4",
          "midi": 64,
          "time": 197.82343049999997,
          "velocity": 0.7559055118110236,
          "duration": 0.16617638750000197
        },
        {
          "name": "A4",
          "midi": 69,
          "time": 197.99990099999997,
          "velocity": 0.7559055118110236,
          "duration": 0.16617638750000197
        },
        {
          "name": "E4",
          "midi": 64,
          "time": 198.17637149999996,
          "velocity": 0.7559055118110236,
          "duration": 0.16617638750000197
        },
        {
          "name": "A4",
          "midi": 69,
          "time": 198.35284199999995,
          "velocity": 0.7559055118110236,
          "duration": 0.16617638750000197
        },
        {
          "name": "E5",
          "midi": 76,
          "time": 198.52931249999995,
          "velocity": 0.7559055118110236,
          "duration": 0.16617638750000197
        },
        {
          "name": "A4",
          "midi": 69,
          "time": 198.70578299999994,
          "velocity": 0.7559055118110236,
          "duration": 0.16617638750000197
        },
        {
          "name": "E4",
          "midi": 64,
          "time": 198.88225349999993,
          "velocity": 0.7559055118110236,
          "duration": 0.16617638750000197
        },
        {
          "name": "B4",
          "midi": 71,
          "time": 199.05872399999993,
          "velocity": 0.7559055118110236,
          "duration": 0.16617638750000197
        },
        {
          "name": "E4",
          "midi": 64,
          "time": 199.23519449999992,
          "velocity": 0.7559055118110236,
          "duration": 0.16617638750000197
        },
        {
          "name": "B4",
          "midi": 71,
          "time": 199.4116649999999,
          "velocity": 0.7559055118110236,
          "duration": 0.16617638750000197
        },
        {
          "name": "E5",
          "midi": 76,
          "time": 199.5881354999999,
          "velocity": 0.7559055118110236,
          "duration": 0.16617638750000197
        },
        {
          "name": "B4",
          "midi": 71,
          "time": 199.7646059999999,
          "velocity": 0.7559055118110236,
          "duration": 0.16617638750000197
        },
        {
          "name": "E4",
          "midi": 64,
          "time": 199.9410764999999,
          "velocity": 0.7559055118110236,
          "duration": 0.16617638750000197
        },
        {
          "name": "B4",
          "midi": 71,
          "time": 200.1175469999999,
          "velocity": 0.7559055118110236,
          "duration": 0.16617638750000197
        },
        {
          "name": "E4",
          "midi": 64,
          "time": 200.29401749999988,
          "velocity": 0.7559055118110236,
          "duration": 0.16617638750000197
        },
        {
          "name": "B4",
          "midi": 71,
          "time": 200.47048799999988,
          "velocity": 0.7559055118110236,
          "duration": 0.16617638750000197
        },
        {
          "name": "E5",
          "midi": 76,
          "time": 200.64695849999987,
          "velocity": 0.7559055118110236,
          "duration": 0.16617638750000197
        },
        {
          "name": "B4",
          "midi": 71,
          "time": 200.82342899999986,
          "velocity": 0.7559055118110236,
          "duration": 0.16617638750000197
        },
        {
          "name": "E4",
          "midi": 64,
          "time": 200.99989949999986,
          "velocity": 0.7559055118110236,
          "duration": 0.16617638750000197
        },
        {
          "name": "B4",
          "midi": 71,
          "time": 201.17636999999985,
          "velocity": 0.7559055118110236,
          "duration": 0.16617638750000197
        },
        {
          "name": "E4",
          "midi": 64,
          "time": 201.35284049999984,
          "velocity": 0.7559055118110236,
          "duration": 0.16617638750000197
        },
        {
          "name": "B4",
          "midi": 71,
          "time": 201.52931099999984,
          "velocity": 0.7559055118110236,
          "duration": 0.16617638750000197
        },
        {
          "name": "E5",
          "midi": 76,
          "time": 201.70578149999983,
          "velocity": 0.7559055118110236,
          "duration": 0.16617638750000197
        },
        {
          "name": "B4",
          "midi": 71,
          "time": 201.88225199999982,
          "velocity": 0.7559055118110236,
          "duration": 0.16617638750000197
        },
        {
          "name": "E4",
          "midi": 64,
          "time": 202.05872249999982,
          "velocity": 0.7559055118110236,
          "duration": 0.16617638750000197
        },
        {
          "name": "B4",
          "midi": 71,
          "time": 202.2351929999998,
          "velocity": 0.7559055118110236,
          "duration": 0.16617638750000197
        },
        {
          "name": "E4",
          "midi": 64,
          "time": 202.4116634999998,
          "velocity": 0.7559055118110236,
          "duration": 0.16617638750000197
        },
        {
          "name": "B4",
          "midi": 71,
          "time": 202.5881339999998,
          "velocity": 0.7559055118110236,
          "duration": 0.16617638750000197
        },
        {
          "name": "E5",
          "midi": 76,
          "time": 202.7646044999998,
          "velocity": 0.7559055118110236,
          "duration": 0.16617638750000197
        },
        {
          "name": "B4",
          "midi": 71,
          "time": 202.94107499999978,
          "velocity": 0.7559055118110236,
          "duration": 0.16617638750000197
        },
        {
          "name": "E4",
          "midi": 64,
          "time": 203.11754549999978,
          "velocity": 0.7559055118110236,
          "duration": 0.16617638750000197
        },
        {
          "name": "C5",
          "midi": 72,
          "time": 203.29401599999977,
          "velocity": 0.7559055118110236,
          "duration": 0.16617638750000197
        },
        {
          "name": "E4",
          "midi": 64,
          "time": 203.47048649999977,
          "velocity": 0.7559055118110236,
          "duration": 0.16617638750000197
        },
        {
          "name": "C5",
          "midi": 72,
          "time": 203.64695699999976,
          "velocity": 0.7559055118110236,
          "duration": 0.16617638750000197
        },
        {
          "name": "E5",
          "midi": 76,
          "time": 203.82342749999975,
          "velocity": 0.7559055118110236,
          "duration": 0.16617638750000197
        },
        {
          "name": "C5",
          "midi": 72,
          "time": 203.99989799999975,
          "velocity": 0.7559055118110236,
          "duration": 0.16617638750000197
        },
        {
          "name": "E4",
          "midi": 64,
          "time": 204.17636849999974,
          "velocity": 0.7559055118110236,
          "duration": 0.16617638750000197
        },
        {
          "name": "C5",
          "midi": 72,
          "time": 204.35283899999973,
          "velocity": 0.7559055118110236,
          "duration": 0.16617638750000197
        },
        {
          "name": "E4",
          "midi": 64,
          "time": 204.52930949999973,
          "velocity": 0.7559055118110236,
          "duration": 0.16617638750000197
        },
        {
          "name": "C5",
          "midi": 72,
          "time": 204.70577999999972,
          "velocity": 0.7559055118110236,
          "duration": 0.16617638750000197
        },
        {
          "name": "E5",
          "midi": 76,
          "time": 204.8822504999997,
          "velocity": 0.7559055118110236,
          "duration": 0.16617638750000197
        },
        {
          "name": "C5",
          "midi": 72,
          "time": 205.0587209999997,
          "velocity": 0.7559055118110236,
          "duration": 0.16617638750000197
        },
        {
          "name": "E4",
          "midi": 64,
          "time": 205.2351914999997,
          "velocity": 0.7559055118110236,
          "duration": 0.16617638750000197
        },
        {
          "name": "C5",
          "midi": 72,
          "time": 205.4116619999997,
          "velocity": 0.7559055118110236,
          "duration": 0.16617638750000197
        },
        {
          "name": "E4",
          "midi": 64,
          "time": 205.5881324999997,
          "velocity": 0.7559055118110236,
          "duration": 0.16617638750000197
        },
        {
          "name": "C5",
          "midi": 72,
          "time": 205.76460299999968,
          "velocity": 0.7559055118110236,
          "duration": 0.16617638750000197
        },
        {
          "name": "E5",
          "midi": 76,
          "time": 205.94107349999967,
          "velocity": 0.7559055118110236,
          "duration": 0.16617638750000197
        },
        {
          "name": "C5",
          "midi": 72,
          "time": 206.11754399999967,
          "velocity": 0.7559055118110236,
          "duration": 0.16617638750000197
        },
        {
          "name": "E4",
          "midi": 64,
          "time": 206.29401449999966,
          "velocity": 0.7559055118110236,
          "duration": 0.16617638750000197
        },
        {
          "name": "C5",
          "midi": 72,
          "time": 206.47048499999966,
          "velocity": 0.7559055118110236,
          "duration": 0.16617638750000197
        },
        {
          "name": "E4",
          "midi": 64,
          "time": 206.64695549999965,
          "velocity": 0.7559055118110236,
          "duration": 0.16617638750000197
        },
        {
          "name": "C5",
          "midi": 72,
          "time": 206.82342599999964,
          "velocity": 0.7559055118110236,
          "duration": 0.16617638750000197
        },
        {
          "name": "E5",
          "midi": 76,
          "time": 206.99989649999964,
          "velocity": 0.7559055118110236,
          "duration": 0.16617638750000197
        },
        {
          "name": "C5",
          "midi": 72,
          "time": 207.17636699999963,
          "velocity": 0.7559055118110236,
          "duration": 0.16617638750000197
        },
        {
          "name": "E4",
          "midi": 64,
          "time": 207.35283749999962,
          "velocity": 0.7559055118110236,
          "duration": 0.16617638750000197
        },
        {
          "name": "D5",
          "midi": 74,
          "time": 207.52930799999962,
          "velocity": 0.7559055118110236,
          "duration": 0.16617638750000197
        },
        {
          "name": "E4",
          "midi": 64,
          "time": 207.7057784999996,
          "velocity": 0.7559055118110236,
          "duration": 0.16617638750000197
        },
        {
          "name": "D5",
          "midi": 74,
          "time": 207.8822489999996,
          "velocity": 0.7559055118110236,
          "duration": 0.16617638750000197
        },
        {
          "name": "E5",
          "midi": 76,
          "time": 208.0587194999996,
          "velocity": 0.7559055118110236,
          "duration": 0.16617638750000197
        },
        {
          "name": "D5",
          "midi": 74,
          "time": 208.2351899999996,
          "velocity": 0.7559055118110236,
          "duration": 0.16617638750000197
        },
        {
          "name": "E4",
          "midi": 64,
          "time": 208.41166049999958,
          "velocity": 0.7559055118110236,
          "duration": 0.16617638750000197
        },
        {
          "name": "D5",
          "midi": 74,
          "time": 208.58813099999958,
          "velocity": 0.7559055118110236,
          "duration": 0.16617638750000197
        },
        {
          "name": "E4",
          "midi": 64,
          "time": 208.76460149999957,
          "velocity": 0.7559055118110236,
          "duration": 0.16617638750000197
        },
        {
          "name": "D5",
          "midi": 74,
          "time": 208.94107199999956,
          "velocity": 0.7559055118110236,
          "duration": 0.16617638750000197
        },
        {
          "name": "E5",
          "midi": 76,
          "time": 209.11754249999956,
          "velocity": 0.7559055118110236,
          "duration": 0.16617638750000197
        },
        {
          "name": "D5",
          "midi": 74,
          "time": 209.29401299999955,
          "velocity": 0.7559055118110236,
          "duration": 0.16617638750000197
        },
        {
          "name": "E4",
          "midi": 64,
          "time": 209.47048349999955,
          "velocity": 0.7559055118110236,
          "duration": 0.16617638750000197
        },
        {
          "name": "D5",
          "midi": 74,
          "time": 209.64695399999954,
          "velocity": 0.7559055118110236,
          "duration": 0.16617638750000197
        },
        {
          "name": "E4",
          "midi": 64,
          "time": 209.82342449999953,
          "velocity": 0.7559055118110236,
          "duration": 0.16617638750000197
        },
        {
          "name": "D5",
          "midi": 74,
          "time": 209.99989499999953,
          "velocity": 0.7559055118110236,
          "duration": 0.16617638750000197
        },
        {
          "name": "E5",
          "midi": 76,
          "time": 210.17636549999952,
          "velocity": 0.7559055118110236,
          "duration": 0.16617638750000197
        },
        {
          "name": "D5",
          "midi": 74,
          "time": 210.3528359999995,
          "velocity": 0.7559055118110236,
          "duration": 0.16617638750000197
        },
        {
          "name": "E4",
          "midi": 64,
          "time": 210.5293064999995,
          "velocity": 0.7559055118110236,
          "duration": 0.16617638750000197
        },
        {
          "name": "D5",
          "midi": 74,
          "time": 210.7057769999995,
          "velocity": 0.7559055118110236,
          "duration": 0.16617638750000197
        },
        {
          "name": "E4",
          "midi": 64,
          "time": 210.8822474999995,
          "velocity": 0.7559055118110236,
          "duration": 0.16617638750000197
        },
        {
          "name": "D5",
          "midi": 74,
          "time": 211.0587179999995,
          "velocity": 0.7559055118110236,
          "duration": 0.16617638750000197
        },
        {
          "name": "E5",
          "midi": 76,
          "time": 211.23518849999948,
          "velocity": 0.7559055118110236,
          "duration": 0.16617638750000197
        },
        {
          "name": "D5",
          "midi": 74,
          "time": 211.41165899999947,
          "velocity": 0.7559055118110236,
          "duration": 0.16617638750000197
        },
        {
          "name": "B4",
          "midi": 71,
          "time": 211.58812949999947,
          "velocity": 0.7559055118110236,
          "duration": 0.16617638750000197
        },
        {
          "name": "E4",
          "midi": 64,
          "time": 211.76459999999946,
          "velocity": 0.7559055118110236,
          "duration": 0.33382336249999867
        },
        {
          "name": "E5",
          "midi": 76,
          "time": 211.76459999999946,
          "velocity": 0.7559055118110236,
          "duration": 0.33382336249999867
        },
        {
          "name": "E4",
          "midi": 64,
          "time": 212.11754099999945,
          "velocity": 0.6535433070866141,
          "duration": 0.33382336249999867
        },
        {
          "name": "E5",
          "midi": 76,
          "time": 212.11754099999945,
          "velocity": 0.6535433070866141,
          "duration": 0.33382336249999867
        },
        {
          "name": "E4",
          "midi": 64,
          "time": 212.47048199999944,
          "velocity": 0.5511811023622047,
          "duration": 0.33382336249999867
        },
        {
          "name": "E5",
          "midi": 76,
          "time": 212.47048199999944,
          "velocity": 0.5511811023622047,
          "duration": 0.33382336249999867
        },
        {
          "name": "E4",
          "midi": 64,
          "time": 212.82342299999942,
          "velocity": 0.4409448818897638,
          "duration": 0.33382336249999867
        },
        {
          "name": "E5",
          "midi": 76,
          "time": 212.82342299999942,
          "velocity": 0.4409448818897638,
          "duration": 0.33382336249999867
        },
        {
          "name": "E4",
          "midi": 64,
          "time": 213.1763639999994,
          "velocity": 0.33858267716535434,
          "duration": 0.33382336249999867
        },
        {
          "name": "E5",
          "midi": 76,
          "time": 213.1763639999994,
          "velocity": 0.33858267716535434,
          "duration": 0.33382336249999867
        },
        {
          "name": "E4",
          "midi": 64,
          "time": 213.5293049999994,
          "velocity": 0.23622047244094488,
          "duration": 2.3455870624999875
        },
        {
          "name": "E5",
          "midi": 76,
          "time": 213.5293049999994,
          "velocity": 0.23622047244094488,
          "duration": 2.3455870624999875
        }
      ],
      "controlChanges": {
        "7": [
          {
            "number": 7,
            "time": 0,
            "value": 0.7874015748031497
          }
        ],
        "10": [
          {
            "number": 10,
            "time": 0,
            "value": 0.5039370078740157
          }
        ],
        "91": [
          {
            "number": 91,
            "time": 0,
            "value": 0
          }
        ],
        "93": [
          {
            "number": 93,
            "time": 0,
            "value": 0
          }
        ],
        "121": [
          {
            "number": 121,
            "time": 0,
            "value": 0
          }
        ]
      },
      "id": 0,
      "name": "Piano",
      "instrumentNumber": 0,
      "instrument": "acoustic grand piano",
      "instrumentFamily": "piano",
      "channelNumber": 0,
      "isPercussion": false
    },
    {
      "startTime": 8.470584,
      "duration": 215.89253911249745,
      "length": 489,
      "notes": [
        {
          "name": "A3",
          "midi": 57,
          "time": 8.470584,
          "velocity": 0.3858267716535433,
          "duration": 2.0102931124999994
        },
        {
          "name": "B3",
          "midi": 59,
          "time": 10.58823,
          "velocity": 0.3858267716535433,
          "duration": 4.022056812500001
        },
        {
          "name": "A3",
          "midi": 57,
          "time": 14.823522,
          "velocity": 0.3858267716535433,
          "duration": 0.669117312500001
        },
        {
          "name": "B3",
          "midi": 59,
          "time": 15.529404000000001,
          "velocity": 0.3858267716535433,
          "duration": 0.669117312500001
        },
        {
          "name": "C4",
          "midi": 60,
          "time": 16.235286000000002,
          "velocity": 0.3858267716535433,
          "duration": 0.6691173124999992
        },
        {
          "name": "B3",
          "midi": 59,
          "time": 16.941168,
          "velocity": 0.3858267716535433,
          "duration": 0.6691173124999956
        },
        {
          "name": "A3",
          "midi": 57,
          "time": 17.647049999999997,
          "velocity": 0.3858267716535433,
          "duration": 0.6691173124999992
        },
        {
          "name": "B3",
          "midi": 59,
          "time": 18.352931999999996,
          "velocity": 0.3858267716535433,
          "duration": 0.6691173124999992
        },
        {
          "name": "C4",
          "midi": 60,
          "time": 19.058813999999995,
          "velocity": 0.3858267716535433,
          "duration": 2.0102931124999976
        },
        {
          "name": "B3",
          "midi": 59,
          "time": 21.17645999999999,
          "velocity": 0.3858267716535433,
          "duration": 4.022056812499997
        },
        {
          "name": "A3",
          "midi": 57,
          "time": 25.41175199999999,
          "velocity": 0.3858267716535433,
          "duration": 2.0102931124999976
        },
        {
          "name": "C4",
          "midi": 60,
          "time": 27.529397999999986,
          "velocity": 0.3858267716535433,
          "duration": 2.0102931124999976
        },
        {
          "name": "B3",
          "midi": 59,
          "time": 29.647043999999983,
          "velocity": 0.3858267716535433,
          "duration": 4.022056812499994
        },
        {
          "name": "A3",
          "midi": 57,
          "time": 33.882335999999974,
          "velocity": 0.3858267716535433,
          "duration": 1.3397052125000002
        },
        {
          "name": "C4",
          "midi": 60,
          "time": 35.29409999999997,
          "velocity": 0.3858267716535433,
          "duration": 0.6691173124999992
        },
        {
          "name": "B3",
          "midi": 59,
          "time": 35.999981999999974,
          "velocity": 0.3858267716535433,
          "duration": 0.6691173125000063
        },
        {
          "name": "A3",
          "midi": 57,
          "time": 36.705863999999984,
          "velocity": 0.3858267716535433,
          "duration": 0.6691173124999992
        },
        {
          "name": "B3",
          "midi": 59,
          "time": 37.41174599999999,
          "velocity": 0.3858267716535433,
          "duration": 0.6691173124999992
        },
        {
          "name": "C4",
          "midi": 60,
          "time": 38.11762799999999,
          "velocity": 0.3858267716535433,
          "duration": 2.010293112500001
        },
        {
          "name": "B3",
          "midi": 59,
          "time": 40.23527399999999,
          "velocity": 0.3858267716535433,
          "duration": 4.022056812500004
        },
        {
          "name": "A3",
          "midi": 57,
          "time": 44.47056599999999,
          "velocity": 0.3858267716535433,
          "duration": 1.3397052125000073
        },
        {
          "name": "C4",
          "midi": 60,
          "time": 45.882329999999996,
          "velocity": 0.3858267716535433,
          "duration": 0.6691173124999992
        },
        {
          "name": "B3",
          "midi": 59,
          "time": 46.588212,
          "velocity": 0.3858267716535433,
          "duration": 0.6691173125000063
        },
        {
          "name": "A3",
          "midi": 57,
          "time": 47.29409400000001,
          "velocity": 0.3858267716535433,
          "duration": 0.6691173124999992
        },
        {
          "name": "B3",
          "midi": 59,
          "time": 47.99997600000001,
          "velocity": 0.3858267716535433,
          "duration": 0.6691173124999992
        },
        {
          "name": "C4",
          "midi": 60,
          "time": 48.70585800000001,
          "velocity": 0.3858267716535433,
          "duration": 2.010293112500001
        },
        {
          "name": "D4",
          "midi": 62,
          "time": 50.823504000000014,
          "velocity": 0.3858267716535433,
          "duration": 2.010293112500001
        },
        {
          "name": "E3",
          "midi": 52,
          "time": 52.941150000000015,
          "velocity": 0.3858267716535433,
          "duration": 2.010293112500001
        },
        {
          "name": "A3",
          "midi": 57,
          "time": 55.058796000000015,
          "velocity": 0.3858267716535433,
          "duration": 2.010293112500001
        },
        {
          "name": "B3",
          "midi": 59,
          "time": 57.176442000000016,
          "velocity": 0.3858267716535433,
          "duration": 4.022056812500004
        },
        {
          "name": "A3",
          "midi": 57,
          "time": 61.41173400000002,
          "velocity": 0.3858267716535433,
          "duration": 0.6691173125000063
        },
        {
          "name": "B3",
          "midi": 59,
          "time": 62.11761600000003,
          "velocity": 0.3858267716535433,
          "duration": 0.6691173124999992
        },
        {
          "name": "C4",
          "midi": 60,
          "time": 62.82349800000003,
          "velocity": 0.3858267716535433,
          "duration": 0.6691173124999992
        },
        {
          "name": "B3",
          "midi": 59,
          "time": 63.52938000000003,
          "velocity": 0.3858267716535433,
          "duration": 0.6691173125000063
        },
        {
          "name": "A3",
          "midi": 57,
          "time": 64.23526200000003,
          "velocity": 0.3858267716535433,
          "duration": 0.6691173125000063
        },
        {
          "name": "B3",
          "midi": 59,
          "time": 64.94114400000004,
          "velocity": 0.3858267716535433,
          "duration": 0.6691173125000063
        },
        {
          "name": "C4",
          "midi": 60,
          "time": 65.64702600000004,
          "velocity": 0.3858267716535433,
          "duration": 2.010293112499994
        },
        {
          "name": "B3",
          "midi": 59,
          "time": 67.76467200000003,
          "velocity": 0.3858267716535433,
          "duration": 4.022056812499983
        },
        {
          "name": "A3",
          "midi": 57,
          "time": 71.99996400000002,
          "velocity": 0.3858267716535433,
          "duration": 2.010293112499994
        },
        {
          "name": "B3",
          "midi": 59,
          "time": 74.11761000000001,
          "velocity": 0.3858267716535433,
          "duration": 4.022056812499983
        },
        {
          "name": "A3",
          "midi": 57,
          "time": 78.352902,
          "velocity": 0.3858267716535433,
          "duration": 0.6691173124999921
        },
        {
          "name": "B3",
          "midi": 59,
          "time": 79.05878399999999,
          "velocity": 0.3858267716535433,
          "duration": 0.6691173125000063
        },
        {
          "name": "C4",
          "midi": 60,
          "time": 79.76466599999999,
          "velocity": 0.3858267716535433,
          "duration": 0.6691173125000063
        },
        {
          "name": "B3",
          "midi": 59,
          "time": 80.470548,
          "velocity": 0.3858267716535433,
          "duration": 0.6691173124999921
        },
        {
          "name": "A3",
          "midi": 57,
          "time": 81.17642999999998,
          "velocity": 0.3858267716535433,
          "duration": 0.6691173125000063
        },
        {
          "name": "B3",
          "midi": 59,
          "time": 81.88231199999998,
          "velocity": 0.3858267716535433,
          "duration": 0.6691173125000063
        },
        {
          "name": "C4",
          "midi": 60,
          "time": 82.58819399999999,
          "velocity": 0.3858267716535433,
          "duration": 2.010293112499994
        },
        {
          "name": "B3",
          "midi": 59,
          "time": 84.70583999999998,
          "velocity": 0.3858267716535433,
          "duration": 4.022056812499983
        },
        {
          "name": "A3",
          "midi": 57,
          "time": 88.94113199999997,
          "velocity": 0.3858267716535433,
          "duration": 2.010293112499994
        },
        {
          "name": "C4",
          "midi": 60,
          "time": 91.05877799999996,
          "velocity": 0.3858267716535433,
          "duration": 2.010293112499994
        },
        {
          "name": "B3",
          "midi": 59,
          "time": 93.17642399999995,
          "velocity": 0.3858267716535433,
          "duration": 4.022056812499983
        },
        {
          "name": "A3",
          "midi": 57,
          "time": 97.41171599999994,
          "velocity": 0.3858267716535433,
          "duration": 1.339705212499993
        },
        {
          "name": "C4",
          "midi": 60,
          "time": 98.82347999999993,
          "velocity": 0.3858267716535433,
          "duration": 0.6691173125000063
        },
        {
          "name": "B3",
          "midi": 59,
          "time": 99.52936199999994,
          "velocity": 0.3858267716535433,
          "duration": 0.6691173124999921
        },
        {
          "name": "A3",
          "midi": 57,
          "time": 100.23524399999992,
          "velocity": 0.3858267716535433,
          "duration": 0.6691173125000063
        },
        {
          "name": "B3",
          "midi": 59,
          "time": 100.94112599999993,
          "velocity": 0.3858267716535433,
          "duration": 0.6691173125000063
        },
        {
          "name": "C4",
          "midi": 60,
          "time": 101.64700799999993,
          "velocity": 0.3858267716535433,
          "duration": 2.010293112499994
        },
        {
          "name": "D4",
          "midi": 62,
          "time": 103.76465399999992,
          "velocity": 0.3858267716535433,
          "duration": 2.010293112499994
        },
        {
          "name": "E3",
          "midi": 52,
          "time": 105.88229999999992,
          "velocity": 0.3858267716535433,
          "duration": 2.010293112499994
        },
        {
          "name": "E2",
          "midi": 40,
          "time": 107.99994599999991,
          "velocity": 0.5039370078740157,
          "duration": 0.6691173125000063
        },
        {
          "name": "E3",
          "midi": 52,
          "time": 107.99994599999991,
          "velocity": 0.5039370078740157,
          "duration": 0.6691173125000063
        },
        {
          "name": "E2",
          "midi": 40,
          "time": 108.70582799999991,
          "velocity": 0.5433070866141733,
          "duration": 0.6691173125000063
        },
        {
          "name": "E3",
          "midi": 52,
          "time": 108.70582799999991,
          "velocity": 0.5433070866141733,
          "duration": 0.6691173125000063
        },
        {
          "name": "E2",
          "midi": 40,
          "time": 109.41170999999991,
          "velocity": 0.5826771653543307,
          "duration": 0.6691173125000063
        },
        {
          "name": "E3",
          "midi": 52,
          "time": 109.41170999999991,
          "velocity": 0.5826771653543307,
          "duration": 0.6691173125000063
        },
        {
          "name": "A3",
          "midi": 57,
          "time": 110.11759199999992,
          "velocity": 0.6299212598425197,
          "duration": 2.010293112499994
        },
        {
          "name": "A3",
          "midi": 57,
          "time": 112.23523799999991,
          "velocity": 0.6299212598425197,
          "duration": 2.010293112499994
        },
        {
          "name": "B3",
          "midi": 59,
          "time": 114.3528839999999,
          "velocity": 0.6299212598425197,
          "duration": 2.010293112499994
        },
        {
          "name": "B3",
          "midi": 59,
          "time": 116.4705299999999,
          "velocity": 0.6299212598425197,
          "duration": 2.010293112499994
        },
        {
          "name": "C4",
          "midi": 60,
          "time": 118.58817599999989,
          "velocity": 0.6299212598425197,
          "duration": 2.010293112499994
        },
        {
          "name": "C4",
          "midi": 60,
          "time": 120.70582199999988,
          "velocity": 0.6299212598425197,
          "duration": 2.010293112499994
        },
        {
          "name": "B3",
          "midi": 59,
          "time": 122.82346799999988,
          "velocity": 0.6299212598425197,
          "duration": 2.010293112499994
        },
        {
          "name": "B3",
          "midi": 59,
          "time": 124.94111399999987,
          "velocity": 0.6299212598425197,
          "duration": 2.010293112499994
        },
        {
          "name": "F3",
          "midi": 53,
          "time": 127.05875999999986,
          "velocity": 0.6299212598425197,
          "duration": 2.010293112499994
        },
        {
          "name": "A3",
          "midi": 57,
          "time": 127.05875999999986,
          "velocity": 0.6299212598425197,
          "duration": 2.010293112499994
        },
        {
          "name": "C4",
          "midi": 60,
          "time": 127.05875999999986,
          "velocity": 0.6299212598425197,
          "duration": 2.010293112499994
        },
        {
          "name": "F3",
          "midi": 53,
          "time": 129.17640599999987,
          "velocity": 0.6299212598425197,
          "duration": 2.010293112499994
        },
        {
          "name": "A3",
          "midi": 57,
          "time": 129.17640599999987,
          "velocity": 0.6299212598425197,
          "duration": 2.010293112499994
        },
        {
          "name": "C4",
          "midi": 60,
          "time": 129.17640599999987,
          "velocity": 0.6299212598425197,
          "duration": 2.010293112499994
        },
        {
          "name": "E3",
          "midi": 52,
          "time": 131.29405199999988,
          "velocity": 0.6299212598425197,
          "duration": 2.010293112499994
        },
        {
          "name": "G3",
          "midi": 55,
          "time": 131.29405199999988,
          "velocity": 0.6299212598425197,
          "duration": 2.010293112499994
        },
        {
          "name": "B3",
          "midi": 59,
          "time": 131.29405199999988,
          "velocity": 0.6299212598425197,
          "duration": 2.010293112499994
        },
        {
          "name": "E3",
          "midi": 52,
          "time": 133.4116979999999,
          "velocity": 0.6299212598425197,
          "duration": 2.010293112499994
        },
        {
          "name": "G3",
          "midi": 55,
          "time": 133.4116979999999,
          "velocity": 0.6299212598425197,
          "duration": 2.010293112499994
        },
        {
          "name": "B3",
          "midi": 59,
          "time": 133.4116979999999,
          "velocity": 0.6299212598425197,
          "duration": 2.010293112499994
        },
        {
          "name": "E3",
          "midi": 52,
          "time": 135.5293439999999,
          "velocity": 0.6299212598425197,
          "duration": 2.010293112499994
        },
        {
          "name": "A3",
          "midi": 57,
          "time": 135.5293439999999,
          "velocity": 0.6299212598425197,
          "duration": 2.010293112499994
        },
        {
          "name": "C4",
          "midi": 60,
          "time": 135.5293439999999,
          "velocity": 0.6299212598425197,
          "duration": 2.010293112499994
        },
        {
          "name": "E3",
          "midi": 52,
          "time": 137.6469899999999,
          "velocity": 0.6299212598425197,
          "duration": 2.010293112499994
        },
        {
          "name": "A3",
          "midi": 57,
          "time": 137.6469899999999,
          "velocity": 0.6299212598425197,
          "duration": 2.010293112499994
        },
        {
          "name": "C4",
          "midi": 60,
          "time": 137.6469899999999,
          "velocity": 0.6299212598425197,
          "duration": 2.010293112499994
        },
        {
          "name": "E3",
          "midi": 52,
          "time": 139.7646359999999,
          "velocity": 0.6299212598425197,
          "duration": 2.010293112499994
        },
        {
          "name": "G3",
          "midi": 55,
          "time": 139.7646359999999,
          "velocity": 0.6299212598425197,
          "duration": 2.010293112499994
        },
        {
          "name": "B3",
          "midi": 59,
          "time": 139.7646359999999,
          "velocity": 0.6299212598425197,
          "duration": 2.010293112499994
        },
        {
          "name": "E3",
          "midi": 52,
          "time": 141.88228199999992,
          "velocity": 0.6299212598425197,
          "duration": 2.010293112499994
        },
        {
          "name": "G3",
          "midi": 55,
          "time": 141.88228199999992,
          "velocity": 0.6299212598425197,
          "duration": 2.010293112499994
        },
        {
          "name": "B3",
          "midi": 59,
          "time": 141.88228199999992,
          "velocity": 0.6299212598425197,
          "duration": 2.010293112499994
        },
        {
          "name": "F2",
          "midi": 41,
          "time": 143.99992799999993,
          "velocity": 0.7559055118110236,
          "duration": 0.16617638750000197
        },
        {
          "name": "C3",
          "midi": 48,
          "time": 144.17639849999992,
          "velocity": 0.7559055118110236,
          "duration": 0.16617638750000197
        },
        {
          "name": "E3",
          "midi": 52,
          "time": 144.3528689999999,
          "velocity": 0.7559055118110236,
          "duration": 0.16617638750000197
        },
        {
          "name": "A3",
          "midi": 57,
          "time": 144.5293394999999,
          "velocity": 0.7559055118110236,
          "duration": 0.16617638750000197
        },
        {
          "name": "E3",
          "midi": 52,
          "time": 144.7058099999999,
          "velocity": 0.7559055118110236,
          "duration": 0.16617638750000197
        },
        {
          "name": "C3",
          "midi": 48,
          "time": 144.8822804999999,
          "velocity": 0.7559055118110236,
          "duration": 0.16617638750000197
        },
        {
          "name": "F2",
          "midi": 41,
          "time": 145.0587509999999,
          "velocity": 0.7559055118110236,
          "duration": 0.16617638750000197
        },
        {
          "name": "C3",
          "midi": 48,
          "time": 145.23522149999988,
          "velocity": 0.7559055118110236,
          "duration": 0.16617638750000197
        },
        {
          "name": "E3",
          "midi": 52,
          "time": 145.41169199999987,
          "velocity": 0.7559055118110236,
          "duration": 0.16617638750000197
        },
        {
          "name": "A3",
          "midi": 57,
          "time": 145.58816249999987,
          "velocity": 0.7559055118110236,
          "duration": 0.16617638750000197
        },
        {
          "name": "E3",
          "midi": 52,
          "time": 145.76463299999986,
          "velocity": 0.7559055118110236,
          "duration": 0.16617638750000197
        },
        {
          "name": "C3",
          "midi": 48,
          "time": 145.94110349999985,
          "velocity": 0.7559055118110236,
          "duration": 0.16617638750000197
        },
        {
          "name": "F2",
          "midi": 41,
          "time": 146.11757399999985,
          "velocity": 0.7559055118110236,
          "duration": 0.16617638750000197
        },
        {
          "name": "C3",
          "midi": 48,
          "time": 146.29404449999984,
          "velocity": 0.7559055118110236,
          "duration": 0.16617638750000197
        },
        {
          "name": "E3",
          "midi": 52,
          "time": 146.47051499999984,
          "velocity": 0.7559055118110236,
          "duration": 0.16617638750000197
        },
        {
          "name": "A3",
          "midi": 57,
          "time": 146.64698549999983,
          "velocity": 0.7559055118110236,
          "duration": 0.16617638750000197
        },
        {
          "name": "E3",
          "midi": 52,
          "time": 146.82345599999982,
          "velocity": 0.7559055118110236,
          "duration": 0.16617638750000197
        },
        {
          "name": "C3",
          "midi": 48,
          "time": 146.99992649999982,
          "velocity": 0.7559055118110236,
          "duration": 0.16617638750000197
        },
        {
          "name": "F2",
          "midi": 41,
          "time": 147.1763969999998,
          "velocity": 0.7559055118110236,
          "duration": 0.16617638750000197
        },
        {
          "name": "C3",
          "midi": 48,
          "time": 147.3528674999998,
          "velocity": 0.7559055118110236,
          "duration": 0.16617638750000197
        },
        {
          "name": "E3",
          "midi": 52,
          "time": 147.5293379999998,
          "velocity": 0.7559055118110236,
          "duration": 0.16617638750000197
        },
        {
          "name": "A3",
          "midi": 57,
          "time": 147.7058084999998,
          "velocity": 0.7559055118110236,
          "duration": 0.16617638750000197
        },
        {
          "name": "E3",
          "midi": 52,
          "time": 147.88227899999978,
          "velocity": 0.7559055118110236,
          "duration": 0.16617638750000197
        },
        {
          "name": "C3",
          "midi": 48,
          "time": 148.05874949999978,
          "velocity": 0.7559055118110236,
          "duration": 0.16617638750000197
        },
        {
          "name": "G2",
          "midi": 43,
          "time": 148.23521999999977,
          "velocity": 0.7559055118110236,
          "duration": 0.16617638750000197
        },
        {
          "name": "D3",
          "midi": 50,
          "time": 148.41169049999976,
          "velocity": 0.7559055118110236,
          "duration": 0.16617638750000197
        },
        {
          "name": "E3",
          "midi": 52,
          "time": 148.58816099999976,
          "velocity": 0.7559055118110236,
          "duration": 0.16617638750000197
        },
        {
          "name": "B3",
          "midi": 59,
          "time": 148.76463149999975,
          "velocity": 0.7559055118110236,
          "duration": 0.16617638750000197
        },
        {
          "name": "E3",
          "midi": 52,
          "time": 148.94110199999974,
          "velocity": 0.7559055118110236,
          "duration": 0.16617638750000197
        },
        {
          "name": "D3",
          "midi": 50,
          "time": 149.11757249999974,
          "velocity": 0.7559055118110236,
          "duration": 0.16617638750000197
        },
        {
          "name": "G2",
          "midi": 43,
          "time": 149.29404299999973,
          "velocity": 0.7559055118110236,
          "duration": 0.16617638750000197
        },
        {
          "name": "D3",
          "midi": 50,
          "time": 149.47051349999973,
          "velocity": 0.7559055118110236,
          "duration": 0.16617638750000197
        },
        {
          "name": "E3",
          "midi": 52,
          "time": 149.64698399999972,
          "velocity": 0.7559055118110236,
          "duration": 0.16617638750000197
        },
        {
          "name": "B3",
          "midi": 59,
          "time": 149.8234544999997,
          "velocity": 0.7559055118110236,
          "duration": 0.16617638750000197
        },
        {
          "name": "E3",
          "midi": 52,
          "time": 149.9999249999997,
          "velocity": 0.7559055118110236,
          "duration": 0.16617638750000197
        },
        {
          "name": "D3",
          "midi": 50,
          "time": 150.1763954999997,
          "velocity": 0.7559055118110236,
          "duration": 0.16617638750000197
        },
        {
          "name": "G2",
          "midi": 43,
          "time": 150.3528659999997,
          "velocity": 0.7559055118110236,
          "duration": 0.16617638750000197
        },
        {
          "name": "D3",
          "midi": 50,
          "time": 150.5293364999997,
          "velocity": 0.7559055118110236,
          "duration": 0.16617638750000197
        },
        {
          "name": "E3",
          "midi": 52,
          "time": 150.70580699999968,
          "velocity": 0.7559055118110236,
          "duration": 0.16617638750000197
        },
        {
          "name": "B3",
          "midi": 59,
          "time": 150.88227749999967,
          "velocity": 0.7559055118110236,
          "duration": 0.16617638750000197
        },
        {
          "name": "E3",
          "midi": 52,
          "time": 151.05874799999967,
          "velocity": 0.7559055118110236,
          "duration": 0.16617638750000197
        },
        {
          "name": "D3",
          "midi": 50,
          "time": 151.23521849999966,
          "velocity": 0.7559055118110236,
          "duration": 0.16617638750000197
        },
        {
          "name": "G2",
          "midi": 43,
          "time": 151.41168899999965,
          "velocity": 0.7559055118110236,
          "duration": 0.16617638750000197
        },
        {
          "name": "D3",
          "midi": 50,
          "time": 151.58815949999965,
          "velocity": 0.7559055118110236,
          "duration": 0.16617638750000197
        },
        {
          "name": "E3",
          "midi": 52,
          "time": 151.76462999999964,
          "velocity": 0.7559055118110236,
          "duration": 0.16617638750000197
        },
        {
          "name": "B3",
          "midi": 59,
          "time": 151.94110049999964,
          "velocity": 0.7559055118110236,
          "duration": 0.16617638750000197
        },
        {
          "name": "E3",
          "midi": 52,
          "time": 152.11757099999963,
          "velocity": 0.7559055118110236,
          "duration": 0.16617638750000197
        },
        {
          "name": "D3",
          "midi": 50,
          "time": 152.29404149999962,
          "velocity": 0.7559055118110236,
          "duration": 0.16617638750000197
        },
        {
          "name": "A2",
          "midi": 45,
          "time": 152.47051199999962,
          "velocity": 0.7559055118110236,
          "duration": 0.16617638750000197
        },
        {
          "name": "C3",
          "midi": 48,
          "time": 152.6469824999996,
          "velocity": 0.7559055118110236,
          "duration": 0.16617638750000197
        },
        {
          "name": "E3",
          "midi": 52,
          "time": 152.8234529999996,
          "velocity": 0.7559055118110236,
          "duration": 0.16617638750000197
        },
        {
          "name": "C4",
          "midi": 60,
          "time": 152.9999234999996,
          "velocity": 0.7559055118110236,
          "duration": 0.16617638750000197
        },
        {
          "name": "E3",
          "midi": 52,
          "time": 153.1763939999996,
          "velocity": 0.7559055118110236,
          "duration": 0.16617638750000197
        },
        {
          "name": "C3",
          "midi": 48,
          "time": 153.35286449999958,
          "velocity": 0.7559055118110236,
          "duration": 0.16617638750000197
        },
        {
          "name": "A2",
          "midi": 45,
          "time": 153.52933499999958,
          "velocity": 0.7559055118110236,
          "duration": 0.16617638750000197
        },
        {
          "name": "C3",
          "midi": 48,
          "time": 153.70580549999957,
          "velocity": 0.7559055118110236,
          "duration": 0.16617638750000197
        },
        {
          "name": "E3",
          "midi": 52,
          "time": 153.88227599999956,
          "velocity": 0.7559055118110236,
          "duration": 0.16617638750000197
        },
        {
          "name": "C4",
          "midi": 60,
          "time": 154.05874649999956,
          "velocity": 0.7559055118110236,
          "duration": 0.16617638750000197
        },
        {
          "name": "E3",
          "midi": 52,
          "time": 154.23521699999955,
          "velocity": 0.7559055118110236,
          "duration": 0.16617638750000197
        },
        {
          "name": "C3",
          "midi": 48,
          "time": 154.41168749999954,
          "velocity": 0.7559055118110236,
          "duration": 0.16617638750000197
        },
        {
          "name": "A2",
          "midi": 45,
          "time": 154.58815799999954,
          "velocity": 0.7559055118110236,
          "duration": 0.16617638750000197
        },
        {
          "name": "C3",
          "midi": 48,
          "time": 154.76462849999953,
          "velocity": 0.7559055118110236,
          "duration": 0.16617638750000197
        },
        {
          "name": "E3",
          "midi": 52,
          "time": 154.94109899999953,
          "velocity": 0.7559055118110236,
          "duration": 0.16617638750000197
        },
        {
          "name": "C4",
          "midi": 60,
          "time": 155.11756949999952,
          "velocity": 0.7559055118110236,
          "duration": 0.16617638750000197
        },
        {
          "name": "E3",
          "midi": 52,
          "time": 155.2940399999995,
          "velocity": 0.7559055118110236,
          "duration": 0.16617638750000197
        },
        {
          "name": "C3",
          "midi": 48,
          "time": 155.4705104999995,
          "velocity": 0.7559055118110236,
          "duration": 0.16617638750000197
        },
        {
          "name": "A2",
          "midi": 45,
          "time": 155.6469809999995,
          "velocity": 0.7559055118110236,
          "duration": 0.16617638750000197
        },
        {
          "name": "C3",
          "midi": 48,
          "time": 155.8234514999995,
          "velocity": 0.7559055118110236,
          "duration": 0.16617638750000197
        },
        {
          "name": "E3",
          "midi": 52,
          "time": 155.9999219999995,
          "velocity": 0.7559055118110236,
          "duration": 0.16617638750000197
        },
        {
          "name": "C4",
          "midi": 60,
          "time": 156.17639249999948,
          "velocity": 0.7559055118110236,
          "duration": 0.16617638750000197
        },
        {
          "name": "E3",
          "midi": 52,
          "time": 156.35286299999947,
          "velocity": 0.7559055118110236,
          "duration": 0.16617638750000197
        },
        {
          "name": "C3",
          "midi": 48,
          "time": 156.52933349999947,
          "velocity": 0.7559055118110236,
          "duration": 0.16617638750000197
        },
        {
          "name": "G2",
          "midi": 43,
          "time": 156.70580399999946,
          "velocity": 0.7559055118110236,
          "duration": 0.16617638750000197
        },
        {
          "name": "D3",
          "midi": 50,
          "time": 156.88227449999945,
          "velocity": 0.7559055118110236,
          "duration": 0.16617638750000197
        },
        {
          "name": "E3",
          "midi": 52,
          "time": 157.05874499999945,
          "velocity": 0.7559055118110236,
          "duration": 0.16617638750000197
        },
        {
          "name": "B3",
          "midi": 59,
          "time": 157.23521549999944,
          "velocity": 0.7559055118110236,
          "duration": 0.16617638750000197
        },
        {
          "name": "E3",
          "midi": 52,
          "time": 157.41168599999943,
          "velocity": 0.7559055118110236,
          "duration": 0.16617638750000197
        },
        {
          "name": "D3",
          "midi": 50,
          "time": 157.58815649999943,
          "velocity": 0.7559055118110236,
          "duration": 0.16617638750000197
        },
        {
          "name": "G2",
          "midi": 43,
          "time": 157.76462699999942,
          "velocity": 0.7559055118110236,
          "duration": 0.16617638750000197
        },
        {
          "name": "D3",
          "midi": 50,
          "time": 157.94109749999942,
          "velocity": 0.7559055118110236,
          "duration": 0.16617638750000197
        },
        {
          "name": "E3",
          "midi": 52,
          "time": 158.1175679999994,
          "velocity": 0.7559055118110236,
          "duration": 0.16617638750000197
        },
        {
          "name": "B3",
          "midi": 59,
          "time": 158.2940384999994,
          "velocity": 0.7559055118110236,
          "duration": 0.16617638750000197
        },
        {
          "name": "E3",
          "midi": 52,
          "time": 158.4705089999994,
          "velocity": 0.7559055118110236,
          "duration": 0.16617638750000197
        },
        {
          "name": "D3",
          "midi": 50,
          "time": 158.6469794999994,
          "velocity": 0.7559055118110236,
          "duration": 0.16617638750000197
        },
        {
          "name": "G2",
          "midi": 43,
          "time": 158.82344999999938,
          "velocity": 0.7559055118110236,
          "duration": 0.16617638750000197
        },
        {
          "name": "D3",
          "midi": 50,
          "time": 158.99992049999938,
          "velocity": 0.7559055118110236,
          "duration": 0.16617638750000197
        },
        {
          "name": "E3",
          "midi": 52,
          "time": 159.17639099999937,
          "velocity": 0.7559055118110236,
          "duration": 0.16617638750000197
        },
        {
          "name": "B3",
          "midi": 59,
          "time": 159.35286149999936,
          "velocity": 0.7559055118110236,
          "duration": 0.16617638750000197
        },
        {
          "name": "E3",
          "midi": 52,
          "time": 159.52933199999936,
          "velocity": 0.7559055118110236,
          "duration": 0.16617638750000197
        },
        {
          "name": "D3",
          "midi": 50,
          "time": 159.70580249999935,
          "velocity": 0.7559055118110236,
          "duration": 0.16617638750000197
        },
        {
          "name": "G2",
          "midi": 43,
          "time": 159.88227299999934,
          "velocity": 0.7559055118110236,
          "duration": 0.16617638750000197
        },
        {
          "name": "D3",
          "midi": 50,
          "time": 160.05874349999934,
          "velocity": 0.7559055118110236,
          "duration": 0.16617638750000197
        },
        {
          "name": "E3",
          "midi": 52,
          "time": 160.23521399999933,
          "velocity": 0.7559055118110236,
          "duration": 0.16617638750000197
        },
        {
          "name": "B3",
          "midi": 59,
          "time": 160.41168449999932,
          "velocity": 0.7559055118110236,
          "duration": 0.16617638750000197
        },
        {
          "name": "E3",
          "midi": 52,
          "time": 160.58815499999932,
          "velocity": 0.7559055118110236,
          "duration": 0.16617638750000197
        },
        {
          "name": "D3",
          "midi": 50,
          "time": 160.7646254999993,
          "velocity": 0.7559055118110236,
          "duration": 0.16617638750000197
        },
        {
          "name": "F2",
          "midi": 41,
          "time": 160.9410959999993,
          "velocity": 0.7559055118110236,
          "duration": 0.16617638750000197
        },
        {
          "name": "C3",
          "midi": 48,
          "time": 161.1175664999993,
          "velocity": 0.7559055118110236,
          "duration": 0.16617638750000197
        },
        {
          "name": "E3",
          "midi": 52,
          "time": 161.2940369999993,
          "velocity": 0.7559055118110236,
          "duration": 0.16617638750000197
        },
        {
          "name": "A3",
          "midi": 57,
          "time": 161.4705074999993,
          "velocity": 0.7559055118110236,
          "duration": 0.16617638750000197
        },
        {
          "name": "E3",
          "midi": 52,
          "time": 161.64697799999928,
          "velocity": 0.7559055118110236,
          "duration": 0.16617638750000197
        },
        {
          "name": "C3",
          "midi": 48,
          "time": 161.82344849999927,
          "velocity": 0.7559055118110236,
          "duration": 0.16617638750000197
        },
        {
          "name": "F2",
          "midi": 41,
          "time": 161.99991899999927,
          "velocity": 0.7559055118110236,
          "duration": 0.16617638750000197
        },
        {
          "name": "C3",
          "midi": 48,
          "time": 162.17638949999926,
          "velocity": 0.7559055118110236,
          "duration": 0.16617638750000197
        },
        {
          "name": "E3",
          "midi": 52,
          "time": 162.35285999999925,
          "velocity": 0.7559055118110236,
          "duration": 0.16617638750000197
        },
        {
          "name": "A3",
          "midi": 57,
          "time": 162.52933049999925,
          "velocity": 0.7559055118110236,
          "duration": 0.16617638750000197
        },
        {
          "name": "E3",
          "midi": 52,
          "time": 162.70580099999924,
          "velocity": 0.7559055118110236,
          "duration": 0.16617638750000197
        },
        {
          "name": "C3",
          "midi": 48,
          "time": 162.88227149999923,
          "velocity": 0.7559055118110236,
          "duration": 0.16617638750000197
        },
        {
          "name": "F2",
          "midi": 41,
          "time": 163.05874199999923,
          "velocity": 0.7559055118110236,
          "duration": 0.16617638750000197
        },
        {
          "name": "C3",
          "midi": 48,
          "time": 163.23521249999922,
          "velocity": 0.7559055118110236,
          "duration": 0.16617638750000197
        },
        {
          "name": "E3",
          "midi": 52,
          "time": 163.41168299999921,
          "velocity": 0.7559055118110236,
          "duration": 0.16617638750000197
        },
        {
          "name": "A3",
          "midi": 57,
          "time": 163.5881534999992,
          "velocity": 0.7559055118110236,
          "duration": 0.16617638750000197
        },
        {
          "name": "E3",
          "midi": 52,
          "time": 163.7646239999992,
          "velocity": 0.7559055118110236,
          "duration": 0.16617638750000197
        },
        {
          "name": "C3",
          "midi": 48,
          "time": 163.9410944999992,
          "velocity": 0.7559055118110236,
          "duration": 0.16617638750000197
        },
        {
          "name": "F2",
          "midi": 41,
          "time": 164.1175649999992,
          "velocity": 0.7559055118110236,
          "duration": 0.16617638750000197
        },
        {
          "name": "C3",
          "midi": 48,
          "time": 164.29403549999918,
          "velocity": 0.7559055118110236,
          "duration": 0.16617638750000197
        },
        {
          "name": "E3",
          "midi": 52,
          "time": 164.47050599999918,
          "velocity": 0.7559055118110236,
          "duration": 0.16617638750000197
        },
        {
          "name": "A3",
          "midi": 57,
          "time": 164.64697649999917,
          "velocity": 0.7559055118110236,
          "duration": 0.16617638750000197
        },
        {
          "name": "E3",
          "midi": 52,
          "time": 164.82344699999916,
          "velocity": 0.7559055118110236,
          "duration": 0.16617638750000197
        },
        {
          "name": "C3",
          "midi": 48,
          "time": 164.99991749999916,
          "velocity": 0.7559055118110236,
          "duration": 0.16617638750000197
        },
        {
          "name": "G2",
          "midi": 43,
          "time": 165.17638799999915,
          "velocity": 0.7559055118110236,
          "duration": 0.16617638750000197
        },
        {
          "name": "D3",
          "midi": 50,
          "time": 165.35285849999914,
          "velocity": 0.7559055118110236,
          "duration": 0.16617638750000197
        },
        {
          "name": "E3",
          "midi": 52,
          "time": 165.52932899999914,
          "velocity": 0.7559055118110236,
          "duration": 0.16617638750000197
        },
        {
          "name": "B3",
          "midi": 59,
          "time": 165.70579949999913,
          "velocity": 0.7559055118110236,
          "duration": 0.16617638750000197
        },
        {
          "name": "E3",
          "midi": 52,
          "time": 165.88226999999912,
          "velocity": 0.7559055118110236,
          "duration": 0.16617638750000197
        },
        {
          "name": "D3",
          "midi": 50,
          "time": 166.05874049999912,
          "velocity": 0.7559055118110236,
          "duration": 0.16617638750000197
        },
        {
          "name": "G2",
          "midi": 43,
          "time": 166.2352109999991,
          "velocity": 0.7559055118110236,
          "duration": 0.16617638750000197
        },
        {
          "name": "D3",
          "midi": 50,
          "time": 166.4116814999991,
          "velocity": 0.7559055118110236,
          "duration": 0.16617638750000197
        },
        {
          "name": "E3",
          "midi": 52,
          "time": 166.5881519999991,
          "velocity": 0.7559055118110236,
          "duration": 0.16617638750000197
        },
        {
          "name": "B3",
          "midi": 59,
          "time": 166.7646224999991,
          "velocity": 0.7559055118110236,
          "duration": 0.16617638750000197
        },
        {
          "name": "E3",
          "midi": 52,
          "time": 166.94109299999909,
          "velocity": 0.7559055118110236,
          "duration": 0.16617638750000197
        },
        {
          "name": "D3",
          "midi": 50,
          "time": 167.11756349999908,
          "velocity": 0.7559055118110236,
          "duration": 0.16617638750000197
        },
        {
          "name": "G2",
          "midi": 43,
          "time": 167.29403399999907,
          "velocity": 0.7559055118110236,
          "duration": 0.16617638750000197
        },
        {
          "name": "D3",
          "midi": 50,
          "time": 167.47050449999907,
          "velocity": 0.7559055118110236,
          "duration": 0.16617638750000197
        },
        {
          "name": "E3",
          "midi": 52,
          "time": 167.64697499999906,
          "velocity": 0.7559055118110236,
          "duration": 0.16617638750000197
        },
        {
          "name": "B3",
          "midi": 59,
          "time": 167.82344549999905,
          "velocity": 0.7559055118110236,
          "duration": 0.16617638750000197
        },
        {
          "name": "E3",
          "midi": 52,
          "time": 167.99991599999905,
          "velocity": 0.7559055118110236,
          "duration": 0.16617638750000197
        },
        {
          "name": "D3",
          "midi": 50,
          "time": 168.17638649999904,
          "velocity": 0.7559055118110236,
          "duration": 0.16617638750000197
        },
        {
          "name": "G2",
          "midi": 43,
          "time": 168.35285699999903,
          "velocity": 0.7559055118110236,
          "duration": 0.16617638750000197
        },
        {
          "name": "D3",
          "midi": 50,
          "time": 168.52932749999903,
          "velocity": 0.7559055118110236,
          "duration": 0.16617638750000197
        },
        {
          "name": "E3",
          "midi": 52,
          "time": 168.70579799999902,
          "velocity": 0.7559055118110236,
          "duration": 0.16617638750000197
        },
        {
          "name": "B3",
          "midi": 59,
          "time": 168.88226849999901,
          "velocity": 0.7559055118110236,
          "duration": 0.16617638750000197
        },
        {
          "name": "E3",
          "midi": 52,
          "time": 169.058738999999,
          "velocity": 0.7559055118110236,
          "duration": 0.16617638750000197
        },
        {
          "name": "D3",
          "midi": 50,
          "time": 169.235209499999,
          "velocity": 0.7559055118110236,
          "duration": 0.16617638750000197
        },
        {
          "name": "A2",
          "midi": 45,
          "time": 169.411679999999,
          "velocity": 0.7559055118110236,
          "duration": 0.16617638750000197
        },
        {
          "name": "C3",
          "midi": 48,
          "time": 169.588150499999,
          "velocity": 0.7559055118110236,
          "duration": 0.16617638750000197
        },
        {
          "name": "E3",
          "midi": 52,
          "time": 169.76462099999898,
          "velocity": 0.7559055118110236,
          "duration": 0.16617638750000197
        },
        {
          "name": "C4",
          "midi": 60,
          "time": 169.94109149999898,
          "velocity": 0.7559055118110236,
          "duration": 0.16617638750000197
        },
        {
          "name": "E3",
          "midi": 52,
          "time": 170.11756199999897,
          "velocity": 0.7559055118110236,
          "duration": 0.16617638750000197
        },
        {
          "name": "C3",
          "midi": 48,
          "time": 170.29403249999896,
          "velocity": 0.7559055118110236,
          "duration": 0.16617638750000197
        },
        {
          "name": "A2",
          "midi": 45,
          "time": 170.47050299999896,
          "velocity": 0.7559055118110236,
          "duration": 0.16617638750000197
        },
        {
          "name": "C3",
          "midi": 48,
          "time": 170.64697349999895,
          "velocity": 0.7559055118110236,
          "duration": 0.16617638750000197
        },
        {
          "name": "E3",
          "midi": 52,
          "time": 170.82344399999894,
          "velocity": 0.7559055118110236,
          "duration": 0.16617638750000197
        },
        {
          "name": "C4",
          "midi": 60,
          "time": 170.99991449999894,
          "velocity": 0.7559055118110236,
          "duration": 0.16617638750000197
        },
        {
          "name": "E3",
          "midi": 52,
          "time": 171.17638499999893,
          "velocity": 0.7559055118110236,
          "duration": 0.16617638750000197
        },
        {
          "name": "C3",
          "midi": 48,
          "time": 171.35285549999892,
          "velocity": 0.7559055118110236,
          "duration": 0.16617638750000197
        },
        {
          "name": "A2",
          "midi": 45,
          "time": 171.52932599999892,
          "velocity": 0.7559055118110236,
          "duration": 0.16617638750000197
        },
        {
          "name": "C3",
          "midi": 48,
          "time": 171.7057964999989,
          "velocity": 0.7559055118110236,
          "duration": 0.16617638750000197
        },
        {
          "name": "E3",
          "midi": 52,
          "time": 171.8822669999989,
          "velocity": 0.7559055118110236,
          "duration": 0.16617638750000197
        },
        {
          "name": "C4",
          "midi": 60,
          "time": 172.0587374999989,
          "velocity": 0.7559055118110236,
          "duration": 0.16617638750000197
        },
        {
          "name": "E3",
          "midi": 52,
          "time": 172.2352079999989,
          "velocity": 0.7559055118110236,
          "duration": 0.16617638750000197
        },
        {
          "name": "C3",
          "midi": 48,
          "time": 172.41167849999889,
          "velocity": 0.7559055118110236,
          "duration": 0.16617638750000197
        },
        {
          "name": "A2",
          "midi": 45,
          "time": 172.58814899999888,
          "velocity": 0.7559055118110236,
          "duration": 0.16617638750000197
        },
        {
          "name": "C3",
          "midi": 48,
          "time": 172.76461949999887,
          "velocity": 0.7559055118110236,
          "duration": 0.16617638750000197
        },
        {
          "name": "E3",
          "midi": 52,
          "time": 172.94108999999887,
          "velocity": 0.7559055118110236,
          "duration": 0.16617638750000197
        },
        {
          "name": "C4",
          "midi": 60,
          "time": 173.11756049999886,
          "velocity": 0.7559055118110236,
          "duration": 0.16617638750000197
        },
        {
          "name": "E3",
          "midi": 52,
          "time": 173.29403099999885,
          "velocity": 0.7559055118110236,
          "duration": 0.16617638750000197
        },
        {
          "name": "C3",
          "midi": 48,
          "time": 173.47050149999885,
          "velocity": 0.7559055118110236,
          "duration": 0.16617638750000197
        },
        {
          "name": "G2",
          "midi": 43,
          "time": 173.64697199999884,
          "velocity": 0.7559055118110236,
          "duration": 0.16617638750000197
        },
        {
          "name": "D3",
          "midi": 50,
          "time": 173.82344249999883,
          "velocity": 0.7559055118110236,
          "duration": 0.16617638750000197
        },
        {
          "name": "E3",
          "midi": 52,
          "time": 173.99991299999883,
          "velocity": 0.7559055118110236,
          "duration": 0.16617638750000197
        },
        {
          "name": "B3",
          "midi": 59,
          "time": 174.17638349999882,
          "velocity": 0.7559055118110236,
          "duration": 0.16617638750000197
        },
        {
          "name": "E3",
          "midi": 52,
          "time": 174.3528539999988,
          "velocity": 0.7559055118110236,
          "duration": 0.16617638750000197
        },
        {
          "name": "D3",
          "midi": 50,
          "time": 174.5293244999988,
          "velocity": 0.7559055118110236,
          "duration": 0.16617638750000197
        },
        {
          "name": "G2",
          "midi": 43,
          "time": 174.7057949999988,
          "velocity": 0.7559055118110236,
          "duration": 0.16617638750000197
        },
        {
          "name": "D3",
          "midi": 50,
          "time": 174.8822654999988,
          "velocity": 0.7559055118110236,
          "duration": 0.16617638750000197
        },
        {
          "name": "E3",
          "midi": 52,
          "time": 175.0587359999988,
          "velocity": 0.7559055118110236,
          "duration": 0.16617638750000197
        },
        {
          "name": "B3",
          "midi": 59,
          "time": 175.23520649999878,
          "velocity": 0.7559055118110236,
          "duration": 0.16617638750000197
        },
        {
          "name": "E3",
          "midi": 52,
          "time": 175.41167699999878,
          "velocity": 0.7559055118110236,
          "duration": 0.16617638750000197
        },
        {
          "name": "D3",
          "midi": 50,
          "time": 175.58814749999877,
          "velocity": 0.7559055118110236,
          "duration": 0.16617638750000197
        },
        {
          "name": "G2",
          "midi": 43,
          "time": 175.76461799999876,
          "velocity": 0.7559055118110236,
          "duration": 0.16617638750000197
        },
        {
          "name": "D3",
          "midi": 50,
          "time": 175.94108849999876,
          "velocity": 0.7559055118110236,
          "duration": 0.16617638750000197
        },
        {
          "name": "E3",
          "midi": 52,
          "time": 176.11755899999875,
          "velocity": 0.7559055118110236,
          "duration": 0.16617638750000197
        },
        {
          "name": "B3",
          "midi": 59,
          "time": 176.29402949999874,
          "velocity": 0.7559055118110236,
          "duration": 0.16617638750000197
        },
        {
          "name": "E3",
          "midi": 52,
          "time": 176.47049999999874,
          "velocity": 0.7559055118110236,
          "duration": 0.16617638750000197
        },
        {
          "name": "D3",
          "midi": 50,
          "time": 176.64697049999873,
          "velocity": 0.7559055118110236,
          "duration": 0.16617638750000197
        },
        {
          "name": "G2",
          "midi": 43,
          "time": 176.82344099999872,
          "velocity": 0.7559055118110236,
          "duration": 0.16617638750000197
        },
        {
          "name": "D3",
          "midi": 50,
          "time": 176.99991149999872,
          "velocity": 0.7559055118110236,
          "duration": 0.16617638750000197
        },
        {
          "name": "E3",
          "midi": 52,
          "time": 177.1763819999987,
          "velocity": 0.7559055118110236,
          "duration": 0.16617638750000197
        },
        {
          "name": "B3",
          "midi": 59,
          "time": 177.3528524999987,
          "velocity": 0.7559055118110236,
          "duration": 0.16617638750000197
        },
        {
          "name": "E3",
          "midi": 52,
          "time": 177.5293229999987,
          "velocity": 0.7559055118110236,
          "duration": 0.16617638750000197
        },
        {
          "name": "D3",
          "midi": 50,
          "time": 177.7057934999987,
          "velocity": 0.7559055118110236,
          "duration": 0.16617638750000197
        },
        {
          "name": "F2",
          "midi": 41,
          "time": 177.88226399999868,
          "velocity": 0.7559055118110236,
          "duration": 0.16617638750000197
        },
        {
          "name": "C3",
          "midi": 48,
          "time": 178.05873449999868,
          "velocity": 0.7559055118110236,
          "duration": 0.16617638750000197
        },
        {
          "name": "E3",
          "midi": 52,
          "time": 178.23520499999867,
          "velocity": 0.7559055118110236,
          "duration": 0.16617638750000197
        },
        {
          "name": "A3",
          "midi": 57,
          "time": 178.41167549999867,
          "velocity": 0.7559055118110236,
          "duration": 0.16617638750000197
        },
        {
          "name": "E3",
          "midi": 52,
          "time": 178.58814599999866,
          "velocity": 0.7559055118110236,
          "duration": 0.16617638750000197
        },
        {
          "name": "C3",
          "midi": 48,
          "time": 178.76461649999865,
          "velocity": 0.7559055118110236,
          "duration": 0.16617638750000197
        },
        {
          "name": "F2",
          "midi": 41,
          "time": 178.94108699999865,
          "velocity": 0.7559055118110236,
          "duration": 0.16617638750000197
        },
        {
          "name": "C3",
          "midi": 48,
          "time": 179.11755749999864,
          "velocity": 0.7559055118110236,
          "duration": 0.16617638750000197
        },
        {
          "name": "E3",
          "midi": 52,
          "time": 179.29402799999863,
          "velocity": 0.7559055118110236,
          "duration": 0.16617638750000197
        },
        {
          "name": "A3",
          "midi": 57,
          "time": 179.47049849999863,
          "velocity": 0.7559055118110236,
          "duration": 0.16617638750000197
        },
        {
          "name": "E3",
          "midi": 52,
          "time": 179.64696899999862,
          "velocity": 0.7559055118110236,
          "duration": 0.16617638750000197
        },
        {
          "name": "C3",
          "midi": 48,
          "time": 179.8234394999986,
          "velocity": 0.7559055118110236,
          "duration": 0.16617638750000197
        },
        {
          "name": "F2",
          "midi": 41,
          "time": 179.9999099999986,
          "velocity": 0.7559055118110236,
          "duration": 0.16617638750000197
        },
        {
          "name": "C3",
          "midi": 48,
          "time": 180.1763804999986,
          "velocity": 0.7559055118110236,
          "duration": 0.16617638750000197
        },
        {
          "name": "E3",
          "midi": 52,
          "time": 180.3528509999986,
          "velocity": 0.7559055118110236,
          "duration": 0.16617638750000197
        },
        {
          "name": "A3",
          "midi": 57,
          "time": 180.5293214999986,
          "velocity": 0.7559055118110236,
          "duration": 0.16617638750000197
        },
        {
          "name": "E3",
          "midi": 52,
          "time": 180.70579199999858,
          "velocity": 0.7559055118110236,
          "duration": 0.16617638750000197
        },
        {
          "name": "C3",
          "midi": 48,
          "time": 180.88226249999857,
          "velocity": 0.7559055118110236,
          "duration": 0.16617638750000197
        },
        {
          "name": "F2",
          "midi": 41,
          "time": 181.05873299999857,
          "velocity": 0.7559055118110236,
          "duration": 0.16617638750000197
        },
        {
          "name": "C3",
          "midi": 48,
          "time": 181.23520349999856,
          "velocity": 0.7559055118110236,
          "duration": 0.16617638750000197
        },
        {
          "name": "E3",
          "midi": 52,
          "time": 181.41167399999856,
          "velocity": 0.7559055118110236,
          "duration": 0.16617638750000197
        },
        {
          "name": "A3",
          "midi": 57,
          "time": 181.58814449999855,
          "velocity": 0.7559055118110236,
          "duration": 0.16617638750000197
        },
        {
          "name": "E3",
          "midi": 52,
          "time": 181.76461499999854,
          "velocity": 0.7559055118110236,
          "duration": 0.16617638750000197
        },
        {
          "name": "C3",
          "midi": 48,
          "time": 181.94108549999854,
          "velocity": 0.7559055118110236,
          "duration": 0.16617638750000197
        },
        {
          "name": "G2",
          "midi": 43,
          "time": 182.11755599999853,
          "velocity": 0.7559055118110236,
          "duration": 0.16617638750000197
        },
        {
          "name": "D3",
          "midi": 50,
          "time": 182.29402649999852,
          "velocity": 0.7559055118110236,
          "duration": 0.16617638750000197
        },
        {
          "name": "E3",
          "midi": 52,
          "time": 182.47049699999852,
          "velocity": 0.7559055118110236,
          "duration": 0.16617638750000197
        },
        {
          "name": "B3",
          "midi": 59,
          "time": 182.6469674999985,
          "velocity": 0.7559055118110236,
          "duration": 0.16617638750000197
        },
        {
          "name": "E3",
          "midi": 52,
          "time": 182.8234379999985,
          "velocity": 0.7559055118110236,
          "duration": 0.16617638750000197
        },
        {
          "name": "D3",
          "midi": 50,
          "time": 182.9999084999985,
          "velocity": 0.7559055118110236,
          "duration": 0.16617638750000197
        },
        {
          "name": "G2",
          "midi": 43,
          "time": 183.1763789999985,
          "velocity": 0.7559055118110236,
          "duration": 0.16617638750000197
        },
        {
          "name": "D3",
          "midi": 50,
          "time": 183.35284949999848,
          "velocity": 0.7559055118110236,
          "duration": 0.16617638750000197
        },
        {
          "name": "E3",
          "midi": 52,
          "time": 183.52931999999848,
          "velocity": 0.7559055118110236,
          "duration": 0.16617638750000197
        },
        {
          "name": "B3",
          "midi": 59,
          "time": 183.70579049999847,
          "velocity": 0.7559055118110236,
          "duration": 0.16617638750000197
        },
        {
          "name": "E3",
          "midi": 52,
          "time": 183.88226099999846,
          "velocity": 0.7559055118110236,
          "duration": 0.16617638750000197
        },
        {
          "name": "D3",
          "midi": 50,
          "time": 184.05873149999846,
          "velocity": 0.7559055118110236,
          "duration": 0.16617638750000197
        },
        {
          "name": "G2",
          "midi": 43,
          "time": 184.23520199999845,
          "velocity": 0.7559055118110236,
          "duration": 0.16617638750000197
        },
        {
          "name": "D3",
          "midi": 50,
          "time": 184.41167249999845,
          "velocity": 0.7559055118110236,
          "duration": 0.16617638750000197
        },
        {
          "name": "E3",
          "midi": 52,
          "time": 184.58814299999844,
          "velocity": 0.7559055118110236,
          "duration": 0.16617638750000197
        },
        {
          "name": "B3",
          "midi": 59,
          "time": 184.76461349999843,
          "velocity": 0.7559055118110236,
          "duration": 0.16617638750000197
        },
        {
          "name": "E3",
          "midi": 52,
          "time": 184.94108399999843,
          "velocity": 0.7559055118110236,
          "duration": 0.16617638750000197
        },
        {
          "name": "D3",
          "midi": 50,
          "time": 185.11755449999842,
          "velocity": 0.7559055118110236,
          "duration": 0.16617638750000197
        },
        {
          "name": "G2",
          "midi": 43,
          "time": 185.2940249999984,
          "velocity": 0.7559055118110236,
          "duration": 0.16617638750000197
        },
        {
          "name": "D3",
          "midi": 50,
          "time": 185.4704954999984,
          "velocity": 0.7559055118110236,
          "duration": 0.16617638750000197
        },
        {
          "name": "E3",
          "midi": 52,
          "time": 185.6469659999984,
          "velocity": 0.7559055118110236,
          "duration": 0.16617638750000197
        },
        {
          "name": "B3",
          "midi": 59,
          "time": 185.8234364999984,
          "velocity": 0.7559055118110236,
          "duration": 0.16617638750000197
        },
        {
          "name": "E3",
          "midi": 52,
          "time": 185.9999069999984,
          "velocity": 0.7559055118110236,
          "duration": 0.16617638750000197
        },
        {
          "name": "D3",
          "midi": 50,
          "time": 186.17637749999838,
          "velocity": 0.7559055118110236,
          "duration": 0.16617638750000197
        },
        {
          "name": "A2",
          "midi": 45,
          "time": 186.35284799999837,
          "velocity": 0.7559055118110236,
          "duration": 0.16617638750000197
        },
        {
          "name": "C3",
          "midi": 48,
          "time": 186.52931849999837,
          "velocity": 0.7559055118110236,
          "duration": 0.16617638750000197
        },
        {
          "name": "E3",
          "midi": 52,
          "time": 186.70578899999836,
          "velocity": 0.7559055118110236,
          "duration": 0.16617638750000197
        },
        {
          "name": "C4",
          "midi": 60,
          "time": 186.88225949999836,
          "velocity": 0.7559055118110236,
          "duration": 0.16617638750000197
        },
        {
          "name": "E3",
          "midi": 52,
          "time": 187.05872999999835,
          "velocity": 0.7559055118110236,
          "duration": 0.16617638750000197
        },
        {
          "name": "C3",
          "midi": 48,
          "time": 187.23520049999834,
          "velocity": 0.7559055118110236,
          "duration": 0.16617638750000197
        },
        {
          "name": "A2",
          "midi": 45,
          "time": 187.41167099999834,
          "velocity": 0.7559055118110236,
          "duration": 0.16617638750000197
        },
        {
          "name": "C3",
          "midi": 48,
          "time": 187.58814149999833,
          "velocity": 0.7559055118110236,
          "duration": 0.16617638750000197
        },
        {
          "name": "E3",
          "midi": 52,
          "time": 187.76461199999832,
          "velocity": 0.7559055118110236,
          "duration": 0.16617638750000197
        },
        {
          "name": "C4",
          "midi": 60,
          "time": 187.94108249999832,
          "velocity": 0.7559055118110236,
          "duration": 0.16617638750000197
        },
        {
          "name": "E3",
          "midi": 52,
          "time": 188.1175529999983,
          "velocity": 0.7559055118110236,
          "duration": 0.16617638750000197
        },
        {
          "name": "C3",
          "midi": 48,
          "time": 188.2940234999983,
          "velocity": 0.7559055118110236,
          "duration": 0.16617638750000197
        },
        {
          "name": "A2",
          "midi": 45,
          "time": 188.4704939999983,
          "velocity": 0.7559055118110236,
          "duration": 0.16617638750000197
        },
        {
          "name": "C3",
          "midi": 48,
          "time": 188.6469644999983,
          "velocity": 0.7559055118110236,
          "duration": 0.16617638750000197
        },
        {
          "name": "E3",
          "midi": 52,
          "time": 188.82343499999828,
          "velocity": 0.7559055118110236,
          "duration": 0.16617638750000197
        },
        {
          "name": "C4",
          "midi": 60,
          "time": 188.99990549999828,
          "velocity": 0.7559055118110236,
          "duration": 0.16617638750000197
        },
        {
          "name": "E3",
          "midi": 52,
          "time": 189.17637599999827,
          "velocity": 0.7559055118110236,
          "duration": 0.16617638750000197
        },
        {
          "name": "C3",
          "midi": 48,
          "time": 189.35284649999826,
          "velocity": 0.7559055118110236,
          "duration": 0.16617638750000197
        },
        {
          "name": "A2",
          "midi": 45,
          "time": 189.52931699999826,
          "velocity": 0.7559055118110236,
          "duration": 0.16617638750000197
        },
        {
          "name": "C3",
          "midi": 48,
          "time": 189.70578749999825,
          "velocity": 0.7559055118110236,
          "duration": 0.16617638750000197
        },
        {
          "name": "E3",
          "midi": 52,
          "time": 189.88225799999825,
          "velocity": 0.7559055118110236,
          "duration": 0.16617638750000197
        },
        {
          "name": "C4",
          "midi": 60,
          "time": 190.05872849999824,
          "velocity": 0.7559055118110236,
          "duration": 0.16617638750000197
        },
        {
          "name": "E3",
          "midi": 52,
          "time": 190.23519899999823,
          "velocity": 0.7559055118110236,
          "duration": 0.16617638750000197
        },
        {
          "name": "C3",
          "midi": 48,
          "time": 190.41166949999823,
          "velocity": 0.7559055118110236,
          "duration": 0.16617638750000197
        },
        {
          "name": "G2",
          "midi": 43,
          "time": 190.58813999999822,
          "velocity": 0.7559055118110236,
          "duration": 0.16617638750000197
        },
        {
          "name": "D3",
          "midi": 50,
          "time": 190.7646104999982,
          "velocity": 0.7559055118110236,
          "duration": 0.16617638750000197
        },
        {
          "name": "E3",
          "midi": 52,
          "time": 190.9410809999982,
          "velocity": 0.7559055118110236,
          "duration": 0.16617638750000197
        },
        {
          "name": "B3",
          "midi": 59,
          "time": 191.1175514999982,
          "velocity": 0.7559055118110236,
          "duration": 0.16617638750000197
        },
        {
          "name": "E3",
          "midi": 52,
          "time": 191.2940219999982,
          "velocity": 0.7559055118110236,
          "duration": 0.16617638750000197
        },
        {
          "name": "D3",
          "midi": 50,
          "time": 191.4704924999982,
          "velocity": 0.7559055118110236,
          "duration": 0.16617638750000197
        },
        {
          "name": "G2",
          "midi": 43,
          "time": 191.64696299999818,
          "velocity": 0.7559055118110236,
          "duration": 0.16617638750000197
        },
        {
          "name": "D3",
          "midi": 50,
          "time": 191.82343349999817,
          "velocity": 0.7559055118110236,
          "duration": 0.16617638750000197
        },
        {
          "name": "E3",
          "midi": 52,
          "time": 191.99990399999817,
          "velocity": 0.7559055118110236,
          "duration": 0.16617638750000197
        },
        {
          "name": "B3",
          "midi": 59,
          "time": 192.17637449999816,
          "velocity": 0.7559055118110236,
          "duration": 0.16617638750000197
        },
        {
          "name": "E3",
          "midi": 52,
          "time": 192.35284499999815,
          "velocity": 0.7559055118110236,
          "duration": 0.16617638750000197
        },
        {
          "name": "D3",
          "midi": 50,
          "time": 192.52931549999815,
          "velocity": 0.7559055118110236,
          "duration": 0.16617638750000197
        },
        {
          "name": "G2",
          "midi": 43,
          "time": 192.70578599999814,
          "velocity": 0.7559055118110236,
          "duration": 0.16617638750000197
        },
        {
          "name": "D3",
          "midi": 50,
          "time": 192.88225649999814,
          "velocity": 0.7559055118110236,
          "duration": 0.16617638750000197
        },
        {
          "name": "E3",
          "midi": 52,
          "time": 193.05872699999813,
          "velocity": 0.7559055118110236,
          "duration": 0.16617638750000197
        },
        {
          "name": "B3",
          "midi": 59,
          "time": 193.23519749999812,
          "velocity": 0.7559055118110236,
          "duration": 0.16617638750000197
        },
        {
          "name": "E3",
          "midi": 52,
          "time": 193.41166799999812,
          "velocity": 0.7559055118110236,
          "duration": 0.16617638750000197
        },
        {
          "name": "D3",
          "midi": 50,
          "time": 193.5881384999981,
          "velocity": 0.7559055118110236,
          "duration": 0.16617638750000197
        },
        {
          "name": "G2",
          "midi": 43,
          "time": 193.7646089999981,
          "velocity": 0.7559055118110236,
          "duration": 0.16617638750000197
        },
        {
          "name": "D3",
          "midi": 50,
          "time": 193.9410794999981,
          "velocity": 0.7559055118110236,
          "duration": 0.16617638750000197
        },
        {
          "name": "E3",
          "midi": 52,
          "time": 194.1175499999981,
          "velocity": 0.7559055118110236,
          "duration": 0.16617638750000197
        },
        {
          "name": "B3",
          "midi": 59,
          "time": 194.29402049999808,
          "velocity": 0.7559055118110236,
          "duration": 0.16617638750000197
        },
        {
          "name": "E3",
          "midi": 52,
          "time": 194.47049099999808,
          "velocity": 0.7559055118110236,
          "duration": 0.16617638750000197
        },
        {
          "name": "D3",
          "midi": 50,
          "time": 194.64696149999807,
          "velocity": 0.7559055118110236,
          "duration": 0.16617638750000197
        },
        {
          "name": "F2",
          "midi": 41,
          "time": 194.82343199999806,
          "velocity": 0.7559055118110236,
          "duration": 0.16617638750000197
        },
        {
          "name": "C3",
          "midi": 48,
          "time": 194.99990249999806,
          "velocity": 0.7559055118110236,
          "duration": 0.16617638750000197
        },
        {
          "name": "E3",
          "midi": 52,
          "time": 195.17637299999805,
          "velocity": 0.7559055118110236,
          "duration": 0.16617638750000197
        },
        {
          "name": "A3",
          "midi": 57,
          "time": 195.35284349999804,
          "velocity": 0.7559055118110236,
          "duration": 0.16617638750000197
        },
        {
          "name": "E3",
          "midi": 52,
          "time": 195.52931399999804,
          "velocity": 0.7559055118110236,
          "duration": 0.16617638750000197
        },
        {
          "name": "C3",
          "midi": 48,
          "time": 195.70578449999803,
          "velocity": 0.7559055118110236,
          "duration": 0.16617638750000197
        },
        {
          "name": "F2",
          "midi": 41,
          "time": 195.88225499999803,
          "velocity": 0.7559055118110236,
          "duration": 0.16617638750000197
        },
        {
          "name": "C3",
          "midi": 48,
          "time": 196.05872549999802,
          "velocity": 0.7559055118110236,
          "duration": 0.16617638750000197
        },
        {
          "name": "E3",
          "midi": 52,
          "time": 196.235195999998,
          "velocity": 0.7559055118110236,
          "duration": 0.16617638750000197
        },
        {
          "name": "A3",
          "midi": 57,
          "time": 196.411666499998,
          "velocity": 0.7559055118110236,
          "duration": 0.16617638750000197
        },
        {
          "name": "E3",
          "midi": 52,
          "time": 196.588136999998,
          "velocity": 0.7559055118110236,
          "duration": 0.16617638750000197
        },
        {
          "name": "C3",
          "midi": 48,
          "time": 196.764607499998,
          "velocity": 0.7559055118110236,
          "duration": 0.16617638750000197
        },
        {
          "name": "F2",
          "midi": 41,
          "time": 196.941077999998,
          "velocity": 0.7559055118110236,
          "duration": 0.16617638750000197
        },
        {
          "name": "C3",
          "midi": 48,
          "time": 197.11754849999798,
          "velocity": 0.7559055118110236,
          "duration": 0.16617638750000197
        },
        {
          "name": "E3",
          "midi": 52,
          "time": 197.29401899999797,
          "velocity": 0.7559055118110236,
          "duration": 0.16617638750000197
        },
        {
          "name": "A3",
          "midi": 57,
          "time": 197.47048949999797,
          "velocity": 0.7559055118110236,
          "duration": 0.16617638750000197
        },
        {
          "name": "E3",
          "midi": 52,
          "time": 197.64695999999796,
          "velocity": 0.7559055118110236,
          "duration": 0.16617638750000197
        },
        {
          "name": "C3",
          "midi": 48,
          "time": 197.82343049999795,
          "velocity": 0.7559055118110236,
          "duration": 0.16617638750000197
        },
        {
          "name": "F2",
          "midi": 41,
          "time": 197.99990099999795,
          "velocity": 0.7559055118110236,
          "duration": 0.16617638750000197
        },
        {
          "name": "C3",
          "midi": 48,
          "time": 198.17637149999794,
          "velocity": 0.7559055118110236,
          "duration": 0.16617638750000197
        },
        {
          "name": "E3",
          "midi": 52,
          "time": 198.35284199999793,
          "velocity": 0.7559055118110236,
          "duration": 0.16617638750000197
        },
        {
          "name": "A3",
          "midi": 57,
          "time": 198.52931249999793,
          "velocity": 0.7559055118110236,
          "duration": 0.16617638750000197
        },
        {
          "name": "E3",
          "midi": 52,
          "time": 198.70578299999792,
          "velocity": 0.7559055118110236,
          "duration": 0.16617638750000197
        },
        {
          "name": "C3",
          "midi": 48,
          "time": 198.88225349999792,
          "velocity": 0.7559055118110236,
          "duration": 0.16617638750000197
        },
        {
          "name": "G2",
          "midi": 43,
          "time": 199.0587239999979,
          "velocity": 0.7559055118110236,
          "duration": 0.16617638750000197
        },
        {
          "name": "D3",
          "midi": 50,
          "time": 199.2351944999979,
          "velocity": 0.7559055118110236,
          "duration": 0.16617638750000197
        },
        {
          "name": "E3",
          "midi": 52,
          "time": 199.4116649999979,
          "velocity": 0.7559055118110236,
          "duration": 0.16617638750000197
        },
        {
          "name": "B3",
          "midi": 59,
          "time": 199.5881354999979,
          "velocity": 0.7559055118110236,
          "duration": 0.16617638750000197
        },
        {
          "name": "E3",
          "midi": 52,
          "time": 199.76460599999788,
          "velocity": 0.7559055118110236,
          "duration": 0.16617638750000197
        },
        {
          "name": "D3",
          "midi": 50,
          "time": 199.94107649999788,
          "velocity": 0.7559055118110236,
          "duration": 0.16617638750000197
        },
        {
          "name": "G2",
          "midi": 43,
          "time": 200.11754699999787,
          "velocity": 0.7559055118110236,
          "duration": 0.16617638750000197
        },
        {
          "name": "D3",
          "midi": 50,
          "time": 200.29401749999786,
          "velocity": 0.7559055118110236,
          "duration": 0.16617638750000197
        },
        {
          "name": "E3",
          "midi": 52,
          "time": 200.47048799999786,
          "velocity": 0.7559055118110236,
          "duration": 0.16617638750000197
        },
        {
          "name": "B3",
          "midi": 59,
          "time": 200.64695849999785,
          "velocity": 0.7559055118110236,
          "duration": 0.16617638750000197
        },
        {
          "name": "E3",
          "midi": 52,
          "time": 200.82342899999784,
          "velocity": 0.7559055118110236,
          "duration": 0.16617638750000197
        },
        {
          "name": "D3",
          "midi": 50,
          "time": 200.99989949999784,
          "velocity": 0.7559055118110236,
          "duration": 0.16617638750000197
        },
        {
          "name": "G2",
          "midi": 43,
          "time": 201.17636999999783,
          "velocity": 0.7559055118110236,
          "duration": 0.16617638750000197
        },
        {
          "name": "D3",
          "midi": 50,
          "time": 201.35284049999782,
          "velocity": 0.7559055118110236,
          "duration": 0.16617638750000197
        },
        {
          "name": "E3",
          "midi": 52,
          "time": 201.52931099999782,
          "velocity": 0.7559055118110236,
          "duration": 0.16617638750000197
        },
        {
          "name": "B3",
          "midi": 59,
          "time": 201.7057814999978,
          "velocity": 0.7559055118110236,
          "duration": 0.16617638750000197
        },
        {
          "name": "E3",
          "midi": 52,
          "time": 201.8822519999978,
          "velocity": 0.7559055118110236,
          "duration": 0.16617638750000197
        },
        {
          "name": "D3",
          "midi": 50,
          "time": 202.0587224999978,
          "velocity": 0.7559055118110236,
          "duration": 0.16617638750000197
        },
        {
          "name": "G2",
          "midi": 43,
          "time": 202.2351929999978,
          "velocity": 0.7559055118110236,
          "duration": 0.16617638750000197
        },
        {
          "name": "D3",
          "midi": 50,
          "time": 202.4116634999978,
          "velocity": 0.7559055118110236,
          "duration": 0.16617638750000197
        },
        {
          "name": "E3",
          "midi": 52,
          "time": 202.58813399999778,
          "velocity": 0.7559055118110236,
          "duration": 0.16617638750000197
        },
        {
          "name": "B3",
          "midi": 59,
          "time": 202.76460449999777,
          "velocity": 0.7559055118110236,
          "duration": 0.16617638750000197
        },
        {
          "name": "E3",
          "midi": 52,
          "time": 202.94107499999777,
          "velocity": 0.7559055118110236,
          "duration": 0.16617638750000197
        },
        {
          "name": "D3",
          "midi": 50,
          "time": 203.11754549999776,
          "velocity": 0.7559055118110236,
          "duration": 0.16617638750000197
        },
        {
          "name": "A2",
          "midi": 45,
          "time": 203.29401599999775,
          "velocity": 0.7559055118110236,
          "duration": 0.16617638750000197
        },
        {
          "name": "C3",
          "midi": 48,
          "time": 203.47048649999775,
          "velocity": 0.7559055118110236,
          "duration": 0.16617638750000197
        },
        {
          "name": "E3",
          "midi": 52,
          "time": 203.64695699999774,
          "velocity": 0.7559055118110236,
          "duration": 0.16617638750000197
        },
        {
          "name": "C4",
          "midi": 60,
          "time": 203.82342749999773,
          "velocity": 0.7559055118110236,
          "duration": 0.16617638750000197
        },
        {
          "name": "E3",
          "midi": 52,
          "time": 203.99989799999773,
          "velocity": 0.7559055118110236,
          "duration": 0.16617638750000197
        },
        {
          "name": "C3",
          "midi": 48,
          "time": 204.17636849999772,
          "velocity": 0.7559055118110236,
          "duration": 0.16617638750000197
        },
        {
          "name": "A2",
          "midi": 45,
          "time": 204.35283899999772,
          "velocity": 0.7559055118110236,
          "duration": 0.16617638750000197
        },
        {
          "name": "C3",
          "midi": 48,
          "time": 204.5293094999977,
          "velocity": 0.7559055118110236,
          "duration": 0.16617638750000197
        },
        {
          "name": "E3",
          "midi": 52,
          "time": 204.7057799999977,
          "velocity": 0.7559055118110236,
          "duration": 0.16617638750000197
        },
        {
          "name": "C4",
          "midi": 60,
          "time": 204.8822504999977,
          "velocity": 0.7559055118110236,
          "duration": 0.16617638750000197
        },
        {
          "name": "E3",
          "midi": 52,
          "time": 205.0587209999977,
          "velocity": 0.7559055118110236,
          "duration": 0.16617638750000197
        },
        {
          "name": "C3",
          "midi": 48,
          "time": 205.23519149999768,
          "velocity": 0.7559055118110236,
          "duration": 0.16617638750000197
        },
        {
          "name": "A2",
          "midi": 45,
          "time": 205.41166199999768,
          "velocity": 0.7559055118110236,
          "duration": 0.16617638750000197
        },
        {
          "name": "C3",
          "midi": 48,
          "time": 205.58813249999767,
          "velocity": 0.7559055118110236,
          "duration": 0.16617638750000197
        },
        {
          "name": "E3",
          "midi": 52,
          "time": 205.76460299999766,
          "velocity": 0.7559055118110236,
          "duration": 0.16617638750000197
        },
        {
          "name": "C4",
          "midi": 60,
          "time": 205.94107349999766,
          "velocity": 0.7559055118110236,
          "duration": 0.16617638750000197
        },
        {
          "name": "E3",
          "midi": 52,
          "time": 206.11754399999765,
          "velocity": 0.7559055118110236,
          "duration": 0.16617638750000197
        },
        {
          "name": "C3",
          "midi": 48,
          "time": 206.29401449999764,
          "velocity": 0.7559055118110236,
          "duration": 0.16617638750000197
        },
        {
          "name": "A2",
          "midi": 45,
          "time": 206.47048499999764,
          "velocity": 0.7559055118110236,
          "duration": 0.16617638750000197
        },
        {
          "name": "C3",
          "midi": 48,
          "time": 206.64695549999763,
          "velocity": 0.7559055118110236,
          "duration": 0.16617638750000197
        },
        {
          "name": "E3",
          "midi": 52,
          "time": 206.82342599999762,
          "velocity": 0.7559055118110236,
          "duration": 0.16617638750000197
        },
        {
          "name": "C4",
          "midi": 60,
          "time": 206.99989649999762,
          "velocity": 0.7559055118110236,
          "duration": 0.16617638750000197
        },
        {
          "name": "E3",
          "midi": 52,
          "time": 207.1763669999976,
          "velocity": 0.7559055118110236,
          "duration": 0.16617638750000197
        },
        {
          "name": "C3",
          "midi": 48,
          "time": 207.3528374999976,
          "velocity": 0.7559055118110236,
          "duration": 0.16617638750000197
        },
        {
          "name": "G2",
          "midi": 43,
          "time": 207.5293079999976,
          "velocity": 0.7559055118110236,
          "duration": 0.16617638750000197
        },
        {
          "name": "D3",
          "midi": 50,
          "time": 207.7057784999976,
          "velocity": 0.7559055118110236,
          "duration": 0.16617638750000197
        },
        {
          "name": "E3",
          "midi": 52,
          "time": 207.88224899999759,
          "velocity": 0.7559055118110236,
          "duration": 0.16617638750000197
        },
        {
          "name": "B3",
          "midi": 59,
          "time": 208.05871949999758,
          "velocity": 0.7559055118110236,
          "duration": 0.16617638750000197
        },
        {
          "name": "E3",
          "midi": 52,
          "time": 208.23518999999757,
          "velocity": 0.7559055118110236,
          "duration": 0.16617638750000197
        },
        {
          "name": "D3",
          "midi": 50,
          "time": 208.41166049999757,
          "velocity": 0.7559055118110236,
          "duration": 0.16617638750000197
        },
        {
          "name": "G2",
          "midi": 43,
          "time": 208.58813099999756,
          "velocity": 0.7559055118110236,
          "duration": 0.16617638750000197
        },
        {
          "name": "D3",
          "midi": 50,
          "time": 208.76460149999755,
          "velocity": 0.7559055118110236,
          "duration": 0.16617638750000197
        },
        {
          "name": "E3",
          "midi": 52,
          "time": 208.94107199999755,
          "velocity": 0.7559055118110236,
          "duration": 0.16617638750000197
        },
        {
          "name": "B3",
          "midi": 59,
          "time": 209.11754249999754,
          "velocity": 0.7559055118110236,
          "duration": 0.16617638750000197
        },
        {
          "name": "E3",
          "midi": 52,
          "time": 209.29401299999753,
          "velocity": 0.7559055118110236,
          "duration": 0.16617638750000197
        },
        {
          "name": "D3",
          "midi": 50,
          "time": 209.47048349999753,
          "velocity": 0.7559055118110236,
          "duration": 0.16617638750000197
        },
        {
          "name": "G2",
          "midi": 43,
          "time": 209.64695399999752,
          "velocity": 0.7559055118110236,
          "duration": 0.16617638750000197
        },
        {
          "name": "D3",
          "midi": 50,
          "time": 209.82342449999751,
          "velocity": 0.7559055118110236,
          "duration": 0.16617638750000197
        },
        {
          "name": "E3",
          "midi": 52,
          "time": 209.9998949999975,
          "velocity": 0.7559055118110236,
          "duration": 0.16617638750000197
        },
        {
          "name": "B3",
          "midi": 59,
          "time": 210.1763654999975,
          "velocity": 0.7559055118110236,
          "duration": 0.16617638750000197
        },
        {
          "name": "E3",
          "midi": 52,
          "time": 210.3528359999975,
          "velocity": 0.7559055118110236,
          "duration": 0.16617638750000197
        },
        {
          "name": "D3",
          "midi": 50,
          "time": 210.5293064999975,
          "velocity": 0.7559055118110236,
          "duration": 0.16617638750000197
        },
        {
          "name": "G2",
          "midi": 43,
          "time": 210.70577699999748,
          "velocity": 0.7559055118110236,
          "duration": 0.16617638750000197
        },
        {
          "name": "D3",
          "midi": 50,
          "time": 210.88224749999748,
          "velocity": 0.7559055118110236,
          "duration": 0.16617638750000197
        },
        {
          "name": "E3",
          "midi": 52,
          "time": 211.05871799999747,
          "velocity": 0.7559055118110236,
          "duration": 0.16617638750000197
        },
        {
          "name": "B3",
          "midi": 59,
          "time": 211.23518849999746,
          "velocity": 0.7559055118110236,
          "duration": 0.16617638750000197
        },
        {
          "name": "E3",
          "midi": 52,
          "time": 211.41165899999746,
          "velocity": 0.7559055118110236,
          "duration": 0.16617638750000197
        },
        {
          "name": "D3",
          "midi": 50,
          "time": 211.58812949999745,
          "velocity": 0.7559055118110236,
          "duration": 0.16617638750000197
        },
        {
          "name": "E2",
          "midi": 40,
          "time": 211.76459999999744,
          "velocity": 0.7559055118110236,
          "duration": 0.6691173124999921
        },
        {
          "name": "E3",
          "midi": 52,
          "time": 211.76459999999744,
          "velocity": 0.7559055118110236,
          "duration": 0.6691173124999921
        },
        {
          "name": "E2",
          "midi": 40,
          "time": 212.47048199999745,
          "velocity": 0.5511811023622047,
          "duration": 0.6691173124999921
        },
        {
          "name": "E3",
          "midi": 52,
          "time": 212.47048199999745,
          "velocity": 0.5511811023622047,
          "duration": 0.6691173124999921
        },
        {
          "name": "E2",
          "midi": 40,
          "time": 213.17636399999745,
          "velocity": 0.33858267716535434,
          "duration": 0.6691173124999921
        },
        {
          "name": "E3",
          "midi": 52,
          "time": 213.17636399999745,
          "velocity": 0.33858267716535434,
          "duration": 0.6691173124999921
        },
        {
          "name": "E2",
          "midi": 40,
          "time": 213.88224599999745,
          "velocity": 0.12598425196850394,
          "duration": 2.010293112499994
        },
        {
          "name": "E3",
          "midi": 52,
          "time": 213.88224599999745,
          "velocity": 0.12598425196850394,
          "duration": 2.010293112499994
        }
      ],
      "controlChanges": {
        "64": [
          {
            "number": 64,
            "time": 0.002941175,
            "value": 1
          },
          {
            "number": 64,
            "time": 8.4720545875,
            "value": 0
          },
          {
            "number": 64,
            "time": 8.473525175,
            "value": 1
          },
          {
            "number": 64,
            "time": 10.5897005875,
            "value": 0
          },
          {
            "number": 64,
            "time": 10.591171175,
            "value": 1
          },
          {
            "number": 64,
            "time": 14.8249925875,
            "value": 0
          },
          {
            "number": 64,
            "time": 14.826463175,
            "value": 1
          },
          {
            "number": 64,
            "time": 16.9426385875,
            "value": 0
          },
          {
            "number": 64,
            "time": 16.944109174999998,
            "value": 1
          },
          {
            "number": 64,
            "time": 19.060284587499993,
            "value": 0
          },
          {
            "number": 64,
            "time": 19.06175517499999,
            "value": 1
          },
          {
            "number": 64,
            "time": 21.17793058749999,
            "value": 0
          },
          {
            "number": 64,
            "time": 21.179401174999988,
            "value": 1
          },
          {
            "number": 64,
            "time": 25.413222587499988,
            "value": 0
          },
          {
            "number": 64,
            "time": 25.414693174999986,
            "value": 1
          },
          {
            "number": 64,
            "time": 27.530868587499985,
            "value": 0
          },
          {
            "number": 64,
            "time": 27.532339174999983,
            "value": 1
          },
          {
            "number": 64,
            "time": 29.64851458749998,
            "value": 0
          },
          {
            "number": 64,
            "time": 29.64998517499998,
            "value": 1
          },
          {
            "number": 64,
            "time": 33.883806587499976,
            "value": 0
          },
          {
            "number": 64,
            "time": 33.88527717499998,
            "value": 1
          },
          {
            "number": 64,
            "time": 36.001452587499976,
            "value": 0
          },
          {
            "number": 64,
            "time": 36.00292317499998,
            "value": 1
          },
          {
            "number": 64,
            "time": 38.11909858749999,
            "value": 0
          },
          {
            "number": 64,
            "time": 38.12056917499999,
            "value": 1
          },
          {
            "number": 64,
            "time": 40.23674458749999,
            "value": 0
          },
          {
            "number": 64,
            "time": 40.23821517499999,
            "value": 1
          },
          {
            "number": 64,
            "time": 44.47203658749999,
            "value": 0
          },
          {
            "number": 64,
            "time": 44.473507174999995,
            "value": 1
          },
          {
            "number": 64,
            "time": 46.5896825875,
            "value": 0
          },
          {
            "number": 64,
            "time": 46.591153175,
            "value": 1
          },
          {
            "number": 64,
            "time": 48.707328587500015,
            "value": 0
          },
          {
            "number": 64,
            "time": 48.70879917500002,
            "value": 1
          },
          {
            "number": 64,
            "time": 50.824974587500016,
            "value": 0
          },
          {
            "number": 64,
            "time": 50.82644517500002,
            "value": 1
          },
          {
            "number": 64,
            "time": 52.942620587500016,
            "value": 0
          },
          {
            "number": 64,
            "time": 52.94409117500002,
            "value": 1
          },
          {
            "number": 64,
            "time": 55.06026658750002,
            "value": 0
          },
          {
            "number": 64,
            "time": 55.06173717500002,
            "value": 1
          },
          {
            "number": 64,
            "time": 57.17791258750002,
            "value": 0
          },
          {
            "number": 64,
            "time": 57.17938317500002,
            "value": 1
          },
          {
            "number": 64,
            "time": 61.41320458750002,
            "value": 0
          },
          {
            "number": 64,
            "time": 61.41467517500002,
            "value": 1
          },
          {
            "number": 64,
            "time": 63.530850587500034,
            "value": 0
          },
          {
            "number": 64,
            "time": 63.532321175000035,
            "value": 1
          },
          {
            "number": 64,
            "time": 65.64849658750003,
            "value": 0
          },
          {
            "number": 64,
            "time": 65.64996717500003,
            "value": 1
          },
          {
            "number": 64,
            "time": 67.76614258750003,
            "value": 0
          },
          {
            "number": 64,
            "time": 67.76761317500002,
            "value": 1
          },
          {
            "number": 64,
            "time": 72.00143458750001,
            "value": 0
          },
          {
            "number": 64,
            "time": 72.00290517500001,
            "value": 1
          },
          {
            "number": 64,
            "time": 74.11908058750001,
            "value": 0
          },
          {
            "number": 64,
            "time": 74.120551175,
            "value": 1
          },
          {
            "number": 64,
            "time": 78.3543725875,
            "value": 0
          },
          {
            "number": 64,
            "time": 78.35584317499999,
            "value": 1
          },
          {
            "number": 64,
            "time": 80.47201858749999,
            "value": 0
          },
          {
            "number": 64,
            "time": 80.47348917499998,
            "value": 1
          },
          {
            "number": 64,
            "time": 82.58966458749998,
            "value": 0
          },
          {
            "number": 64,
            "time": 82.59113517499998,
            "value": 1
          },
          {
            "number": 64,
            "time": 84.70731058749998,
            "value": 0
          },
          {
            "number": 64,
            "time": 84.70878117499997,
            "value": 1
          },
          {
            "number": 64,
            "time": 88.94260258749996,
            "value": 0
          },
          {
            "number": 64,
            "time": 88.94407317499996,
            "value": 1
          },
          {
            "number": 64,
            "time": 91.06024858749996,
            "value": 0
          },
          {
            "number": 64,
            "time": 91.06171917499995,
            "value": 1
          },
          {
            "number": 64,
            "time": 93.17789458749995,
            "value": 0
          },
          {
            "number": 64,
            "time": 93.17936517499994,
            "value": 1
          },
          {
            "number": 64,
            "time": 97.41318658749994,
            "value": 0
          },
          {
            "number": 64,
            "time": 97.41465717499993,
            "value": 1
          },
          {
            "number": 64,
            "time": 99.53083258749993,
            "value": 0
          },
          {
            "number": 64,
            "time": 99.53230317499992,
            "value": 1
          },
          {
            "number": 64,
            "time": 101.64847858749992,
            "value": 0
          },
          {
            "number": 64,
            "time": 101.64994917499992,
            "value": 1
          },
          {
            "number": 64,
            "time": 103.76612458749992,
            "value": 0
          },
          {
            "number": 64,
            "time": 103.76759517499991,
            "value": 1
          },
          {
            "number": 64,
            "time": 105.88377058749991,
            "value": 0
          },
          {
            "number": 64,
            "time": 105.8852411749999,
            "value": 1
          },
          {
            "number": 64,
            "time": 110.11906258749991,
            "value": 0
          },
          {
            "number": 64,
            "time": 110.1205331749999,
            "value": 1
          },
          {
            "number": 64,
            "time": 112.2367085874999,
            "value": 0
          },
          {
            "number": 64,
            "time": 112.2381791749999,
            "value": 1
          },
          {
            "number": 64,
            "time": 114.3543545874999,
            "value": 0
          },
          {
            "number": 64,
            "time": 114.3558251749999,
            "value": 1
          },
          {
            "number": 64,
            "time": 116.47200058749989,
            "value": 0
          },
          {
            "number": 64,
            "time": 116.47347117499989,
            "value": 1
          },
          {
            "number": 64,
            "time": 118.58964658749989,
            "value": 0
          },
          {
            "number": 64,
            "time": 118.59111717499988,
            "value": 1
          },
          {
            "number": 64,
            "time": 120.70729258749988,
            "value": 0
          },
          {
            "number": 64,
            "time": 120.70876317499987,
            "value": 1
          },
          {
            "number": 64,
            "time": 122.82493858749987,
            "value": 0
          },
          {
            "number": 64,
            "time": 122.82640917499987,
            "value": 1
          },
          {
            "number": 64,
            "time": 124.94258458749987,
            "value": 0
          },
          {
            "number": 64,
            "time": 124.94405517499986,
            "value": 1
          },
          {
            "number": 64,
            "time": 127.06023058749986,
            "value": 0
          },
          {
            "number": 64,
            "time": 127.06170117499985,
            "value": 1
          },
          {
            "number": 64,
            "time": 129.17787658749987,
            "value": 0
          },
          {
            "number": 64,
            "time": 129.17934717499986,
            "value": 1
          },
          {
            "number": 64,
            "time": 131.29552258749987,
            "value": 0
          },
          {
            "number": 64,
            "time": 131.29699317499987,
            "value": 1
          },
          {
            "number": 64,
            "time": 133.41316858749988,
            "value": 0
          },
          {
            "number": 64,
            "time": 133.41463917499988,
            "value": 1
          },
          {
            "number": 64,
            "time": 135.5308145874999,
            "value": 0
          },
          {
            "number": 64,
            "time": 135.53228517499988,
            "value": 1
          },
          {
            "number": 64,
            "time": 137.6484605874999,
            "value": 0
          },
          {
            "number": 64,
            "time": 137.6499311749999,
            "value": 1
          },
          {
            "number": 64,
            "time": 139.7661065874999,
            "value": 0
          },
          {
            "number": 64,
            "time": 139.7675771749999,
            "value": 1
          },
          {
            "number": 64,
            "time": 141.8837525874999,
            "value": 0
          },
          {
            "number": 64,
            "time": 141.8852231749999,
            "value": 1
          },
          {
            "number": 64,
            "time": 144.00139858749992,
            "value": 0
          },
          {
            "number": 64,
            "time": 144.1793396749999,
            "value": 1
          },
          {
            "number": 64,
            "time": 146.11904458749984,
            "value": 0
          },
          {
            "number": 64,
            "time": 146.12051517499984,
            "value": 1
          },
          {
            "number": 64,
            "time": 148.23669058749977,
            "value": 0
          },
          {
            "number": 64,
            "time": 148.23816117499976,
            "value": 1
          },
          {
            "number": 64,
            "time": 150.3543365874997,
            "value": 0
          },
          {
            "number": 64,
            "time": 150.35580717499968,
            "value": 1
          },
          {
            "number": 64,
            "time": 152.4719825874996,
            "value": 0
          },
          {
            "number": 64,
            "time": 152.4734531749996,
            "value": 1
          },
          {
            "number": 64,
            "time": 154.58962858749953,
            "value": 0
          },
          {
            "number": 64,
            "time": 154.59109917499953,
            "value": 1
          },
          {
            "number": 64,
            "time": 156.70727458749946,
            "value": 0
          },
          {
            "number": 64,
            "time": 156.70874517499945,
            "value": 1
          },
          {
            "number": 64,
            "time": 158.82492058749938,
            "value": 0
          },
          {
            "number": 64,
            "time": 158.82639117499937,
            "value": 1
          },
          {
            "number": 64,
            "time": 160.9425665874993,
            "value": 0
          },
          {
            "number": 64,
            "time": 160.9440371749993,
            "value": 1
          },
          {
            "number": 64,
            "time": 163.06021258749922,
            "value": 0
          },
          {
            "number": 64,
            "time": 163.06168317499922,
            "value": 1
          },
          {
            "number": 64,
            "time": 165.17785858749914,
            "value": 0
          },
          {
            "number": 64,
            "time": 165.17932917499914,
            "value": 1
          },
          {
            "number": 64,
            "time": 167.29550458749907,
            "value": 0
          },
          {
            "number": 64,
            "time": 167.29697517499906,
            "value": 1
          },
          {
            "number": 64,
            "time": 169.413150587499,
            "value": 0
          },
          {
            "number": 64,
            "time": 169.41462117499898,
            "value": 1
          },
          {
            "number": 64,
            "time": 171.5307965874989,
            "value": 0
          },
          {
            "number": 64,
            "time": 171.5322671749989,
            "value": 1
          },
          {
            "number": 64,
            "time": 173.64844258749883,
            "value": 0
          },
          {
            "number": 64,
            "time": 173.64991317499883,
            "value": 1
          },
          {
            "number": 64,
            "time": 175.76608858749876,
            "value": 0
          },
          {
            "number": 64,
            "time": 175.76755917499875,
            "value": 1
          },
          {
            "number": 64,
            "time": 177.88373458749868,
            "value": 0
          },
          {
            "number": 64,
            "time": 177.88520517499867,
            "value": 1
          },
          {
            "number": 64,
            "time": 180.0013805874986,
            "value": 0
          },
          {
            "number": 64,
            "time": 180.0028511749986,
            "value": 1
          },
          {
            "number": 64,
            "time": 182.11902658749852,
            "value": 0
          },
          {
            "number": 64,
            "time": 182.12049717499852,
            "value": 1
          },
          {
            "number": 64,
            "time": 184.23667258749845,
            "value": 0
          },
          {
            "number": 64,
            "time": 184.23814317499844,
            "value": 1
          },
          {
            "number": 64,
            "time": 186.35431858749837,
            "value": 0
          },
          {
            "number": 64,
            "time": 186.35578917499836,
            "value": 1
          },
          {
            "number": 64,
            "time": 188.4719645874983,
            "value": 0
          },
          {
            "number": 64,
            "time": 188.4734351749983,
            "value": 1
          },
          {
            "number": 64,
            "time": 190.5896105874982,
            "value": 0
          },
          {
            "number": 64,
            "time": 190.5910811749982,
            "value": 1
          },
          {
            "number": 64,
            "time": 192.70725658749814,
            "value": 0
          },
          {
            "number": 64,
            "time": 192.70872717499813,
            "value": 1
          },
          {
            "number": 64,
            "time": 194.82490258749806,
            "value": 0
          },
          {
            "number": 64,
            "time": 194.82637317499805,
            "value": 1
          },
          {
            "number": 64,
            "time": 196.94254858749798,
            "value": 0
          },
          {
            "number": 64,
            "time": 196.94401917499798,
            "value": 1
          },
          {
            "number": 64,
            "time": 199.0601945874979,
            "value": 0
          },
          {
            "number": 64,
            "time": 199.0616651749979,
            "value": 1
          },
          {
            "number": 64,
            "time": 201.17784058749783,
            "value": 0
          },
          {
            "number": 64,
            "time": 201.17931117499782,
            "value": 1
          },
          {
            "number": 64,
            "time": 203.29548658749775,
            "value": 0
          },
          {
            "number": 64,
            "time": 203.29695717499774,
            "value": 1
          },
          {
            "number": 64,
            "time": 205.41313258749767,
            "value": 0
          },
          {
            "number": 64,
            "time": 205.41460317499767,
            "value": 1
          },
          {
            "number": 64,
            "time": 207.5307785874976,
            "value": 0
          },
          {
            "number": 64,
            "time": 207.5322491749976,
            "value": 1
          },
          {
            "number": 64,
            "time": 209.64842458749752,
            "value": 0
          },
          {
            "number": 64,
            "time": 209.6498951749975,
            "value": 1
          },
          {
            "number": 64,
            "time": 211.76607058749744,
            "value": 0
          },
          {
            "number": 64,
            "time": 211.76754117499743,
            "value": 1
          },
          {
            "number": 64,
            "time": 215.99989199999746,
            "value": 0
          }
        ]
      },
      "id": 1,
      "name": "Piano",
      "channelNumber": 0,
      "isPercussion": false
    }
  ]
}