{
  "header": {
    "PPQ": 480,
    "timeSignature": [
      4,
      4
    ],
    "bpm": 113.00009605008164,
    "name": ""
  },
  "tempo": [
    {
      "absoluteTime": 0,
      "seconds": 0,
      "bpm": 113.00009605008164
    }
  ],
  "timeSignature": [
    {
      "absoluteTime": 0,
      "seconds": 0,
      "numerator": 4,
      "denominator": 2,
      "click": 24,
      "notesQ": 8
    }
  ],
  "startTime": 0,
  "duration": 101.94570980625012,
  "tracks": [
    {
      "startTime": 0,
      "duration": 101.91916115625025,
      "length": 142,
      "notes": [
        {
          "name": "F#5",
          "midi": 78,
          "time": 0,
          "velocity": 0.6299212598425197,
          "duration": 0.50331815625
        },
        {
          "name": "C#5",
          "midi": 73,
          "time": 0.530973,
          "velocity": 0.6299212598425197,
          "duration": 0.5033181562500001
        },
        {
          "name": "B4",
          "midi": 71,
          "time": 3.185838,
          "velocity": 0.6299212598425197,
          "duration": 0.5033181562500002
        },
        {
          "name": "F#5",
          "midi": 78,
          "time": 4.247784,
          "velocity": 0.6299212598425197,
          "duration": 0.5033181562499998
        },
        {
          "name": "A#4",
          "midi": 70,
          "time": 4.778757,
          "velocity": 0.6299212598425197,
          "duration": 0.5033181562499998
        },
        {
          "name": "A#4",
          "midi": 70,
          "time": 6.902648999999999,
          "velocity": 0.6299212598425197,
          "duration": 0.5033181562499998
        },
        {
          "name": "G#4",
          "midi": 68,
          "time": 7.433621999999999,
          "velocity": 0.6299212598425197,
          "duration": 0.5033181562499998
        },
        {
          "name": "A#4",
          "midi": 70,
          "time": 8.495567999999999,
          "velocity": 0.6299212598425197,
          "duration": 0.5033181562499998
        },
        {
          "name": "G#4",
          "midi": 68,
          "time": 9.026540999999998,
          "velocity": 0.6299212598425197,
          "duration": 0.5033181562499998
        },
        {
          "name": "A#4",
          "midi": 70,
          "time": 11.681405999999997,
          "velocity": 0.6299212598425197,
          "duration": 0.5033181562499998
        },
        {
          "name": "C#5",
          "midi": 73,
          "time": 12.212378999999997,
          "velocity": 0.6299212598425197,
          "duration": 0.5033181562499998
        },
        {
          "name": "G#4",
          "midi": 68,
          "time": 12.743351999999996,
          "velocity": 0.6299212598425197,
          "duration": 0.5033181562499998
        },
        {
          "name": "G#4",
          "midi": 68,
          "time": 14.867243999999996,
          "velocity": 0.6299212598425197,
          "duration": 0.5033181562499998
        },
        {
          "name": "B4",
          "midi": 71,
          "time": 15.398216999999995,
          "velocity": 0.6299212598425197,
          "duration": 0.5033181562499998
        },
        {
          "name": "G#4",
          "midi": 68,
          "time": 15.929189999999995,
          "velocity": 0.6299212598425197,
          "duration": 0.5033181562499998
        },
        {
          "name": "C#5",
          "midi": 73,
          "time": 16.460162999999994,
          "velocity": 0.6299212598425197,
          "duration": 0.5033181562499998
        },
        {
          "name": "G#5",
          "midi": 80,
          "time": 16.991135999999994,
          "velocity": 0.6299212598425197,
          "duration": 0.5033181562499998
        },
        {
          "name": "D#5",
          "midi": 75,
          "time": 17.522108999999993,
          "velocity": 0.6299212598425197,
          "duration": 0.5033181562499998
        },
        {
          "name": "G#5",
          "midi": 80,
          "time": 19.11502799999999,
          "velocity": 0.6299212598425197,
          "duration": 0.5033181562499998
        },
        {
          "name": "F#5",
          "midi": 78,
          "time": 19.64600099999999,
          "velocity": 0.6299212598425197,
          "duration": 0.2511059812499994
        },
        {
          "name": "F#5",
          "midi": 78,
          "time": 19.91148749999999,
          "velocity": 0.6299212598425197,
          "duration": 0.2511059812499994
        },
        {
          "name": "E5",
          "midi": 76,
          "time": 20.44246049999999,
          "velocity": 0.6299212598425197,
          "duration": 0.2511059812499994
        },
        {
          "name": "D#5",
          "midi": 75,
          "time": 20.707946999999987,
          "velocity": 0.6299212598425197,
          "duration": 0.2511059812499994
        },
        {
          "name": "G#5",
          "midi": 80,
          "time": 20.973433499999985,
          "velocity": 0.6299212598425197,
          "duration": 0.2511059812499994
        },
        {
          "name": "D#5",
          "midi": 75,
          "time": 21.504406499999984,
          "velocity": 0.6299212598425197,
          "duration": 0.7555303312500001
        },
        {
          "name": "G#5",
          "midi": 80,
          "time": 23.362811999999984,
          "velocity": 0.6299212598425197,
          "duration": 0.2511059812499994
        },
        {
          "name": "D#5",
          "midi": 75,
          "time": 23.628298499999982,
          "velocity": 0.6299212598425197,
          "duration": 0.2511059812499994
        },
        {
          "name": "F#5",
          "midi": 78,
          "time": 23.89378499999998,
          "velocity": 0.6299212598425197,
          "duration": 0.2511059812499994
        },
        {
          "name": "F#5",
          "midi": 78,
          "time": 24.159271499999978,
          "velocity": 0.6299212598425197,
          "duration": 0.5033181562499998
        },
        {
          "name": "E5",
          "midi": 76,
          "time": 24.690244499999977,
          "velocity": 0.6299212598425197,
          "duration": 0.2511059812499994
        },
        {
          "name": "D#5",
          "midi": 75,
          "time": 24.955730999999975,
          "velocity": 0.6299212598425197,
          "duration": 0.2511059812499994
        },
        {
          "name": "G#5",
          "midi": 80,
          "time": 25.221217499999973,
          "velocity": 0.6299212598425197,
          "duration": 0.5033181562499998
        },
        {
          "name": "F#5",
          "midi": 78,
          "time": 25.752190499999973,
          "velocity": 0.6299212598425197,
          "duration": 0.2511059812499994
        },
        {
          "name": "E5",
          "midi": 76,
          "time": 26.01767699999997,
          "velocity": 0.6299212598425197,
          "duration": 0.2511059812499994
        },
        {
          "name": "D#5",
          "midi": 75,
          "time": 26.28316349999997,
          "velocity": 0.6299212598425197,
          "duration": 0.5033181562499998
        },
        {
          "name": "B4",
          "midi": 71,
          "time": 26.814136499999968,
          "velocity": 0.6299212598425197,
          "duration": 0.2511059812499994
        },
        {
          "name": "C#5",
          "midi": 73,
          "time": 27.079622999999966,
          "velocity": 0.6299212598425197,
          "duration": 0.2511059812499994
        },
        {
          "name": "D#5",
          "midi": 75,
          "time": 27.345109499999964,
          "velocity": 0.6299212598425197,
          "duration": 0.5033181562499998
        },
        {
          "name": "E5",
          "midi": 76,
          "time": 27.876082499999963,
          "velocity": 0.6299212598425197,
          "duration": 0.2511059812499994
        },
        {
          "name": "D#5",
          "midi": 75,
          "time": 28.14156899999996,
          "velocity": 0.6299212598425197,
          "duration": 0.2511059812499994
        },
        {
          "name": "C#5",
          "midi": 73,
          "time": 28.40705549999996,
          "velocity": 0.6299212598425197,
          "duration": 0.7555303312500001
        },
        {
          "name": "G#5",
          "midi": 80,
          "time": 33.98227199999996,
          "velocity": 0.6299212598425197,
          "duration": 0.5033181562500033
        },
        {
          "name": "D#5",
          "midi": 75,
          "time": 34.51324499999996,
          "velocity": 0.6299212598425197,
          "duration": 0.5033181562500033
        },
        {
          "name": "G#5",
          "midi": 80,
          "time": 36.106163999999964,
          "velocity": 0.6299212598425197,
          "duration": 0.2511059812499994
        },
        {
          "name": "F#5",
          "midi": 78,
          "time": 36.371650499999966,
          "velocity": 0.6299212598425197,
          "duration": 0.2511059812499994
        },
        {
          "name": "E5",
          "midi": 76,
          "time": 36.63713699999997,
          "velocity": 0.6299212598425197,
          "duration": 0.2511059812499994
        },
        {
          "name": "D#5",
          "midi": 75,
          "time": 36.90262349999997,
          "velocity": 0.6299212598425197,
          "duration": 0.2511059812499994
        },
        {
          "name": "D#5",
          "midi": 75,
          "time": 37.16810999999997,
          "velocity": 0.6299212598425197,
          "duration": 0.2511059812499994
        },
        {
          "name": "C#5",
          "midi": 73,
          "time": 37.43359649999997,
          "velocity": 0.6299212598425197,
          "duration": 0.2511059812499994
        },
        {
          "name": "B4",
          "midi": 71,
          "time": 37.69908299999997,
          "velocity": 0.6299212598425197,
          "duration": 0.2511059812499994
        },
        {
          "name": "G#5",
          "midi": 80,
          "time": 37.964569499999975,
          "velocity": 0.6299212598425197,
          "duration": 0.2511059812499994
        },
        {
          "name": "D#5",
          "midi": 75,
          "time": 38.49554249999997,
          "velocity": 0.6299212598425197,
          "duration": 0.2511059812499994
        },
        {
          "name": "G#5",
          "midi": 80,
          "time": 40.35394799999997,
          "velocity": 0.6299212598425197,
          "duration": 0.2511059812499994
        },
        {
          "name": "F#5",
          "midi": 78,
          "time": 40.61943449999997,
          "velocity": 0.6299212598425197,
          "duration": 0.2511059812499994
        },
        {
          "name": "E5",
          "midi": 76,
          "time": 40.88492099999997,
          "velocity": 0.6299212598425197,
          "duration": 0.2511059812499994
        },
        {
          "name": "D#5",
          "midi": 75,
          "time": 41.15040749999997,
          "velocity": 0.6299212598425197,
          "duration": 0.2511059812499994
        },
        {
          "name": "D#5",
          "midi": 75,
          "time": 41.41589399999997,
          "velocity": 0.6299212598425197,
          "duration": 0.2511059812499994
        },
        {
          "name": "C#5",
          "midi": 73,
          "time": 41.681380499999975,
          "velocity": 0.6299212598425197,
          "duration": 0.2511059812499994
        },
        {
          "name": "B4",
          "midi": 71,
          "time": 41.946866999999976,
          "velocity": 0.6299212598425197,
          "duration": 0.2511059812499994
        },
        {
          "name": "G#5",
          "midi": 80,
          "time": 42.21235349999998,
          "velocity": 0.6299212598425197,
          "duration": 0.5033181562500033
        },
        {
          "name": "F#5",
          "midi": 78,
          "time": 42.74332649999998,
          "velocity": 0.6299212598425197,
          "duration": 0.2511059812499994
        },
        {
          "name": "E5",
          "midi": 76,
          "time": 43.00881299999998,
          "velocity": 0.6299212598425197,
          "duration": 0.2511059812499994
        },
        {
          "name": "D#5",
          "midi": 75,
          "time": 43.274299499999984,
          "velocity": 0.6299212598425197,
          "duration": 0.5033181562500033
        },
        {
          "name": "B4",
          "midi": 71,
          "time": 43.80527249999999,
          "velocity": 0.6299212598425197,
          "duration": 0.2511059812499994
        },
        {
          "name": "C#5",
          "midi": 73,
          "time": 44.07075899999999,
          "velocity": 0.6299212598425197,
          "duration": 0.2511059812499994
        },
        {
          "name": "D#5",
          "midi": 75,
          "time": 44.33624549999999,
          "velocity": 0.6299212598425197,
          "duration": 0.5033181562500033
        },
        {
          "name": "E5",
          "midi": 76,
          "time": 44.86721849999999,
          "velocity": 0.6299212598425197,
          "duration": 0.2511059812499994
        },
        {
          "name": "D#5",
          "midi": 75,
          "time": 45.132704999999994,
          "velocity": 0.6299212598425197,
          "duration": 0.2511059812499994
        },
        {
          "name": "C#5",
          "midi": 73,
          "time": 45.398191499999996,
          "velocity": 0.6299212598425197,
          "duration": 0.7555303312500001
        },
        {
          "name": "G#5",
          "midi": 80,
          "time": 50.97340799999999,
          "velocity": 0.6299212598425197,
          "duration": 0.2511059812499994
        },
        {
          "name": "G#5",
          "midi": 80,
          "time": 51.238894499999994,
          "velocity": 0.6299212598425197,
          "duration": 0.2511059812499994
        },
        {
          "name": "F#5",
          "midi": 78,
          "time": 51.504380999999995,
          "velocity": 0.6299212598425197,
          "duration": 0.2511059812499994
        },
        {
          "name": "E5",
          "midi": 76,
          "time": 51.7698675,
          "velocity": 0.6299212598425197,
          "duration": 0.2511059812499994
        },
        {
          "name": "D#5",
          "midi": 75,
          "time": 52.035354,
          "velocity": 0.6299212598425197,
          "duration": 0.2511059812499994
        },
        {
          "name": "E5",
          "midi": 76,
          "time": 52.3008405,
          "velocity": 0.6299212598425197,
          "duration": 0.2511059812499994
        },
        {
          "name": "D#5",
          "midi": 75,
          "time": 52.566327,
          "velocity": 0.6299212598425197,
          "duration": 0.5033181562500033
        },
        {
          "name": "G#5",
          "midi": 80,
          "time": 54.159246,
          "velocity": 0.6299212598425197,
          "duration": 0.2511059812499994
        },
        {
          "name": "G#5",
          "midi": 80,
          "time": 54.424732500000005,
          "velocity": 0.6299212598425197,
          "duration": 0.2511059812499994
        },
        {
          "name": "F#5",
          "midi": 78,
          "time": 54.690219000000006,
          "velocity": 0.6299212598425197,
          "duration": 0.2511059812499994
        },
        {
          "name": "E5",
          "midi": 76,
          "time": 54.95570550000001,
          "velocity": 0.6299212598425197,
          "duration": 0.2511059812499994
        },
        {
          "name": "D#5",
          "midi": 75,
          "time": 55.22119200000001,
          "velocity": 0.6299212598425197,
          "duration": 0.2511059812499994
        },
        {
          "name": "E5",
          "midi": 76,
          "time": 55.48667850000001,
          "velocity": 0.6299212598425197,
          "duration": 0.2511059812499994
        },
        {
          "name": "D#5",
          "midi": 75,
          "time": 55.75216500000001,
          "velocity": 0.6299212598425197,
          "duration": 0.5033181562500033
        },
        {
          "name": "G#5",
          "midi": 80,
          "time": 57.345084000000014,
          "velocity": 0.6299212598425197,
          "duration": 0.2511059812499994
        },
        {
          "name": "G#5",
          "midi": 80,
          "time": 57.610570500000016,
          "velocity": 0.6299212598425197,
          "duration": 0.2511059812499994
        },
        {
          "name": "F#5",
          "midi": 78,
          "time": 57.87605700000002,
          "velocity": 0.6299212598425197,
          "duration": 0.2511059812499994
        },
        {
          "name": "E5",
          "midi": 76,
          "time": 58.14154350000002,
          "velocity": 0.6299212598425197,
          "duration": 0.2511059812499994
        },
        {
          "name": "D#5",
          "midi": 75,
          "time": 58.40703000000002,
          "velocity": 0.6299212598425197,
          "duration": 0.3772120687499978
        },
        {
          "name": "E5",
          "midi": 76,
          "time": 58.80525975000002,
          "velocity": 0.6299212598425197,
          "duration": 0.3772120687499978
        },
        {
          "name": "D#5",
          "midi": 75,
          "time": 59.20348950000002,
          "velocity": 0.6299212598425197,
          "duration": 0.2511059812499994
        },
        {
          "name": "C#5",
          "midi": 73,
          "time": 59.734462500000014,
          "velocity": 0.6299212598425197,
          "duration": 0.2511059812499994
        },
        {
          "name": "D#5",
          "midi": 75,
          "time": 60.13269225000001,
          "velocity": 0.6299212598425197,
          "duration": 0.3772120687499978
        },
        {
          "name": "C#5",
          "midi": 73,
          "time": 60.53092200000001,
          "velocity": 0.6299212598425197,
          "duration": 0.12499989375000098
        },
        {
          "name": "B4",
          "midi": 71,
          "time": 60.663665250000015,
          "velocity": 0.6299212598425197,
          "duration": 0.2511059812499994
        },
        {
          "name": "F#4",
          "midi": 66,
          "time": 60.92915175000002,
          "velocity": 0.6299212598425197,
          "duration": 0.6294242437500017
        },
        {
          "name": "C#5",
          "midi": 73,
          "time": 63.45127350000002,
          "velocity": 0.6299212598425197,
          "duration": 0.2511059812499994
        },
        {
          "name": "B4",
          "midi": 71,
          "time": 63.71676000000002,
          "velocity": 0.6299212598425197,
          "duration": 0.5033181562500033
        },
        {
          "name": "G#5",
          "midi": 80,
          "time": 67.96454400000003,
          "velocity": 0.6299212598425197,
          "duration": 0.2511059812500065
        },
        {
          "name": "G#5",
          "midi": 80,
          "time": 68.23003050000004,
          "velocity": 0.6299212598425197,
          "duration": 0.2511059812500065
        },
        {
          "name": "F#5",
          "midi": 78,
          "time": 68.49551700000005,
          "velocity": 0.6299212598425197,
          "duration": 0.2511059812500065
        },
        {
          "name": "E5",
          "midi": 76,
          "time": 68.76100350000006,
          "velocity": 0.6299212598425197,
          "duration": 0.2511059812500065
        },
        {
          "name": "D#5",
          "midi": 75,
          "time": 69.02649000000007,
          "velocity": 0.6299212598425197,
          "duration": 0.2511059812500065
        },
        {
          "name": "E5",
          "midi": 76,
          "time": 69.29197650000008,
          "velocity": 0.6299212598425197,
          "duration": 0.2511059812500065
        },
        {
          "name": "D#5",
          "midi": 75,
          "time": 69.55746300000008,
          "velocity": 0.6299212598425197,
          "duration": 0.5033181562500033
        },
        {
          "name": "G#5",
          "midi": 80,
          "time": 71.15038200000009,
          "velocity": 0.6299212598425197,
          "duration": 0.2511059812500065
        },
        {
          "name": "G#5",
          "midi": 80,
          "time": 71.4158685000001,
          "velocity": 0.6299212598425197,
          "duration": 0.2511059812500065
        },
        {
          "name": "F#5",
          "midi": 78,
          "time": 71.68135500000011,
          "velocity": 0.6299212598425197,
          "duration": 0.2511059812500065
        },
        {
          "name": "E5",
          "midi": 76,
          "time": 71.94684150000012,
          "velocity": 0.6299212598425197,
          "duration": 0.2511059812500065
        },
        {
          "name": "D#5",
          "midi": 75,
          "time": 72.21232800000013,
          "velocity": 0.6299212598425197,
          "duration": 0.3772120687499978
        },
        {
          "name": "E5",
          "midi": 76,
          "time": 72.61055775000013,
          "velocity": 0.6299212598425197,
          "duration": 0.3772120687499978
        },
        {
          "name": "D#5",
          "midi": 75,
          "time": 73.00878750000012,
          "velocity": 0.6299212598425197,
          "duration": 0.2511059812500065
        },
        {
          "name": "G#5",
          "midi": 80,
          "time": 74.33622000000013,
          "velocity": 0.6299212598425197,
          "duration": 0.2511059812500065
        },
        {
          "name": "G#5",
          "midi": 80,
          "time": 74.60170650000013,
          "velocity": 0.6299212598425197,
          "duration": 0.2511059812500065
        },
        {
          "name": "F#5",
          "midi": 78,
          "time": 74.86719300000014,
          "velocity": 0.6299212598425197,
          "duration": 0.2511059812500065
        },
        {
          "name": "E5",
          "midi": 76,
          "time": 75.13267950000015,
          "velocity": 0.6299212598425197,
          "duration": 0.2511059812500065
        },
        {
          "name": "D#5",
          "midi": 75,
          "time": 75.39816600000016,
          "velocity": 0.6299212598425197,
          "duration": 0.12499989375000098
        },
        {
          "name": "E5",
          "midi": 76,
          "time": 75.53090925000016,
          "velocity": 0.6299212598425197,
          "duration": 0.2511059812500065
        },
        {
          "name": "D#5",
          "midi": 75,
          "time": 75.79639575000017,
          "velocity": 0.6299212598425197,
          "duration": 0.12499989375000098
        },
        {
          "name": "C#5",
          "midi": 73,
          "time": 76.19462550000017,
          "velocity": 0.6299212598425197,
          "duration": 0.2511059812500065
        },
        {
          "name": "C#5",
          "midi": 73,
          "time": 76.46011200000018,
          "velocity": 0.6299212598425197,
          "duration": 0.3772120687499978
        },
        {
          "name": "D#5",
          "midi": 75,
          "time": 76.85834175000018,
          "velocity": 0.6299212598425197,
          "duration": 0.12499989375000098
        },
        {
          "name": "C#5",
          "midi": 73,
          "time": 77.16807600000018,
          "velocity": 0.6299212598425197,
          "duration": 0.16703525625000282
        },
        {
          "name": "B4",
          "midi": 71,
          "time": 77.34506700000018,
          "velocity": 0.6299212598425197,
          "duration": 0.16703525625000282
        },
        {
          "name": "C#5",
          "midi": 73,
          "time": 77.52205800000019,
          "velocity": 0.6299212598425197,
          "duration": 0.5033181562500033
        },
        {
          "name": "C#5",
          "midi": 73,
          "time": 80.4424095000002,
          "velocity": 0.6299212598425197,
          "duration": 0.2511059812500065
        },
        {
          "name": "B4",
          "midi": 71,
          "time": 80.7078960000002,
          "velocity": 0.6299212598425197,
          "duration": 0.5033181562500033
        },
        {
          "name": "F#5",
          "midi": 78,
          "time": 84.95568000000021,
          "velocity": 0.6299212598425197,
          "duration": 0.5033181562500033
        },
        {
          "name": "C#5",
          "midi": 73,
          "time": 85.48665300000022,
          "velocity": 0.6299212598425197,
          "duration": 0.5033181562500033
        },
        {
          "name": "B4",
          "midi": 71,
          "time": 88.14151800000022,
          "velocity": 0.6299212598425197,
          "duration": 0.5033181562500033
        },
        {
          "name": "F#5",
          "midi": 78,
          "time": 89.20346400000022,
          "velocity": 0.6299212598425197,
          "duration": 0.5033181562500033
        },
        {
          "name": "A#4",
          "midi": 70,
          "time": 89.73443700000023,
          "velocity": 0.6299212598425197,
          "duration": 0.5033181562500033
        },
        {
          "name": "A#4",
          "midi": 70,
          "time": 91.85832900000023,
          "velocity": 0.6299212598425197,
          "duration": 0.5033181562500033
        },
        {
          "name": "G#4",
          "midi": 68,
          "time": 92.38930200000023,
          "velocity": 0.6299212598425197,
          "duration": 0.5033181562500033
        },
        {
          "name": "A#4",
          "midi": 70,
          "time": 93.45124800000023,
          "velocity": 0.6299212598425197,
          "duration": 0.5033181562500033
        },
        {
          "name": "F#4",
          "midi": 66,
          "time": 93.98222100000024,
          "velocity": 0.6299212598425197,
          "duration": 0.5033181562500033
        },
        {
          "name": "A#4",
          "midi": 70,
          "time": 96.63708600000024,
          "velocity": 0.6299212598425197,
          "duration": 0.5033181562500033
        },
        {
          "name": "C#5",
          "midi": 73,
          "time": 97.16805900000024,
          "velocity": 0.6299212598425197,
          "duration": 0.5033181562500033
        },
        {
          "name": "G#4",
          "midi": 68,
          "time": 97.69903200000024,
          "velocity": 0.6299212598425197,
          "duration": 0.5033181562500033
        },
        {
          "name": "G#4",
          "midi": 68,
          "time": 99.82292400000024,
          "velocity": 0.6299212598425197,
          "duration": 0.5033181562500033
        },
        {
          "name": "B4",
          "midi": 71,
          "time": 100.35389700000025,
          "velocity": 0.6299212598425197,
          "duration": 0.5033181562500033
        },
        {
          "name": "G#4",
          "midi": 68,
          "time": 100.88487000000025,
          "velocity": 0.6299212598425197,
          "duration": 0.5033181562500033
        },
        {
          "name": "C#5",
          "midi": 73,
          "time": 101.41584300000025,
          "velocity": 0.6299212598425197,
          "duration": 0.5033181562500033
        }
      ],
      "controlChanges": {
        "7": [
          {
            "number": 7,
            "time": 0,
            "value": 0.7874015748031497
          }
        ],
        "10": [
          {
            "number": 10,
            "time": 0,
            "value": 0.49606299212598426
          }
        ],
        "91": [
          {
            "number": 91,
            "time": 0,
            "value": 0
          }
        ],
        "93": [
          {
            "number": 93,
            "time": 0,
            "value": 0
          }
        ],
        "121": [
          {
            "number": 121,
            "time": 0,
            "value": 0
          }
        ]
      },
      "id": 0,
      "name": "Piano",
      "instrumentNumber": 0,
      "instrument": "acoustic grand piano",
      "instrumentFamily": "piano",
      "channelNumber": 0,
      "isPercussion": false
    },
    {
      "startTime": 0,
      "duration": 101.94570980625012,
      "length": 271,
      "notes": [
        {
          "name": "E3",
          "midi": 52,
          "time": 0,
          "velocity": 0.6299212598425197,
          "duration": 0.37721206875
        },
        {
          "name": "B3",
          "midi": 59,
          "time": 0.39822975,
          "velocity": 0.6299212598425197,
          "duration": 0.12499989375000004
        },
        {
          "name": "C#4",
          "midi": 61,
          "time": 0.7964595000000001,
          "velocity": 0.6299212598425197,
          "duration": 0.25110598125000005
        },
        {
          "name": "E3",
          "midi": 52,
          "time": 1.061946,
          "velocity": 0.6299212598425197,
          "duration": 0.37721206875
        },
        {
          "name": "B3",
          "midi": 59,
          "time": 1.46017575,
          "velocity": 0.6299212598425197,
          "duration": 0.12499989375000009
        },
        {
          "name": "C#4",
          "midi": 61,
          "time": 1.8584055000000002,
          "velocity": 0.6299212598425197,
          "duration": 0.25110598125000005
        },
        {
          "name": "E3",
          "midi": 52,
          "time": 2.123892,
          "velocity": 0.6299212598425197,
          "duration": 0.37721206875
        },
        {
          "name": "B3",
          "midi": 59,
          "time": 2.52212175,
          "velocity": 0.6299212598425197,
          "duration": 0.12499989375000009
        },
        {
          "name": "C#4",
          "midi": 61,
          "time": 2.9203515,
          "velocity": 0.6299212598425197,
          "duration": 0.25110598124999983
        },
        {
          "name": "E3",
          "midi": 52,
          "time": 3.185838,
          "velocity": 0.6299212598425197,
          "duration": 0.37721206875
        },
        {
          "name": "B3",
          "midi": 59,
          "time": 3.58406775,
          "velocity": 0.6299212598425197,
          "duration": 0.12499989375000009
        },
        {
          "name": "C#4",
          "midi": 61,
          "time": 3.9822975,
          "velocity": 0.6299212598425197,
          "duration": 0.25110598124999983
        },
        {
          "name": "C#3",
          "midi": 49,
          "time": 4.247784,
          "velocity": 0.6299212598425197,
          "duration": 0.37721206875000046
        },
        {
          "name": "B3",
          "midi": 59,
          "time": 4.646013750000001,
          "velocity": 0.6299212598425197,
          "duration": 0.12499989375000009
        },
        {
          "name": "C#4",
          "midi": 61,
          "time": 5.044243500000001,
          "velocity": 0.6299212598425197,
          "duration": 0.2511059812500003
        },
        {
          "name": "C#3",
          "midi": 49,
          "time": 5.309730000000002,
          "velocity": 0.6299212598425197,
          "duration": 0.3772120687499996
        },
        {
          "name": "B3",
          "midi": 59,
          "time": 5.707959750000001,
          "velocity": 0.6299212598425197,
          "duration": 0.12499989375000009
        },
        {
          "name": "C#4",
          "midi": 61,
          "time": 6.106189500000002,
          "velocity": 0.6299212598425197,
          "duration": 0.2511059812500003
        },
        {
          "name": "C#3",
          "midi": 49,
          "time": 6.371676000000003,
          "velocity": 0.6299212598425197,
          "duration": 0.3772120687499996
        },
        {
          "name": "B3",
          "midi": 59,
          "time": 6.769905750000002,
          "velocity": 0.6299212598425197,
          "duration": 0.12499989375000009
        },
        {
          "name": "C#4",
          "midi": 61,
          "time": 7.168135500000003,
          "velocity": 0.6299212598425197,
          "duration": 0.2511059812500003
        },
        {
          "name": "C#3",
          "midi": 49,
          "time": 7.433622000000003,
          "velocity": 0.6299212598425197,
          "duration": 0.3772120687499996
        },
        {
          "name": "B3",
          "midi": 59,
          "time": 7.831851750000003,
          "velocity": 0.6299212598425197,
          "duration": 0.12499989375000009
        },
        {
          "name": "C#4",
          "midi": 61,
          "time": 8.230081500000002,
          "velocity": 0.6299212598425197,
          "duration": 0.2511059812499994
        },
        {
          "name": "D#3",
          "midi": 51,
          "time": 8.495568000000002,
          "velocity": 0.6299212598425197,
          "duration": 0.3772120687499996
        },
        {
          "name": "A#3",
          "midi": 58,
          "time": 8.893797750000001,
          "velocity": 0.6299212598425197,
          "duration": 0.1249998937499992
        },
        {
          "name": "C#4",
          "midi": 61,
          "time": 9.2920275,
          "velocity": 0.6299212598425197,
          "duration": 0.2511059812499994
        },
        {
          "name": "D#3",
          "midi": 51,
          "time": 9.557514,
          "velocity": 0.6299212598425197,
          "duration": 0.3772120687499996
        },
        {
          "name": "A#3",
          "midi": 58,
          "time": 9.955743749999998,
          "velocity": 0.6299212598425197,
          "duration": 0.1249998937499992
        },
        {
          "name": "C#4",
          "midi": 61,
          "time": 10.353973499999997,
          "velocity": 0.6299212598425197,
          "duration": 0.2511059812499994
        },
        {
          "name": "D#3",
          "midi": 51,
          "time": 10.619459999999997,
          "velocity": 0.6299212598425197,
          "duration": 0.3772120687499996
        },
        {
          "name": "A#3",
          "midi": 58,
          "time": 11.017689749999995,
          "velocity": 0.6299212598425197,
          "duration": 0.1249998937499992
        },
        {
          "name": "C#4",
          "midi": 61,
          "time": 11.415919499999994,
          "velocity": 0.6299212598425197,
          "duration": 0.2511059812499994
        },
        {
          "name": "D#3",
          "midi": 51,
          "time": 11.681405999999994,
          "velocity": 0.6299212598425197,
          "duration": 0.3772120687499996
        },
        {
          "name": "A#3",
          "midi": 58,
          "time": 12.079635749999992,
          "velocity": 0.6299212598425197,
          "duration": 0.1249998937499992
        },
        {
          "name": "C#4",
          "midi": 61,
          "time": 12.477865499999991,
          "velocity": 0.6299212598425197,
          "duration": 0.2511059812499994
        },
        {
          "name": "G#3",
          "midi": 56,
          "time": 12.743351999999991,
          "velocity": 0.6299212598425197,
          "duration": 0.3772120687499996
        },
        {
          "name": "F#4",
          "midi": 66,
          "time": 13.14158174999999,
          "velocity": 0.6299212598425197,
          "duration": 0.1249998937499992
        },
        {
          "name": "G#4",
          "midi": 68,
          "time": 13.539811499999988,
          "velocity": 0.6299212598425197,
          "duration": 0.2511059812499994
        },
        {
          "name": "G#3",
          "midi": 56,
          "time": 13.805297999999988,
          "velocity": 0.6299212598425197,
          "duration": 0.3772120687499996
        },
        {
          "name": "F#4",
          "midi": 66,
          "time": 14.203527749999987,
          "velocity": 0.6299212598425197,
          "duration": 0.1249998937499992
        },
        {
          "name": "G#4",
          "midi": 68,
          "time": 14.601757499999986,
          "velocity": 0.6299212598425197,
          "duration": 0.2511059812499994
        },
        {
          "name": "C#3",
          "midi": 49,
          "time": 14.867243999999985,
          "velocity": 0.6299212598425197,
          "duration": 0.3772120687499996
        },
        {
          "name": "B3",
          "midi": 59,
          "time": 15.265473749999984,
          "velocity": 0.6299212598425197,
          "duration": 0.1249998937499992
        },
        {
          "name": "C#4",
          "midi": 61,
          "time": 15.663703499999983,
          "velocity": 0.6299212598425197,
          "duration": 0.2511059812499994
        },
        {
          "name": "C#3",
          "midi": 49,
          "time": 15.929189999999982,
          "velocity": 0.6299212598425197,
          "duration": 0.3772120687499996
        },
        {
          "name": "B3",
          "midi": 59,
          "time": 16.327419749999983,
          "velocity": 0.6299212598425197,
          "duration": 0.12499989375000098
        },
        {
          "name": "C#4",
          "midi": 61,
          "time": 16.725649499999985,
          "velocity": 0.6299212598425197,
          "duration": 0.2511059812499994
        },
        {
          "name": "C#3",
          "midi": 49,
          "time": 16.991135999999983,
          "velocity": 0.6299212598425197,
          "duration": 0.37721206875000135
        },
        {
          "name": "B3",
          "midi": 59,
          "time": 17.389365749999985,
          "velocity": 0.6299212598425197,
          "duration": 0.12499989375000098
        },
        {
          "name": "C#4",
          "midi": 61,
          "time": 17.787595499999988,
          "velocity": 0.6299212598425197,
          "duration": 0.2511059812499994
        },
        {
          "name": "C#3",
          "midi": 49,
          "time": 18.053081999999986,
          "velocity": 0.6299212598425197,
          "duration": 0.37721206875000135
        },
        {
          "name": "B3",
          "midi": 59,
          "time": 18.451311749999988,
          "velocity": 0.6299212598425197,
          "duration": 0.12499989375000098
        },
        {
          "name": "C#4",
          "midi": 61,
          "time": 18.84954149999999,
          "velocity": 0.6299212598425197,
          "duration": 0.2511059812499994
        },
        {
          "name": "E3",
          "midi": 52,
          "time": 19.115027999999988,
          "velocity": 0.6299212598425197,
          "duration": 0.37721206875000135
        },
        {
          "name": "B3",
          "midi": 59,
          "time": 19.51325774999999,
          "velocity": 0.6299212598425197,
          "duration": 0.12499989375000098
        },
        {
          "name": "C#4",
          "midi": 61,
          "time": 19.911487499999993,
          "velocity": 0.6299212598425197,
          "duration": 0.2511059812499994
        },
        {
          "name": "E3",
          "midi": 52,
          "time": 20.17697399999999,
          "velocity": 0.6299212598425197,
          "duration": 0.37721206875000135
        },
        {
          "name": "B3",
          "midi": 59,
          "time": 20.575203749999993,
          "velocity": 0.6299212598425197,
          "duration": 0.12499989375000098
        },
        {
          "name": "C#4",
          "midi": 61,
          "time": 20.973433499999995,
          "velocity": 0.6299212598425197,
          "duration": 0.2511059812499994
        },
        {
          "name": "C#3",
          "midi": 49,
          "time": 21.238919999999993,
          "velocity": 0.6299212598425197,
          "duration": 0.37721206875000135
        },
        {
          "name": "B3",
          "midi": 59,
          "time": 21.637149749999995,
          "velocity": 0.6299212598425197,
          "duration": 0.12499989375000098
        },
        {
          "name": "C#4",
          "midi": 61,
          "time": 22.035379499999998,
          "velocity": 0.6299212598425197,
          "duration": 0.2511059812499994
        },
        {
          "name": "C#3",
          "midi": 49,
          "time": 22.300865999999996,
          "velocity": 0.6299212598425197,
          "duration": 0.37721206875000135
        },
        {
          "name": "B3",
          "midi": 59,
          "time": 22.699095749999998,
          "velocity": 0.6299212598425197,
          "duration": 0.12499989375000098
        },
        {
          "name": "C#4",
          "midi": 61,
          "time": 23.0973255,
          "velocity": 0.6299212598425197,
          "duration": 0.2511059812499994
        },
        {
          "name": "C#3",
          "midi": 49,
          "time": 23.362811999999998,
          "velocity": 0.6299212598425197,
          "duration": 0.37721206875000135
        },
        {
          "name": "B3",
          "midi": 59,
          "time": 23.76104175,
          "velocity": 0.6299212598425197,
          "duration": 0.12499989375000098
        },
        {
          "name": "C#4",
          "midi": 61,
          "time": 24.159271500000003,
          "velocity": 0.6299212598425197,
          "duration": 0.2511059812499994
        },
        {
          "name": "C#3",
          "midi": 49,
          "time": 24.424758,
          "velocity": 0.6299212598425197,
          "duration": 0.37721206875000135
        },
        {
          "name": "B3",
          "midi": 59,
          "time": 24.822987750000003,
          "velocity": 0.6299212598425197,
          "duration": 0.12499989375000098
        },
        {
          "name": "A#3",
          "midi": 58,
          "time": 25.221217500000005,
          "velocity": 0.6299212598425197,
          "duration": 0.2511059812499994
        },
        {
          "name": "D#3",
          "midi": 51,
          "time": 25.486704000000003,
          "velocity": 0.6299212598425197,
          "duration": 0.37721206875000135
        },
        {
          "name": "A#3",
          "midi": 58,
          "time": 25.884933750000005,
          "velocity": 0.6299212598425197,
          "duration": 0.12499989375000098
        },
        {
          "name": "B3",
          "midi": 59,
          "time": 26.283163500000008,
          "velocity": 0.6299212598425197,
          "duration": 0.2511059812499994
        },
        {
          "name": "D#3",
          "midi": 51,
          "time": 26.548650000000006,
          "velocity": 0.6299212598425197,
          "duration": 0.37721206875000135
        },
        {
          "name": "A#3",
          "midi": 58,
          "time": 26.946879750000008,
          "velocity": 0.6299212598425197,
          "duration": 0.12499989375000098
        },
        {
          "name": "B3",
          "midi": 59,
          "time": 27.34510950000001,
          "velocity": 0.6299212598425197,
          "duration": 0.2511059812499994
        },
        {
          "name": "D#3",
          "midi": 51,
          "time": 27.610596000000008,
          "velocity": 0.6299212598425197,
          "duration": 0.37721206875000135
        },
        {
          "name": "A#3",
          "midi": 58,
          "time": 28.00882575000001,
          "velocity": 0.6299212598425197,
          "duration": 0.12499989375000098
        },
        {
          "name": "B3",
          "midi": 59,
          "time": 28.407055500000013,
          "velocity": 0.6299212598425197,
          "duration": 0.2511059812499994
        },
        {
          "name": "D#3",
          "midi": 51,
          "time": 28.67254200000001,
          "velocity": 0.6299212598425197,
          "duration": 0.37721206875000135
        },
        {
          "name": "A#3",
          "midi": 58,
          "time": 29.070771750000013,
          "velocity": 0.6299212598425197,
          "duration": 0.12499989375000098
        },
        {
          "name": "B3",
          "midi": 59,
          "time": 29.469001500000015,
          "velocity": 0.6299212598425197,
          "duration": 0.2511059812499994
        },
        {
          "name": "G#3",
          "midi": 56,
          "time": 29.734488000000013,
          "velocity": 0.6299212598425197,
          "duration": 0.37721206875000135
        },
        {
          "name": "F#4",
          "midi": 66,
          "time": 30.132717750000015,
          "velocity": 0.6299212598425197,
          "duration": 0.12499989375000098
        },
        {
          "name": "G#4",
          "midi": 68,
          "time": 30.530947500000018,
          "velocity": 0.6299212598425197,
          "duration": 0.2511059812499994
        },
        {
          "name": "G#3",
          "midi": 56,
          "time": 30.796434000000016,
          "velocity": 0.6299212598425197,
          "duration": 0.37721206875000135
        },
        {
          "name": "F#4",
          "midi": 66,
          "time": 31.194663750000018,
          "velocity": 0.6299212598425197,
          "duration": 0.12499989375000098
        },
        {
          "name": "G#4",
          "midi": 68,
          "time": 31.59289350000002,
          "velocity": 0.6299212598425197,
          "duration": 0.2511059812499994
        },
        {
          "name": "E3",
          "midi": 52,
          "time": 31.858380000000018,
          "velocity": 0.6299212598425197,
          "duration": 0.3772120687499978
        },
        {
          "name": "B3",
          "midi": 59,
          "time": 32.25660975000002,
          "velocity": 0.6299212598425197,
          "duration": 0.12499989375000098
        },
        {
          "name": "C#4",
          "midi": 61,
          "time": 32.654839500000016,
          "velocity": 0.6299212598425197,
          "duration": 0.2511059812499994
        },
        {
          "name": "E3",
          "midi": 52,
          "time": 32.92032600000002,
          "velocity": 0.6299212598425197,
          "duration": 0.3772120687499978
        },
        {
          "name": "B3",
          "midi": 59,
          "time": 33.318555750000016,
          "velocity": 0.6299212598425197,
          "duration": 0.12499989375000098
        },
        {
          "name": "C#4",
          "midi": 61,
          "time": 33.716785500000015,
          "velocity": 0.6299212598425197,
          "duration": 0.2511059812499994
        },
        {
          "name": "E3",
          "midi": 52,
          "time": 33.982272000000016,
          "velocity": 0.6299212598425197,
          "duration": 0.3772120687499978
        },
        {
          "name": "B3",
          "midi": 59,
          "time": 34.380501750000015,
          "velocity": 0.6299212598425197,
          "duration": 0.12499989375000098
        },
        {
          "name": "C#4",
          "midi": 61,
          "time": 34.77873150000001,
          "velocity": 0.6299212598425197,
          "duration": 0.2511059812499994
        },
        {
          "name": "E3",
          "midi": 52,
          "time": 35.044218000000015,
          "velocity": 0.6299212598425197,
          "duration": 0.3772120687499978
        },
        {
          "name": "B3",
          "midi": 59,
          "time": 35.442447750000014,
          "velocity": 0.6299212598425197,
          "duration": 0.12499989375000098
        },
        {
          "name": "C#4",
          "midi": 61,
          "time": 35.84067750000001,
          "velocity": 0.6299212598425197,
          "duration": 0.2511059812499994
        },
        {
          "name": "E3",
          "midi": 52,
          "time": 36.106164000000014,
          "velocity": 0.6299212598425197,
          "duration": 0.3772120687499978
        },
        {
          "name": "B3",
          "midi": 59,
          "time": 36.50439375000001,
          "velocity": 0.6299212598425197,
          "duration": 0.12499989375000098
        },
        {
          "name": "C#4",
          "midi": 61,
          "time": 36.90262350000001,
          "velocity": 0.6299212598425197,
          "duration": 0.2511059812499994
        },
        {
          "name": "E3",
          "midi": 52,
          "time": 37.16811000000001,
          "velocity": 0.6299212598425197,
          "duration": 0.3772120687499978
        },
        {
          "name": "B3",
          "midi": 59,
          "time": 37.56633975000001,
          "velocity": 0.6299212598425197,
          "duration": 0.12499989375000098
        },
        {
          "name": "C#4",
          "midi": 61,
          "time": 37.96456950000001,
          "velocity": 0.6299212598425197,
          "duration": 0.2511059812499994
        },
        {
          "name": "E3",
          "midi": 52,
          "time": 38.23005600000001,
          "velocity": 0.6299212598425197,
          "duration": 0.3772120687499978
        },
        {
          "name": "B3",
          "midi": 59,
          "time": 38.62828575000001,
          "velocity": 0.6299212598425197,
          "duration": 0.12499989375000098
        },
        {
          "name": "C#4",
          "midi": 61,
          "time": 39.02651550000001,
          "velocity": 0.6299212598425197,
          "duration": 0.2511059812499994
        },
        {
          "name": "E3",
          "midi": 52,
          "time": 39.29200200000001,
          "velocity": 0.6299212598425197,
          "duration": 0.3772120687499978
        },
        {
          "name": "B3",
          "midi": 59,
          "time": 39.69023175000001,
          "velocity": 0.6299212598425197,
          "duration": 0.12499989375000098
        },
        {
          "name": "C#4",
          "midi": 61,
          "time": 40.08846150000001,
          "velocity": 0.6299212598425197,
          "duration": 0.2511059812499994
        },
        {
          "name": "E3",
          "midi": 52,
          "time": 40.35394800000001,
          "velocity": 0.6299212598425197,
          "duration": 0.3772120687499978
        },
        {
          "name": "B3",
          "midi": 59,
          "time": 40.75217775000001,
          "velocity": 0.6299212598425197,
          "duration": 0.12499989375000098
        },
        {
          "name": "C#4",
          "midi": 61,
          "time": 41.15040750000001,
          "velocity": 0.6299212598425197,
          "duration": 0.2511059812499994
        },
        {
          "name": "E3",
          "midi": 52,
          "time": 41.41589400000001,
          "velocity": 0.6299212598425197,
          "duration": 0.3772120687499978
        },
        {
          "name": "B3",
          "midi": 59,
          "time": 41.81412375000001,
          "velocity": 0.6299212598425197,
          "duration": 0.12499989375000098
        },
        {
          "name": "C#4",
          "midi": 61,
          "time": 42.212353500000006,
          "velocity": 0.6299212598425197,
          "duration": 0.2511059812499994
        },
        {
          "name": "D#3",
          "midi": 51,
          "time": 42.47784000000001,
          "velocity": 0.6299212598425197,
          "duration": 0.3772120687499978
        },
        {
          "name": "A#3",
          "midi": 58,
          "time": 42.876069750000006,
          "velocity": 0.6299212598425197,
          "duration": 0.12499989375000098
        },
        {
          "name": "B3",
          "midi": 59,
          "time": 43.274299500000005,
          "velocity": 0.6299212598425197,
          "duration": 0.2511059812499994
        },
        {
          "name": "D#3",
          "midi": 51,
          "time": 43.53978600000001,
          "velocity": 0.6299212598425197,
          "duration": 0.3772120687499978
        },
        {
          "name": "A#3",
          "midi": 58,
          "time": 43.938015750000005,
          "velocity": 0.6299212598425197,
          "duration": 0.12499989375000098
        },
        {
          "name": "B3",
          "midi": 59,
          "time": 44.336245500000004,
          "velocity": 0.6299212598425197,
          "duration": 0.2511059812499994
        },
        {
          "name": "D#3",
          "midi": 51,
          "time": 44.601732000000005,
          "velocity": 0.6299212598425197,
          "duration": 0.3772120687499978
        },
        {
          "name": "A#3",
          "midi": 58,
          "time": 44.999961750000004,
          "velocity": 0.6299212598425197,
          "duration": 0.12499989375000098
        },
        {
          "name": "B3",
          "midi": 59,
          "time": 45.3981915,
          "velocity": 0.6299212598425197,
          "duration": 0.2511059812499994
        },
        {
          "name": "D#3",
          "midi": 51,
          "time": 45.663678000000004,
          "velocity": 0.6299212598425197,
          "duration": 0.3772120687499978
        },
        {
          "name": "A#3",
          "midi": 58,
          "time": 46.06190775,
          "velocity": 0.6299212598425197,
          "duration": 0.12499989375000098
        },
        {
          "name": "B3",
          "midi": 59,
          "time": 46.4601375,
          "velocity": 0.6299212598425197,
          "duration": 0.2511059812499994
        },
        {
          "name": "G#3",
          "midi": 56,
          "time": 46.725624,
          "velocity": 0.6299212598425197,
          "duration": 0.3772120687499978
        },
        {
          "name": "F#4",
          "midi": 66,
          "time": 47.12385375,
          "velocity": 0.6299212598425197,
          "duration": 0.12499989375000098
        },
        {
          "name": "G#4",
          "midi": 68,
          "time": 47.5220835,
          "velocity": 0.6299212598425197,
          "duration": 0.2511059812499994
        },
        {
          "name": "G#3",
          "midi": 56,
          "time": 47.78757,
          "velocity": 0.6299212598425197,
          "duration": 0.3772120687499978
        },
        {
          "name": "F#4",
          "midi": 66,
          "time": 48.18579975,
          "velocity": 0.6299212598425197,
          "duration": 0.12499989375000098
        },
        {
          "name": "G#4",
          "midi": 68,
          "time": 48.5840295,
          "velocity": 0.6299212598425197,
          "duration": 0.2511059812499994
        },
        {
          "name": "E3",
          "midi": 52,
          "time": 48.849516,
          "velocity": 0.6299212598425197,
          "duration": 0.3772120687499978
        },
        {
          "name": "B3",
          "midi": 59,
          "time": 49.24774575,
          "velocity": 0.6299212598425197,
          "duration": 0.12499989375000098
        },
        {
          "name": "C#4",
          "midi": 61,
          "time": 49.6459755,
          "velocity": 0.6299212598425197,
          "duration": 0.2511059812499994
        },
        {
          "name": "E3",
          "midi": 52,
          "time": 49.911462,
          "velocity": 0.6299212598425197,
          "duration": 0.3772120687499978
        },
        {
          "name": "B3",
          "midi": 59,
          "time": 50.30969175,
          "velocity": 0.6299212598425197,
          "duration": 0.12499989375000098
        },
        {
          "name": "C#4",
          "midi": 61,
          "time": 50.7079215,
          "velocity": 0.6299212598425197,
          "duration": 0.2511059812499994
        },
        {
          "name": "E3",
          "midi": 52,
          "time": 50.973408,
          "velocity": 0.6299212598425197,
          "duration": 0.3772120687499978
        },
        {
          "name": "B3",
          "midi": 59,
          "time": 51.37163775,
          "velocity": 0.6299212598425197,
          "duration": 0.12499989375000098
        },
        {
          "name": "C#4",
          "midi": 61,
          "time": 51.7698675,
          "velocity": 0.6299212598425197,
          "duration": 0.2511059812499994
        },
        {
          "name": "E3",
          "midi": 52,
          "time": 52.035354,
          "velocity": 0.6299212598425197,
          "duration": 0.3772120687499978
        },
        {
          "name": "B3",
          "midi": 59,
          "time": 52.43358375,
          "velocity": 0.6299212598425197,
          "duration": 0.12499989375000098
        },
        {
          "name": "C#4",
          "midi": 61,
          "time": 52.831813499999996,
          "velocity": 0.6299212598425197,
          "duration": 0.2511059812499994
        },
        {
          "name": "E3",
          "midi": 52,
          "time": 53.0973,
          "velocity": 0.6299212598425197,
          "duration": 0.3772120687499978
        },
        {
          "name": "B3",
          "midi": 59,
          "time": 53.495529749999996,
          "velocity": 0.6299212598425197,
          "duration": 0.12499989375000098
        },
        {
          "name": "C#4",
          "midi": 61,
          "time": 53.893759499999994,
          "velocity": 0.6299212598425197,
          "duration": 0.2511059812499994
        },
        {
          "name": "E3",
          "midi": 52,
          "time": 54.159245999999996,
          "velocity": 0.6299212598425197,
          "duration": 0.3772120687499978
        },
        {
          "name": "B3",
          "midi": 59,
          "time": 54.557475749999995,
          "velocity": 0.6299212598425197,
          "duration": 0.12499989375000098
        },
        {
          "name": "C#4",
          "midi": 61,
          "time": 54.95570549999999,
          "velocity": 0.6299212598425197,
          "duration": 0.2511059812499994
        },
        {
          "name": "C#3",
          "midi": 49,
          "time": 55.221191999999995,
          "velocity": 0.6299212598425197,
          "duration": 0.3772120687499978
        },
        {
          "name": "B3",
          "midi": 59,
          "time": 55.619421749999994,
          "velocity": 0.6299212598425197,
          "duration": 0.12499989375000098
        },
        {
          "name": "C#4",
          "midi": 61,
          "time": 56.01765149999999,
          "velocity": 0.6299212598425197,
          "duration": 0.2511059812499994
        },
        {
          "name": "C#3",
          "midi": 49,
          "time": 56.283137999999994,
          "velocity": 0.6299212598425197,
          "duration": 0.3772120687499978
        },
        {
          "name": "B3",
          "midi": 59,
          "time": 56.68136774999999,
          "velocity": 0.6299212598425197,
          "duration": 0.12499989375000098
        },
        {
          "name": "C#4",
          "midi": 61,
          "time": 57.07959749999999,
          "velocity": 0.6299212598425197,
          "duration": 0.2511059812499994
        },
        {
          "name": "C#3",
          "midi": 49,
          "time": 57.34508399999999,
          "velocity": 0.6299212598425197,
          "duration": 0.3772120687499978
        },
        {
          "name": "B3",
          "midi": 59,
          "time": 57.74331374999999,
          "velocity": 0.6299212598425197,
          "duration": 0.12499989375000098
        },
        {
          "name": "C#4",
          "midi": 61,
          "time": 58.14154349999999,
          "velocity": 0.6299212598425197,
          "duration": 0.2511059812499994
        },
        {
          "name": "C#3",
          "midi": 49,
          "time": 58.40702999999999,
          "velocity": 0.6299212598425197,
          "duration": 0.3772120687499978
        },
        {
          "name": "B3",
          "midi": 59,
          "time": 58.80525974999999,
          "velocity": 0.6299212598425197,
          "duration": 0.12499989375000098
        },
        {
          "name": "A#3",
          "midi": 58,
          "time": 59.20348949999999,
          "velocity": 0.6299212598425197,
          "duration": 0.2511059812499994
        },
        {
          "name": "D#3",
          "midi": 51,
          "time": 59.46897599999999,
          "velocity": 0.6299212598425197,
          "duration": 0.3772120687499978
        },
        {
          "name": "A#3",
          "midi": 58,
          "time": 59.86720574999999,
          "velocity": 0.6299212598425197,
          "duration": 0.12499989375000098
        },
        {
          "name": "B3",
          "midi": 59,
          "time": 60.26543549999999,
          "velocity": 0.6299212598425197,
          "duration": 0.2511059812499994
        },
        {
          "name": "D#3",
          "midi": 51,
          "time": 60.53092199999999,
          "velocity": 0.6299212598425197,
          "duration": 0.3772120687499978
        },
        {
          "name": "A#3",
          "midi": 58,
          "time": 60.92915174999999,
          "velocity": 0.6299212598425197,
          "duration": 0.12499989375000098
        },
        {
          "name": "B3",
          "midi": 59,
          "time": 61.32738149999999,
          "velocity": 0.6299212598425197,
          "duration": 0.2511059812499994
        },
        {
          "name": "D#3",
          "midi": 51,
          "time": 61.59286799999999,
          "velocity": 0.6299212598425197,
          "duration": 0.3772120687499978
        },
        {
          "name": "A#3",
          "midi": 58,
          "time": 61.99109774999999,
          "velocity": 0.6299212598425197,
          "duration": 0.12499989375000098
        },
        {
          "name": "B3",
          "midi": 59,
          "time": 62.389327499999986,
          "velocity": 0.6299212598425197,
          "duration": 0.2511059812499994
        },
        {
          "name": "D#3",
          "midi": 51,
          "time": 62.65481399999999,
          "velocity": 0.6299212598425197,
          "duration": 0.3772120687499978
        },
        {
          "name": "A#3",
          "midi": 58,
          "time": 63.053043749999986,
          "velocity": 0.6299212598425197,
          "duration": 0.12499989375000098
        },
        {
          "name": "B3",
          "midi": 59,
          "time": 63.451273499999985,
          "velocity": 0.6299212598425197,
          "duration": 0.2511059812499994
        },
        {
          "name": "G#3",
          "midi": 56,
          "time": 63.71675999999999,
          "velocity": 0.6299212598425197,
          "duration": 0.3772120687500049
        },
        {
          "name": "F#4",
          "midi": 66,
          "time": 64.11498974999999,
          "velocity": 0.6299212598425197,
          "duration": 0.12499989375000098
        },
        {
          "name": "G#4",
          "midi": 68,
          "time": 64.51321949999999,
          "velocity": 0.6299212598425197,
          "duration": 0.2511059812500065
        },
        {
          "name": "G#3",
          "midi": 56,
          "time": 64.778706,
          "velocity": 0.6299212598425197,
          "duration": 0.3772120687499978
        },
        {
          "name": "F#4",
          "midi": 66,
          "time": 65.17693575,
          "velocity": 0.6299212598425197,
          "duration": 0.12499989375000098
        },
        {
          "name": "G#4",
          "midi": 68,
          "time": 65.5751655,
          "velocity": 0.6299212598425197,
          "duration": 0.2511059812500065
        },
        {
          "name": "E3",
          "midi": 52,
          "time": 65.840652,
          "velocity": 0.6299212598425197,
          "duration": 0.3772120687499978
        },
        {
          "name": "B3",
          "midi": 59,
          "time": 66.23888175,
          "velocity": 0.6299212598425197,
          "duration": 0.12499989375000098
        },
        {
          "name": "C#4",
          "midi": 61,
          "time": 66.6371115,
          "velocity": 0.6299212598425197,
          "duration": 0.2511059812500065
        },
        {
          "name": "E3",
          "midi": 52,
          "time": 66.90259800000001,
          "velocity": 0.6299212598425197,
          "duration": 0.3772120687499978
        },
        {
          "name": "B3",
          "midi": 59,
          "time": 67.30082775000001,
          "velocity": 0.6299212598425197,
          "duration": 0.12499989375000098
        },
        {
          "name": "C#4",
          "midi": 61,
          "time": 67.69905750000001,
          "velocity": 0.6299212598425197,
          "duration": 0.2511059812500065
        },
        {
          "name": "E3",
          "midi": 52,
          "time": 67.96454400000002,
          "velocity": 0.6299212598425197,
          "duration": 0.3772120687499978
        },
        {
          "name": "B3",
          "midi": 59,
          "time": 68.36277375000002,
          "velocity": 0.6299212598425197,
          "duration": 0.12499989375000098
        },
        {
          "name": "C#4",
          "midi": 61,
          "time": 68.76100350000002,
          "velocity": 0.6299212598425197,
          "duration": 0.2511059812500065
        },
        {
          "name": "E3",
          "midi": 52,
          "time": 69.02649000000002,
          "velocity": 0.6299212598425197,
          "duration": 0.3772120687499978
        },
        {
          "name": "B3",
          "midi": 59,
          "time": 69.42471975000002,
          "velocity": 0.6299212598425197,
          "duration": 0.12499989375000098
        },
        {
          "name": "C#4",
          "midi": 61,
          "time": 69.82294950000002,
          "velocity": 0.6299212598425197,
          "duration": 0.2511059812500065
        },
        {
          "name": "E3",
          "midi": 52,
          "time": 70.08843600000003,
          "velocity": 0.6299212598425197,
          "duration": 0.3772120687499978
        },
        {
          "name": "B3",
          "midi": 59,
          "time": 70.48666575000003,
          "velocity": 0.6299212598425197,
          "duration": 0.12499989375000098
        },
        {
          "name": "C#4",
          "midi": 61,
          "time": 70.88489550000003,
          "velocity": 0.6299212598425197,
          "duration": 0.2511059812500065
        },
        {
          "name": "E3",
          "midi": 52,
          "time": 71.15038200000004,
          "velocity": 0.6299212598425197,
          "duration": 0.3772120687499978
        },
        {
          "name": "B3",
          "midi": 59,
          "time": 71.54861175000003,
          "velocity": 0.6299212598425197,
          "duration": 0.12499989375000098
        },
        {
          "name": "C#4",
          "midi": 61,
          "time": 71.94684150000003,
          "velocity": 0.6299212598425197,
          "duration": 0.2511059812500065
        },
        {
          "name": "C#3",
          "midi": 49,
          "time": 72.21232800000004,
          "velocity": 0.6299212598425197,
          "duration": 0.3772120687499978
        },
        {
          "name": "B3",
          "midi": 59,
          "time": 72.61055775000004,
          "velocity": 0.6299212598425197,
          "duration": 0.12499989375000098
        },
        {
          "name": "C#4",
          "midi": 61,
          "time": 73.00878750000004,
          "velocity": 0.6299212598425197,
          "duration": 0.2511059812500065
        },
        {
          "name": "C#3",
          "midi": 49,
          "time": 73.27427400000005,
          "velocity": 0.6299212598425197,
          "duration": 0.3772120687499978
        },
        {
          "name": "B3",
          "midi": 59,
          "time": 73.67250375000005,
          "velocity": 0.6299212598425197,
          "duration": 0.12499989375000098
        },
        {
          "name": "C#4",
          "midi": 61,
          "time": 74.07073350000005,
          "velocity": 0.6299212598425197,
          "duration": 0.2511059812500065
        },
        {
          "name": "C#3",
          "midi": 49,
          "time": 74.33622000000005,
          "velocity": 0.6299212598425197,
          "duration": 0.3772120687499978
        },
        {
          "name": "B3",
          "midi": 59,
          "time": 74.73444975000005,
          "velocity": 0.6299212598425197,
          "duration": 0.12499989375000098
        },
        {
          "name": "C#4",
          "midi": 61,
          "time": 75.13267950000005,
          "velocity": 0.6299212598425197,
          "duration": 0.2511059812500065
        },
        {
          "name": "C#3",
          "midi": 49,
          "time": 75.39816600000006,
          "velocity": 0.6299212598425197,
          "duration": 0.3772120687499978
        },
        {
          "name": "B3",
          "midi": 59,
          "time": 75.79639575000006,
          "velocity": 0.6299212598425197,
          "duration": 0.12499989375000098
        },
        {
          "name": "A#3",
          "midi": 58,
          "time": 76.19462550000006,
          "velocity": 0.6299212598425197,
          "duration": 0.2511059812500065
        },
        {
          "name": "D#3",
          "midi": 51,
          "time": 76.46011200000007,
          "velocity": 0.6299212598425197,
          "duration": 0.3772120687499978
        },
        {
          "name": "A#3",
          "midi": 58,
          "time": 76.85834175000006,
          "velocity": 0.6299212598425197,
          "duration": 0.12499989375000098
        },
        {
          "name": "B3",
          "midi": 59,
          "time": 77.25657150000006,
          "velocity": 0.6299212598425197,
          "duration": 0.2511059812500065
        },
        {
          "name": "D#3",
          "midi": 51,
          "time": 77.52205800000007,
          "velocity": 0.6299212598425197,
          "duration": 0.3772120687499978
        },
        {
          "name": "A#3",
          "midi": 58,
          "time": 77.92028775000007,
          "velocity": 0.6299212598425197,
          "duration": 0.12499989375000098
        },
        {
          "name": "B3",
          "midi": 59,
          "time": 78.31851750000007,
          "velocity": 0.6299212598425197,
          "duration": 0.2511059812500065
        },
        {
          "name": "D#3",
          "midi": 51,
          "time": 78.58400400000008,
          "velocity": 0.6299212598425197,
          "duration": 0.3772120687499978
        },
        {
          "name": "A#3",
          "midi": 58,
          "time": 78.98223375000008,
          "velocity": 0.6299212598425197,
          "duration": 0.12499989375000098
        },
        {
          "name": "B3",
          "midi": 59,
          "time": 79.38046350000008,
          "velocity": 0.6299212598425197,
          "duration": 0.2511059812500065
        },
        {
          "name": "D#3",
          "midi": 51,
          "time": 79.64595000000008,
          "velocity": 0.6299212598425197,
          "duration": 0.3772120687499978
        },
        {
          "name": "A#3",
          "midi": 58,
          "time": 80.04417975000008,
          "velocity": 0.6299212598425197,
          "duration": 0.12499989375000098
        },
        {
          "name": "B3",
          "midi": 59,
          "time": 80.44240950000008,
          "velocity": 0.6299212598425197,
          "duration": 0.2511059812500065
        },
        {
          "name": "G#3",
          "midi": 56,
          "time": 80.70789600000009,
          "velocity": 0.6299212598425197,
          "duration": 0.3772120687499978
        },
        {
          "name": "F#4",
          "midi": 66,
          "time": 81.10612575000009,
          "velocity": 0.6299212598425197,
          "duration": 0.12499989375000098
        },
        {
          "name": "G#4",
          "midi": 68,
          "time": 81.50435550000009,
          "velocity": 0.6299212598425197,
          "duration": 0.2511059812500065
        },
        {
          "name": "G#3",
          "midi": 56,
          "time": 81.7698420000001,
          "velocity": 0.6299212598425197,
          "duration": 0.3772120687499978
        },
        {
          "name": "F#4",
          "midi": 66,
          "time": 82.1680717500001,
          "velocity": 0.6299212598425197,
          "duration": 0.12499989375000098
        },
        {
          "name": "G#4",
          "midi": 68,
          "time": 82.5663015000001,
          "velocity": 0.6299212598425197,
          "duration": 0.2511059812500065
        },
        {
          "name": "E3",
          "midi": 52,
          "time": 82.8317880000001,
          "velocity": 0.6299212598425197,
          "duration": 0.3772120687499978
        },
        {
          "name": "B3",
          "midi": 59,
          "time": 83.2300177500001,
          "velocity": 0.6299212598425197,
          "duration": 0.12499989375000098
        },
        {
          "name": "C#4",
          "midi": 61,
          "time": 83.6282475000001,
          "velocity": 0.6299212598425197,
          "duration": 0.2511059812500065
        },
        {
          "name": "E3",
          "midi": 52,
          "time": 83.89373400000011,
          "velocity": 0.6299212598425197,
          "duration": 0.3772120687499978
        },
        {
          "name": "B3",
          "midi": 59,
          "time": 84.29196375000011,
          "velocity": 0.6299212598425197,
          "duration": 0.12499989375000098
        },
        {
          "name": "C#4",
          "midi": 61,
          "time": 84.6901935000001,
          "velocity": 0.6299212598425197,
          "duration": 0.2511059812500065
        },
        {
          "name": "E3",
          "midi": 52,
          "time": 84.95568000000011,
          "velocity": 0.6299212598425197,
          "duration": 3.5298642562499936
        },
        {
          "name": "G#3",
          "midi": 56,
          "time": 84.95568000000011,
          "velocity": 0.6299212598425197,
          "duration": 3.5298642562499936
        },
        {
          "name": "B3",
          "midi": 59,
          "time": 84.95568000000011,
          "velocity": 0.6299212598425197,
          "duration": 3.5298642562499936
        },
        {
          "name": "E3",
          "midi": 52,
          "time": 88.67249100000011,
          "velocity": 0.6299212598425197,
          "duration": 0.2511059812500065
        },
        {
          "name": "G#3",
          "midi": 56,
          "time": 88.67249100000011,
          "velocity": 0.6299212598425197,
          "duration": 0.2511059812500065
        },
        {
          "name": "B3",
          "midi": 59,
          "time": 88.67249100000011,
          "velocity": 0.6299212598425197,
          "duration": 0.2511059812500065
        },
        {
          "name": "C#3",
          "midi": 49,
          "time": 88.93797750000012,
          "velocity": 0.6299212598425197,
          "duration": 3.2776520812499967
        },
        {
          "name": "E3",
          "midi": 52,
          "time": 88.93797750000012,
          "velocity": 0.6299212598425197,
          "duration": 3.2776520812499967
        },
        {
          "name": "G#3",
          "midi": 56,
          "time": 88.93797750000012,
          "velocity": 0.6299212598425197,
          "duration": 3.2776520812499967
        },
        {
          "name": "C#3",
          "midi": 49,
          "time": 92.38930200000011,
          "velocity": 0.6299212598425197,
          "duration": 1.007742506249997
        },
        {
          "name": "F#3",
          "midi": 54,
          "time": 92.38930200000011,
          "velocity": 0.6299212598425197,
          "duration": 1.007742506249997
        },
        {
          "name": "A#3",
          "midi": 58,
          "time": 92.38930200000011,
          "velocity": 0.6299212598425197,
          "duration": 1.007742506249997
        },
        {
          "name": "D#3",
          "midi": 51,
          "time": 93.4512480000001,
          "velocity": 0.6299212598425197,
          "duration": 3.02543990625
        },
        {
          "name": "F#3",
          "midi": 54,
          "time": 93.4512480000001,
          "velocity": 0.6299212598425197,
          "duration": 3.02543990625
        },
        {
          "name": "A#3",
          "midi": 58,
          "time": 93.4512480000001,
          "velocity": 0.6299212598425197,
          "duration": 3.02543990625
        },
        {
          "name": "D#3",
          "midi": 51,
          "time": 96.63708600000011,
          "velocity": 0.6299212598425197,
          "duration": 0.5033181562500033
        },
        {
          "name": "F#3",
          "midi": 54,
          "time": 96.63708600000011,
          "velocity": 0.6299212598425197,
          "duration": 0.5033181562500033
        },
        {
          "name": "B3",
          "midi": 59,
          "time": 96.63708600000011,
          "velocity": 0.6299212598425197,
          "duration": 0.5033181562500033
        },
        {
          "name": "A#3",
          "midi": 58,
          "time": 97.16805900000011,
          "velocity": 0.6299212598425197,
          "duration": 0.5033181562500033
        },
        {
          "name": "D#3",
          "midi": 51,
          "time": 97.69903200000012,
          "velocity": 0.6299212598425197,
          "duration": 2.1227858062500076
        },
        {
          "name": "G#3",
          "midi": 56,
          "time": 97.76429743125011,
          "velocity": 0.6299212598425197,
          "duration": 2.0564141812500054
        },
        {
          "name": "B3",
          "midi": 59,
          "time": 97.83066905625012,
          "velocity": 0.6299212598425197,
          "duration": 1.9900425562500033
        },
        {
          "name": "E3",
          "midi": 52,
          "time": 99.82292400000013,
          "velocity": 0.6299212598425197,
          "duration": 1.007742506249997
        },
        {
          "name": "G#3",
          "midi": 56,
          "time": 99.82292400000013,
          "velocity": 0.6299212598425197,
          "duration": 1.007742506249997
        },
        {
          "name": "B3",
          "midi": 59,
          "time": 99.82292400000013,
          "velocity": 0.6299212598425197,
          "duration": 1.007742506249997
        },
        {
          "name": "E3",
          "midi": 52,
          "time": 100.88487000000012,
          "velocity": 0.6299212598425197,
          "duration": 0.5033181562500033
        },
        {
          "name": "G#3",
          "midi": 56,
          "time": 100.88487000000012,
          "velocity": 0.6299212598425197,
          "duration": 0.5033181562500033
        },
        {
          "name": "B3",
          "midi": 59,
          "time": 100.88487000000012,
          "velocity": 0.6299212598425197,
          "duration": 0.5033181562500033
        },
        {
          "name": "E3",
          "midi": 52,
          "time": 101.41584300000012,
          "velocity": 0.6299212598425197,
          "duration": 0.5298668062499985
        },
        {
          "name": "G#3",
          "midi": 56,
          "time": 101.48221462500013,
          "velocity": 0.6299212598425197,
          "duration": 0.46349518124999634
        },
        {
          "name": "B3",
          "midi": 59,
          "time": 101.54858625000013,
          "velocity": 0.6299212598425197,
          "duration": 0.3971235562499942
        }
      ],
      "controlChanges": {},
      "id": 1,
      "name": "Piano",
      "channelNumber": 0,
      "isPercussion": false
    }
  ]
}